<svg xmlns="http://www.w3.org/2000/svg" viewBox="0 0 28 28"><path fill-rule="evenodd" d="M21.972 5.955a6.406 6.406 0 0 1 1.197 7.385c-.106.212-.06.417.045.521l2.923 2.922c.587.588.587 1.54 0 2.128l-.258.259a1.505 1.505 0 0 1-2.128 0l-2.923-2.923c-.104-.105-.31-.15-.52-.045a6.405 6.405 0 0 1-7.386-1.197 6.406 6.406 0 0 1 0-9.05 6.406 6.406 0 0 1 9.05 0Zm-1.986 7.064c1.4-1.4 1.4-3.678 0-5.078a3.595 3.595 0 0 0-5.078 0 3.596 3.596 0 0 0 0 5.078c1.4 1.4 3.679 1.4 5.078 0Z" clip-rule="evenodd"/><path d="M2.916 5.46h7.661a8.106 8.106 0 0 0-1.4 3.5H2.916a1.75 1.75 0 1 1 0-3.5Zm6.381 7H2.916a1.75 1.75 0 1 0 0 3.5h8.09c-.795-.868-1.405-2.012-1.709-3.5Zm12.693 7H2.916a1.75 1.75 0 1 0 0 3.5h19.833a1.75 1.75 0 0 0 1.721-1.431c-.88-.096-1.999-1.39-2.48-2.07Z"/></svg>