<svg xmlns="http://www.w3.org/2000/svg" width="66" height="36" fill="none"><mask id="a" width="59" height="33" x="4" y="3" maskUnits="userSpaceOnUse" style="mask-type:luminance"><path fill="#fff" d="M62.105 3H4v33h58.105V3Z"/></mask><g mask="url(#a)"><path fill="#0C2E4B" fill-rule="evenodd" d="M10.581 4.645h45.145l5.125 7.031-5.125 7.258H10.581l-5.124-7.258 5.124-7.031Z" clip-rule="evenodd"/><path fill="#0C2E4B" fill-rule="evenodd" d="m15.911 17.132 33.686-.201 3.004 6.515-4.278 7.545-30.441.006-4.327-7.429 2.355-6.436h.001Z" clip-rule="evenodd"/><path fill="url(#b)" fill-rule="evenodd" d="m16.209 19.92-1.647 3.39 3.486 6.801h30.01l3.486-6.801-1.647-3.39-.81-1.673h5.982l4.526-6.56L55.07 5.32H11.036L6.51 11.688l4.526 6.559h5.986M4.233 12 4 11.688l.236-.31L10.29 3h3.986l.615.622h36.323L51.828 3h3.987l6.054 8.379.236.309-.231.31-6.1 8.787-3.232-.006 1.275 2.63-4.714 9.378h-5.837l-.55-.555H23.388l-.548.555h-5.838l-4.715-9.38 1.275-2.63-3.232.007L4.233 12Z" clip-rule="evenodd"/><path fill="url(#c)" fill-rule="evenodd" d="M11.04 18.247h5.985l-.51.348-5.697.132.222-.48Zm38.05 0h5.983l.016-.02.241.54-4.782.727-.974-.956-.485-.291Z" clip-rule="evenodd"/><path fill="url(#d)" fill-rule="evenodd" d="m13.493 20.778.73-.43.184.766-1.758 2.26-.356.02 1.267-2.616h-.068Z" clip-rule="evenodd"/><path fill="url(#e)" fill-rule="evenodd" d="m51.24 3.592.101.341 1.21.476 3.106-1.098.148-.311h-3.98l-.585.592Z" clip-rule="evenodd"/><path fill="url(#f)" fill-rule="evenodd" d="m14.276 3-.13.31-1.139.748-2.684.325-5.47 7.309L4 11.687l.236-.309L10.29 3h3.986Z" clip-rule="evenodd"/><path fill="url(#g)" fill-rule="evenodd" d="m51.96 3.31-.615.623H14.762l-.614-.622h-3.703l-6.054 8.378 1.72.01 4.772-6.692h44.341l4.789 6.714 1.704-.032-6.056-8.378H51.96Z" clip-rule="evenodd"/><path fill="url(#h)" fill-rule="evenodd" d="m16.513 18.596-5.63-.038L6.12 11.69H4.39l6.094 8.784 3.573-.007-1.407 2.906 4.508 9.104h5.553l.548-.556h19.59l.548.556h5.552l4.508-9.104-1.407-2.906 3.573.007 6.094-8.784h-1.73l-4.762 6.868-5.653-.02.517 1.068 1.816 3.738-3.69 7.079H17.892l-3.69-7.079 1.816-3.738.494-1.01Z" clip-rule="evenodd"/><path fill="#F6EA8E" fill-rule="evenodd" d="M55.47 20.473h.154l1.28-1.837-1.126-.873-.552.794h-2.17l2.415 1.916Zm2.064-2.75.724-1.045-1.135-.855-.718 1.035 1.129.865Z" clip-rule="evenodd"/><path fill="#FEF8C2" fill-rule="evenodd" d="M20.546 3.933h-2.02l1.353 1.074h2.02l-1.353-1.074Zm-3.8 0H14.76l-.615-.622h-1.908l2.138 1.696H18.1l-1.354-1.074Z" clip-rule="evenodd"/><path fill="url(#i)" fill-rule="evenodd" d="m38.696 30.11 2.122 2.122H38.33l-2.111-2.122h2.477Z" clip-rule="evenodd"/><path fill="url(#j)" fill-rule="evenodd" d="M38.465 31.922h1.608l-1.5-1.5h-1.608l1.5 1.5Z" clip-rule="evenodd"/><path fill="url(#k)" fill-rule="evenodd" d="m30.117 32.539 3.46-3.46 3.46 3.46-3.46 3.46-3.46-3.46Z" clip-rule="evenodd"/><path fill="url(#l)" fill-rule="evenodd" d="m30.555 32.539 3.02-3.021 3.02 3.02-3.02 3.021-3.02-3.02Z" clip-rule="evenodd"/><path fill="url(#m)" fill-rule="evenodd" d="M31.141 32.41 33.45 30.1a.184.184 0 0 1 .258 0l2.308 2.309a.181.181 0 0 1 0 .257l-2.308 2.309a.183.183 0 0 1-.258 0l-2.308-2.309a.182.182 0 0 1 .001-.259v.002Z" clip-rule="evenodd"/><path fill="#0C76A0" fill-rule="evenodd" d="m31.836 32.6 1.739-1.954 2.373 1.894-2.373 2.373-1.74-2.312V32.6Z" clip-rule="evenodd"/><path fill="url(#n)" fill-rule="evenodd" d="m34.444 34.043-.87.869-.105-1.234.909-.505c-.165.282-.497 1.013.066.87Z" clip-rule="evenodd"/><path fill="url(#o)" fill-rule="evenodd" d="m33.377 30.364.199-.198 2.373 2.373h-2.572v-2.175Z" clip-rule="evenodd"/><path fill="url(#p)" fill-rule="evenodd" d="m31.205 32.539 2.374-2.175v4.548l-2.374-2.373Z" clip-rule="evenodd"/><path fill="#29A2D0" fill-rule="evenodd" d="M33.575 32.888v2.025l-.586-.586c.178-.288 0-.79-.337-1.19l.923-.249Z" clip-rule="evenodd"/><path fill="url(#q)" fill-rule="evenodd" d="m31.205 32.539 2.374-2.373v2.373h-2.374Z" clip-rule="evenodd"/><path fill="url(#r)" fill-rule="evenodd" d="m32.14 32.539 1.435-1.434 1.434 1.434-1.434 1.434-1.434-1.434Z" clip-rule="evenodd"/><path fill="url(#s)" fill-rule="evenodd" d="m32.101 32.496 1.435-1.433a.058.058 0 0 1 .042-.017.058.058 0 0 1 .042.017l1.435 1.433a.06.06 0 0 1 .018.043.062.062 0 0 1-.018.043l-1.435 1.434a.06.06 0 0 1-.084 0L32.1 32.582a.062.062 0 0 1 0-.086Zm1.477-1.306-1.35 1.348 1.349 1.349 1.349-1.349-1.347-1.348h-.001Z" clip-rule="evenodd"/><path fill="url(#t)" fill-rule="evenodd" d="M33.516 30.166c0-.008 0-.015.004-.023a.06.06 0 0 1 .055-.038c.017 0 .032.006.043.018a.062.062 0 0 1 .018.043v.96a.06.06 0 0 1-.116.023.059.059 0 0 1-.004-.022v-.96Z" clip-rule="evenodd"/><path fill="#A9F2FA" fill-rule="evenodd" d="M31.205 32.6a.059.059 0 0 1-.056-.037.059.059 0 0 1-.004-.024.059.059 0 0 1 .017-.043.06.06 0 0 1 .043-.017h.961c.008 0 .016.002.023.004a.059.059 0 0 1 .032.033.059.059 0 0 1 .005.023.06.06 0 0 1-.06.06h-.961Z" clip-rule="evenodd"/><path fill="#4FE7F7" fill-rule="evenodd" d="M33.636 34.912a.06.06 0 0 1-.018.043.063.063 0 0 1-.043.018.06.06 0 0 1-.023-.005.059.059 0 0 1-.032-.033.058.058 0 0 1-.004-.023v-.962a.06.06 0 0 1 .017-.043.059.059 0 0 1 .042-.017c.008 0 .016.001.023.004a.063.063 0 0 1 .02.013c.006.006.01.013.013.02a.06.06 0 0 1 .005.023v.962Z" clip-rule="evenodd"/><path fill="#9BF0FA" fill-rule="evenodd" d="M35.95 32.479a.061.061 0 0 1 .043.017.061.061 0 0 1 0 .086.06.06 0 0 1-.043.018h-.96a.071.071 0 0 1-.023-.005.058.058 0 0 1-.033-.033.059.059 0 0 1-.004-.023c0-.008 0-.015.004-.023a.06.06 0 0 1 .056-.037h.96Z" clip-rule="evenodd"/><path fill="url(#u)" fill-rule="evenodd" d="m28.448 30.11-2.122 2.122h2.489l2.11-2.122h-2.477Z" clip-rule="evenodd"/><path fill="url(#v)" fill-rule="evenodd" d="M28.683 31.922h-1.609l1.5-1.5h1.609l-1.5 1.5Z" clip-rule="evenodd"/><path fill="url(#w)" fill-rule="evenodd" d="M36.81 32.759h2.488l-3.68-3.68h-4.093l-3.681 3.68h2.488l3.238-3.238 3.238 3.238h.002Z" clip-rule="evenodd"/><path fill="url(#x)" fill-rule="evenodd" d="M36.94 32.448h1.608l-3.058-3.06h-1.608l3.058 3.06Zm-6.733 0H28.6l3.058-3.06h1.608l-3.058 3.06Z" clip-rule="evenodd"/><path fill="#06223B" fill-rule="evenodd" d="M43.987 22.893v-1.856c0-.316-.074-1.176-.37-1.368l-.282-.184V18.5h4.196v.985l-.281.184c-.315.206-.408 1.027-.408 1.368v5.041c0 .34.093 1.165.408 1.369l.282.183v.985h-3.737l-.158-.388a7.78 7.78 0 0 0-.592-1.12l-1.8-2.922v1.893c0 .316.075 1.176.37 1.368l.281.184v.985H37.7v-.977l.273-.185c.318-.216.417-1.023.417-1.375v-5.104c0-.342-.106-1.1-.417-1.31l-.274-.186V18.5h4.086l.056.56c.029.298.287.715.438.969l1.707 2.864h.001ZM22.211 25.71c0-.561-.846-.823-1.263-.995-1.608-.665-2.737-1.414-2.737-3.333a2.838 2.838 0 0 1 1.006-2.156c.741-.64 1.719-.89 2.683-.89.73.003 1.456.1 2.162.288l.43.11.254 3.207h-1.037l-.184-.282c-.37-.568-.831-.765-1.497-.765-.26 0-.848-.012-.848.362 0 .4.872.683 1.165.803 1.698.705 2.876 1.505 2.876 3.523 0 2.14-1.781 3.202-3.733 3.226-.923.011-2.107-.12-2.908-.6l-.268-.16-.293-2.883.869-.431.312.405c.57.74 1.186 1.12 2.137 1.098.389-.01.876-.042.876-.527h-.003.001Zm6.675-.017v.439c0 .339.096 1.112.408 1.317l.282.183v.985h-4.374v-.978l.272-.185c.318-.217.417-1.023.417-1.375v-5.092c0-.339-.094-1.113-.408-1.317l-.281-.184V18.5h4.11c2.211 0 3.843 1.177 3.843 3.507s-1.472 3.685-3.843 3.685h-.426Zm4.162 2.924v-.977l.272-.185c.319-.217.418-1.024.418-1.375v-5.04c0-.345-.09-1.16-.408-1.37l-.282-.183v-.984h4.388v.976l-.272.186c-.318.216-.417 1.023-.417 1.374v5.041c0 .344.089 1.16.407 1.369l.282.183v.985h-4.388Zm-4.162-7.607v2.174l.143.003c.791.012 1.067-.31 1.067-1.09 0-.817-.256-1.087-1.078-1.087h-.132Z" clip-rule="evenodd"/><path fill="url(#y)" fill-rule="evenodd" d="M21.405 28.104c-.828.01-1.953-.102-2.676-.536l-.076-.046-.237-2.355.267-.132.09.116c.662.86 1.408 1.298 2.5 1.271.664-.016 1.308-.202 1.308-.97 0-.833-.897-1.141-1.538-1.406-1.41-.582-2.462-1.188-2.462-2.922a2.387 2.387 0 0 1 .853-1.82c.658-.568 1.54-.782 2.392-.782a8.008 8.008 0 0 1 2.052.273l.123.033.191 2.41h-.314l-.053-.08c-.458-.7-1.059-.966-1.87-.966-.558 0-1.292.097-1.292.805 0 .708.905.993 1.437 1.214 1.503.624 2.601 1.28 2.601 3.113s-1.57 2.76-3.293 2.781h-.003Zm6.962-3.115v.882c0 .512.134 1.38.61 1.689l.08.055v.3H25.57v-.297l.078-.053c.475-.323.612-1.223.612-1.742v-5.095c0-.513-.135-1.38-.61-1.69l-.08-.052v-.3h3.666c1.972 0 3.398.988 3.398 3.062 0 2.184-1.275 3.24-3.398 3.24h-.868v.001Zm5.05 2.923v-.297l.078-.053c.474-.323.61-1.222.61-1.742v-5.04c0-.52-.125-1.425-.61-1.74l-.08-.054v-.3h3.498v.298l-.077.055c-.475.323-.61 1.222-.61 1.742v5.04c0 .52.124 1.425.61 1.741l.08.052v.3l-3.5-.003v.001Zm10.997-3.338c-.041-.499-.055-.993-.055-1.497V20.78c0-.499-.102-1.434-.572-1.74l-.08-.053v-.3h3.308v.3l-.08.053c-.48.314-.61 1.225-.61 1.74v5.042c0 .514.13 1.426.61 1.74l.08.052v.3H44.02l-.045-.11a8.383 8.383 0 0 0-.626-1.187l-1.804-2.923a12.426 12.426 0 0 1-.888-1.703c.047.545.065 1.09.065 1.663v2.17c0 .496.103 1.433.572 1.74l.08.055v.3h-3.307v-.297l.078-.053c.476-.323.61-1.223.61-1.742v-5.11c0-.521-.153-1.369-.61-1.678l-.078-.055v-.298h3.24l.016.16c.038.389.305.827.499 1.152l1.84 3.09c.28.479.531.976.75 1.486l.002.002Zm-16.047-4.27v3.055l.579.01c1.046.018 1.519-.505 1.519-1.532 0-1.028-.45-1.533-1.522-1.533h-.576Z" clip-rule="evenodd"/><path fill="#FFF0BD" fill-rule="evenodd" d="M31.361 22.602c-.08.807-.902 1.33-1.721 1.365.26-.204.173-.51-.181-.64.168-.032.328-.096.471-.19a.761.761 0 0 0 .305-.312c.033-.052.061-.106.086-.162.07.38.589.41 1.04-.06v-.001Z" clip-rule="evenodd"/><path fill="url(#z)" fill-rule="evenodd" d="M26.263 20.657c-.008-.373-.085-.898-.298-1.271.048-.249.142-.486.277-.7h3a4.502 4.502 0 0 1 1.583.262c.04.055.483 1.021.43 1.595.096.177.103 1.207-.84 1.838.039-.178.057-.36.055-.544 0-1.068-.45-1.533-1.521-1.533h-.579v2.188c-.894-.42-1.679-1.294-2.107-1.836v.001Z" clip-rule="evenodd"/><path fill="url(#A)" fill-rule="evenodd" d="M27.328 24.216v-4.722l1.04.812v3.054l-1.04.797.14.06h-.14v-.001Z" clip-rule="evenodd"/><path fill="url(#B)" fill-rule="evenodd" d="M28.369 25.872c0 .512.135 1.38.61 1.689l.08.055v.3h-1.73v-3.7h.14l.9.385v1.271Z" clip-rule="evenodd"/><path fill="url(#C)" fill-rule="evenodd" d="M27.327 24.156h1.292c2.125 0 2.947-.733 2.947-2.35 0-1.616-.976-2.314-2.947-2.314h-1.301l-1.748-.806h3.667c1.971 0 3.398.988 3.398 3.062 0 2.185-1.275 3.241-3.398 3.241h-.869l-1.04-.832v-.002.001Z" clip-rule="evenodd"/><path fill="#B97D1C" fill-rule="evenodd" d="M30.349 24.876c.253-.358-.023-.562-1.083-.626.925-.358 1.809-.666 2.288-1.663-.096.969-.048 1.582.578 1.13-.388.597-.997.981-1.783 1.158v.002Z" clip-rule="evenodd"/><path fill="url(#D)" fill-rule="evenodd" d="M27.327 18.687v9.226H25.57v-.297l.078-.053c.476-.323.612-1.223.612-1.742v-5.093c0-.512-.135-1.38-.61-1.689l-.08-.053v-.3h1.757v.001Z" clip-rule="evenodd"/><path fill="url(#E)" fill-rule="evenodd" d="M33.419 27.912v-.297l.077-.053c.475-.323.61-1.222.61-1.742v-5.04c0-.52-.125-1.425-.61-1.741l-.08-.053v-.3h3.499v.298l-.078.055c-.475.323-.61 1.222-.61 1.742v5.04c0 .52.125 1.425.61 1.741l.08.052v.3l-3.498-.003v.001Z" clip-rule="evenodd"/><path fill="url(#F)" fill-rule="evenodd" d="M36.23 25.877c.009.523.146 1.38.61 1.683l.08.055v.3h-.505a11.39 11.39 0 0 1-1.164-.355s-.097-2.436.02-3.85c.064 1.107.398 2.129.959 2.167Z" clip-rule="evenodd"/><path fill="url(#G)" fill-rule="evenodd" d="M33.419 27.912v-.297l.077-.053c.475-.323.61-1.222.61-1.742v-5.04c0-.52-.125-1.425-.61-1.741l-.08-.053v-.3h1.734v9.225h-1.73l-.002.001Z" clip-rule="evenodd"/><path fill="url(#H)" fill-rule="evenodd" d="M44.418 24.575c-.042-.5-.055-.993-.055-1.497V20.78c0-.5-.102-1.435-.572-1.74l-.08-.053v-.3h3.308v.3l-.081.053c-.48.314-.61 1.225-.61 1.74v5.041c0 .515.13 1.427.61 1.74l.08.055v.3h-2.993l-.045-.11a8.355 8.355 0 0 0-.626-1.187l-1.805-2.926a12.556 12.556 0 0 1-.887-1.704c.046.546.064 1.091.064 1.663v2.17c0 .496.103 1.434.571 1.74l.08.055v.3h-3.306v-.298l.078-.053c.475-.322.61-1.222.61-1.742v-5.108c0-.522-.153-1.37-.61-1.678l-.079-.056v-.297h3.24l.016.16c.039.388.306.826.5 1.151l1.84 3.09c.28.479.53.976.75 1.486l.002.003Z" clip-rule="evenodd"/><path fill="url(#I)" fill-rule="evenodd" d="m44.413 24.575.913 2.245-.002 1.093-5.2-8.359-.284-.867h1.47l.016.16c.039.388.306.826.5 1.151l1.84 3.09c.28.48.529.976.747 1.487Z" clip-rule="evenodd"/><path fill="url(#J)" fill-rule="evenodd" d="M45.344 27.913H44.02a8.61 8.61 0 0 0-.671-1.297l-1.802-2.924A13.41 13.41 0 0 1 40.661 22l-1-3.314.461.868 5.222 8.36v-.001Z" clip-rule="evenodd"/><path fill="url(#K)" fill-rule="evenodd" d="M44.699 27.912h-.679c-.2-.492-1.007-1.844-1.286-2.295 1.204 1.095.955.118.511-.706l-.462-.86 2.18 3.252c-.05.13-.145.363-.264.61v-.001Z" clip-rule="evenodd"/><path fill="url(#L)" fill-rule="evenodd" d="M44.418 24.574c-.042-.5-.056-.993-.056-1.497V20.78c0-.499-.102-1.434-.57-1.74l-.081-.053v-.3h1.71l-.076 9.226-.016-1.093-.91-2.245h-.001Z" clip-rule="evenodd"/><path fill="url(#M)" fill-rule="evenodd" d="M40.662 21.988c.046.547.065 1.091.065 1.663v2.17c0 .496.103 1.434.57 1.74l.082.055v.3H39.66l.074-9.226h.197l.73 3.297.001.001Z" clip-rule="evenodd"/><path fill="url(#N)" fill-rule="evenodd" d="M45.33 18.686h1.688v.3l-.08.053c-.48.314-.61 1.225-.61 1.74v5.042c0 .515.128 1.426.61 1.74l.08.055v.3H45.33v-9.23Z" clip-rule="evenodd"/><path fill="url(#O)" fill-rule="evenodd" d="M46.324 25.877c.009.523.146 1.38.61 1.683l.08.055v.3h-.505a11.384 11.384 0 0 1-1.164-.355s-.02-2.333.098-3.746c0 0 .056 2.293.88 2.067v-.004Z" clip-rule="evenodd"/><path fill="url(#P)" fill-rule="evenodd" d="m39.738 27.856-1.663.056v-.298l.078-.052c.475-.323.61-1.223.61-1.742v-5.106c0-.522-.153-1.369-.61-1.678l-.079-.055v-.298h1.663v9.173h.001Z" clip-rule="evenodd"/><path fill="#FEF8C2" fill-rule="evenodd" d="M39.62 20.615v3.195c-.183-.94-.477-1.774-.858-1.247v-1.818c.096.296.515.596.857-.13Z" clip-rule="evenodd"/><path fill="url(#Q)" fill-rule="evenodd" d="m41.38 27.912-1.643-1.056c-.297.361-1.041.697-1.663.759v.297h3.307Z" clip-rule="evenodd"/><path fill="url(#R)" fill-rule="evenodd" d="m44.02 27.912 1.306-1.1c.298.362.908.665 1.688.8v.3h-2.995Z" clip-rule="evenodd"/><path fill="#F5E885" fill-rule="evenodd" d="m41.313 18.686-1.576 1.153c-.297-.363-.887-.721-1.663-.855v-.298h3.239ZM43.707 18.686l1.62 1.082c.298-.362.803-.628 1.688-.782v-.3h-3.308Z" clip-rule="evenodd"/><path fill="url(#S)" d="M39.77 19.67c.37-.271 1.119-.838 1.543-.984l-.858.749a.266.266 0 0 0-.05.342l4.423 7.11a.172.172 0 0 0 .127.082c.16.022.258-.166.258-.305V19.83l-1.502-1.134 1.608.925c.201-.163.858-.6 1.696-.636-.788.215-1.06.333-1.57.835v6.754a.426.426 0 0 0 .163.345c.487.397.965.494 1.407.704-.428.01-1.031-.245-1.419-.47a.525.525 0 0 0-.591.04c-.32.244-.62.48-.983.73.195-.218.438-.502.702-.755l-4.528-7.283c-.1-.16-.34-.071-.34.102v6.868c0 .03-.011.058-.031.08-.185.228-1.075.695-1.75.679.559-.173 1.082-.291 1.546-.801v-6.772a.507.507 0 0 0-.147-.368c-.376-.393-1.043-.563-1.398-.68.761.04 1.35.346 1.695.675Z"/><path fill="url(#T)" fill-rule="evenodd" d="m36.919 27.912-1.765-1.056c-.297.361-1.11.697-1.734.759v.297h3.499Z" clip-rule="evenodd"/><path fill="url(#U)" fill-rule="evenodd" d="m29.058 27.913-1.646-1.03c-.298.362-1.22.67-1.842.732v.298h3.487Z" clip-rule="evenodd"/><path fill="url(#V)" fill-rule="evenodd" d="M31.347 20.72c-.388-.814-1.296-1.226-2.728-1.226h-1.301l-1.748-.808h3.667c2.062 0 3.462 1.066 3.395 3.228-.309-.723-.675-.955-1.287-1.193h.002Z" clip-rule="evenodd"/><path fill="#F5E885" fill-rule="evenodd" d="M36.919 18.687 35.154 19.7c-.297-.362-1.11-.653-1.734-.715v-.297l3.499-.001Z" clip-rule="evenodd"/><path fill="url(#W)" fill-rule="evenodd" d="M21.405 28.104c-.828.01-1.953-.102-2.676-.536l-.076-.046-.237-2.355.267-.132.09.116c.662.86 1.408 1.298 2.5 1.271.664-.016 1.308-.202 1.308-.97 0-.833-.897-1.141-1.538-1.406-1.41-.582-2.462-1.188-2.462-2.922a2.387 2.387 0 0 1 .853-1.82c.658-.568 1.54-.782 2.392-.782a8.008 8.008 0 0 1 2.052.273l.123.033.191 2.41h-.314l-.053-.08c-.458-.7-1.059-.966-1.87-.966-.558 0-1.292.097-1.292.805 0 .708.905.993 1.437 1.214 1.503.624 2.601 1.28 2.601 3.113s-1.57 2.76-3.293 2.781h-.003Z" clip-rule="evenodd"/><path fill="url(#X)" fill-rule="evenodd" d="m24.104 20.097.09 1.141h-.314l-.053-.08c-.458-.702-1.059-.967-1.87-.967-.558 0-1.292.097-1.292.805 0 .105.021.209.063.304-.643.576.798 1.701.798 1.701-1.979.355-2.447-2.35-2.436-3.011.011-.662 1.94-1.153 3.184-1.096.683.031 1.358.65 1.83 1.203h-.001Z" clip-rule="evenodd"/><path fill="url(#Y)" fill-rule="evenodd" d="M21.405 28.104c-.828.01-1.953-.103-2.676-.536l-.076-.046-.237-2.355.267-.132.09.115c.662.86 1.408 1.299 2.5 1.272.664-.017 1.308-.202 1.308-.971a.974.974 0 0 0-.166-.558c.341-.045.61-.134.743-.284.429-.48.216-1.392.065-1.858.895.529 1.477 1.239 1.477 2.572-.002 1.872-1.571 2.76-3.295 2.782v-.001Z" clip-rule="evenodd"/><path fill="#B97D1C" fill-rule="evenodd" d="M22.992 27.803c.296-.38-.33-.534-1.181-.462.455-.353 1.765-1.663 1.94-2.253.136.682.301 1.585.743 1.31-.281.666-.827 1.13-1.502 1.405Z" clip-rule="evenodd"/><path fill="#D4A624" fill-rule="evenodd" d="M23.866 23.219c-.711-.66-1.605-.901-2.36-1.258.356.38 1.039 1.12-.125.98.51.308 1.782 1.226 2.218 1.604-.352-1.014-.167-1.542.266-1.326Z" clip-rule="evenodd"/><path fill="url(#Z)" fill-rule="evenodd" d="m18.55 26.513-.134-1.347.267-.132.09.116c.662.86 1.408 1.298 2.5 1.271.664-.016 1.308-.202 1.308-.97 0-.832-.897-1.142-1.538-1.406-1.41-.582-2.462-1.188-2.462-2.922a2.387 2.387 0 0 1 .853-1.82c.658-.568 1.54-.782 2.392-.782a7.999 7.999 0 0 1 2.052.273l.123.033.07.962c-.714-.273-1.527-.436-2.04-.428-1.142.016-2.482.384-2.445 1.713.018.662.346 1.202.967 1.587.569.352 1.225.54 1.813.846.68.353 1.185.862 1.264 1.668.137 1.396-1.153 2.055-2.375 2.13-.674.04-1.678-.223-2.706-.792h.002Z" clip-rule="evenodd"/><path fill="url(#aa)" fill-rule="evenodd" d="m18.55 26.513-.134-1.347.267-.132.09.116c.662.86 1.408 1.298 2.5 1.271.664-.016 1.308-.202 1.308-.97 0-.77-.76-1.089-1.38-1.341.756-.061 1.731.011 2.34.627.048.142.08.289.094.438.136 1.396-1.153 2.055-2.375 2.13-.675.04-1.679-.22-2.708-.792h-.001Z" clip-rule="evenodd"/><path fill="#E0B416" fill-rule="evenodd" d="M20.84 22.943c.064.241-.35.503-1.635-.015.444.49 1.092.807 1.843 1.116.337.14.745.29 1.056.525-.095-.53.565-.493 1.25 0-.148-.447-.435-.736-.784-.954a3.414 3.414 0 0 0-.194-.108c-.3-.156-.618-.281-.932-.413l-.01-.005-.027-.01c-.07.012-.555-.171-.567-.135v-.001Z" clip-rule="evenodd"/><path fill="#FFF0BD" fill-rule="evenodd" d="M23.491 25.739a1.45 1.45 0 0 1-.159.62c-.273.371-.698.627-1.173.78.092-.35.02-.765-.538-.745.48-.067.887-.271.953-.787.165.277.54.413.917.132Z" clip-rule="evenodd"/><path fill="#FEF8C2" fill-rule="evenodd" d="M20.309 18.784c-.2.188-.29.767 1.014.636-.776.124-1.497.463-1.685 1.198l-.008.012.004.006c-.034.143-.049.29-.044.438.004.123.018.246.045.366-.268-.322-.71-.556-1.053-.177v-.14a2.334 2.334 0 0 1 .222-1.001c.328.06.621.24.823.507.114-.29-.056-1.121-.618-.859.121-.172.263-.33.423-.467.26-.222.556-.397.875-.518h.002v-.001Z" clip-rule="evenodd"/><path fill="url(#ab)" fill-rule="evenodd" d="m24 18.827-1.053.636c.362.298.794.998.928 1.775h.315l-.191-2.411H24Z" clip-rule="evenodd"/><path fill="#FEF8C2" fill-rule="evenodd" d="m18.656 27.521.925-.534c-.363-.298-.761-1.174-.897-1.953l-.264.132.239 2.355h-.003Z" clip-rule="evenodd"/><path fill="#FEF8C2" fill-rule="evenodd" d="M23.116 19.493c.127.166.647 1.13.76 1.745-.303-.661-.603-1.179-.998-1.67-1.075-.203-2.917-.105-3.176 1.244-.19.993.72 1.703 1.523 2.06.256.115.519.218.777.33 1.044.453 1.9 1.16 1.748 2.41-.136 1.117-1.018 1.616-2.018 1.74-.72.08-1.448 0-2.133-.234l-.943.404.72-.547c-.376-.4-.693-1.424-.69-1.94.198.793.694 1.741.946 1.846.654.231 1.351.314 2.041.244.915-.105 1.723-.542 1.844-1.54.139-1.138-.665-1.759-1.607-2.168-.259-.111-.52-.215-.777-.33-.922-.408-1.887-1.216-1.662-2.334.3-1.487 2.235-1.646 3.448-1.416l1.08-.511-.883.665v.003-.001Z" clip-rule="evenodd"/><path fill="url(#ac)" d="M27.355 19.376h1.267c1.01 0 1.771.201 2.283.604.523.41.783 1.02.783 1.83 0 .844-.22 1.462-.721 1.872-.493.403-1.254.595-2.345.595h-1.119l.03 2.544 1.53 1.095-1.636-.884c-.467.38-1.27.61-1.852.587.57-.193 1.258-.398 1.724-.786l-.085-7.26-1.64-.887 1.78.69Zm.094.235.05 4.428h1.122c1.034 0 1.747-.176 2.196-.542.449-.367.633-.917.633-1.69 0-.731-.23-1.279-.692-1.643-.47-.37-1.182-.555-2.138-.555l-1.171.002Z"/><path fill="url(#ad)" d="m35.162 19.554 1.757-.867-1.648 1.075v7.034l1.648 1.119-1.752-.908c-.395.298-1.181.647-1.747.61.456-.171 1.002-.227 1.617-.808v-7.054c-.416-.332-1.094-.686-1.617-.768.617-.1 1.268.193 1.742.568Z"/><path fill="#FEF8C2" fill-rule="evenodd" d="m27.231 20.975.037 3.212c-.21-.94-.566-1.79-1.002-1.264v-1.816c.11.297.573.596.966-.13v-.002ZM35 22.42l.034 3.211c-.194-.939-.523-1.79-.927-1.264V22.55c.102.297.53.597.893-.13Z" clip-rule="evenodd"/><path fill="#06223B" fill-rule="evenodd" d="M46.489 17.028h-4.226v-.955l.196-.15c.026-.138-.032-.432-.09-.659l-2.487-.009c-.06.24-.122.56-.09.7l.167.154v.92h-10.76v-.977l.194-.132a.763.763 0 0 0 .317-.404c.12-.328.181-.675.179-1.024v-1.8c-.692-.14-1.571-.195-2.173.186l-.285.181-.632-.573.126-.307c.244-.592.546-1.144 1.09-1.509.554-.373 1.219-.452 1.874-.405V9.45c0-.343-.088-1.159-.407-1.367L29.2 7.9v-.985h5.212c.378 0 .848-.003 1.22-.087l.69-.156.047.503.249 2.606.028.303-.968.483-.277-.562c-.248-.504-.948-.596-1.448-.596h-1.065v1.445l.047.01c.616.135 1.29.222 1.922.182.166-.011.652-.066.79-.173l.277-.293.482.388.258.21-.13.307c-.172.41-.514.86-.834 1.158-.782.728-1.755.96-2.795.726l-.017-.004v1.168h.771c.809 0 1.579-.253 2.06-.935l.31-.437.899.45-.04.312-.181 1.424c.246-.39.448-.804.602-1.238l1.83-5.259c.066-.192.138-.66-.044-.812l-.222-.187v-.935H43.5v.926l-.148.132c-.26.233-.227.57-.118.873l1.354 3.79a1.21 1.21 0 0 0 .274-.12l.14-.085.6.093.296 1.042-.48 1.245c.161.322.388.72.631.972.247-.293.327-.975.327-1.29V9.387c0-.342-.107-1.1-.417-1.31l-.273-.185v-.977h4.08l.055.56c.029.298.287.715.439.969l1.709 2.865V9.453c0-.316-.076-1.176-.37-1.368l-.282-.184v-.985h4.196v.985l-.282.184c-.315.206-.408 1.027-.408 1.368v5.041c0 .34.093 1.165.408 1.369l.282.184v.984h-3.737l-.11-.277a7.555 7.555 0 0 0-.353-.742c-.12-.222-.25-.433-.381-.646L49.28 12.69a7.106 7.106 0 0 0-.055-.088v1.892c0 .316.074 1.176.37 1.368l.282.184v.985h-3.389v-.002Zm-26.293-6.316c.52-2.481 2.541-3.977 5.296-3.977a8.475 8.475 0 0 1 2.426.345l.406.118.283 3.053-.91.453-.301-.47c-.418-.65-1.174-.914-1.918-.914-1.576 0-2.267 1.109-2.267 2.581 0 1.367.524 2.723 2.1 2.723 1.05 0 1.746-.356 2.385-1.186l.362-.474.8.751-.386 2.86-.359.127c-.94.336-1.93.512-2.929.52-2.64 0-4.553-1.632-5.013-4.037-.515 2.471-2.507 4.103-5.245 4.103-3.096 0-5.172-2.154-5.172-5.23 0-3.25 2.103-5.395 5.363-5.395 2.682 0 4.615 1.613 5.078 4.053v-.004h.001Zm-5.14 4c1.497 0 2.1-1.4 2.1-2.709 0-1.446-.52-2.772-2.163-2.772-1.538 0-2.087 1.35-2.087 2.696-.003 1.457.482 2.785 2.15 2.785Zm26.488-1.953-.425-1.27-.421 1.27h.846Z" clip-rule="evenodd"/><path fill="url(#ae)" fill-rule="evenodd" d="M52.327 12.972a17.93 17.93 0 0 1-.058-1.497v-2.3c0-.499-.103-1.434-.571-1.74l-.081-.055v-.3h3.307v.3l-.08.055c-.48.314-.61 1.226-.61 1.74v5.042c0 .515.13 1.427.61 1.74l.08.055v.3H51.93l-.045-.11a8.39 8.39 0 0 0-.624-1.19l-1.802-2.923a12.38 12.38 0 0 1-.887-1.703c.046.546.064 1.09.064 1.663v2.17c0 .5.102 1.434.572 1.74l.08.055v.3h-3.307v-.298l.078-.055c.475-.323.61-1.22.61-1.742V9.112c0-.522-.153-1.368-.61-1.678l-.078-.055v-.296h3.24l.015.16c.039.389.306.827.5 1.153l1.84 3.088c.281.48.532.977.75 1.488Z" clip-rule="evenodd"/><path fill="url(#af)" fill-rule="evenodd" d="m52.323 12.972.914 2.245-.004 1.094-5.199-8.36-.284-.868h1.47l.016.16c.038.388.305.827.5 1.152l1.84 3.09c.28.48.53.976.748 1.487Z" clip-rule="evenodd"/><path fill="url(#ag)" fill-rule="evenodd" d="M53.255 16.309h-1.322a8.682 8.682 0 0 0-.67-1.298L49.46 12.09a13.328 13.328 0 0 1-.887-1.693l-1-3.314.463.868 5.218 8.359Z" clip-rule="evenodd"/><path fill="url(#ah)" fill-rule="evenodd" d="M52.612 16.308h-.68c-.2-.493-1.007-1.843-1.285-2.294 1.204 1.094.954.117.511-.707l-.462-.86 2.179 3.252c-.05.131-.144.363-.263.61Z" clip-rule="evenodd"/><path fill="url(#ai)" fill-rule="evenodd" d="M52.327 12.972a17.93 17.93 0 0 1-.058-1.497v-2.3c0-.499-.103-1.434-.571-1.74l-.08-.055v-.3h1.712l-.076 9.23-.016-1.094-.91-2.244Z" clip-rule="evenodd"/><path fill="url(#aj)" fill-rule="evenodd" d="M48.57 10.386c.046.545.065 1.09.065 1.663v2.17c0 .499.102 1.434.57 1.74l.08.055v.3h-1.719l.076-9.231h.197l.73 3.303Z" clip-rule="evenodd"/><path fill="url(#ak)" fill-rule="evenodd" d="M53.238 7.083h1.688v.3l-.08.055c-.481.314-.61 1.225-.61 1.74v5.042c0 .514.129 1.426.61 1.74l.08.055v.3h-1.688V7.083Z" clip-rule="evenodd"/><path fill="url(#al)" fill-rule="evenodd" d="M54.232 14.274c.009.523.146 1.38.61 1.683l.08.055v.3h-.504a11.387 11.387 0 0 1-1.165-.356s-.019-2.332.099-3.746c0 0 .055 2.293.88 2.068v-.003Z" clip-rule="evenodd"/><path fill="url(#am)" fill-rule="evenodd" d="m47.648 16.253-1.663.056v-.298l.078-.055c.475-.323.61-1.22.61-1.742V9.111c0-.522-.153-1.369-.61-1.678l-.079-.056v-.295h1.663v9.17h.001Z" clip-rule="evenodd"/><path fill="#FEF8C2" fill-rule="evenodd" d="M47.53 9.013v3.195c-.184-.94-.477-1.775-.858-1.247V9.14c.096.297.515.597.857-.129Z" clip-rule="evenodd"/><path fill="url(#an)" fill-rule="evenodd" d="M14.786 16.565c-2.856 0-4.727-1.96-4.727-4.786 0-3.003 1.9-4.951 4.919-4.951 2.842 0 4.74 1.94 4.74 4.773 0 2.832-1.981 4.964-4.932 4.964Zm.128-1.684c1.747 0 2.544-1.578 2.544-3.153 0-1.714-.713-3.216-2.61-3.216-1.792 0-2.53 1.53-2.53 3.141 0 1.723.673 3.229 2.595 3.229Z" clip-rule="evenodd"/><path fill="#FFF0BD" fill-rule="evenodd" d="M10.223 10.327c.075-.314.18-.62.315-.915a1.342 1.342 0 0 1 .983.695c.398 1.039-.45 1.352-.437.967.015-.386-.212-1.213-.861-.747Z" clip-rule="evenodd"/><path fill="url(#ao)" fill-rule="evenodd" d="M14.782 16.565c-1.47 0-2.678-.52-3.507-1.41.9.244 1.068-.212.906-.363 0 0 1.211-.1 1.509-.174.332.17.737.264 1.22.264 1.747 0 2.543-1.579 2.543-3.154 0-.111.88-1.95.874-2.06.52.222.583-.599.197-1.395.758.832 1.189 1.978 1.189 3.327 0 2.941-1.98 4.964-4.932 4.964Z" clip-rule="evenodd"/><path fill="#FEF8C2" fill-rule="evenodd" d="M10.725 9.048a4.198 4.198 0 0 1 1.126-1.275c-.01.024-.262.743 1.008.344 0 0-1.064 1.153-1.487 1.784.125-.286-.049-1.17-.647-.853Z" clip-rule="evenodd"/><path fill="url(#ap)" fill-rule="evenodd" d="M14.81 15.654c-2.181 0-3.613-1.594-3.613-3.89 0-2.44 1.453-4.026 3.76-4.026 2.172 0 3.622 1.577 3.622 3.882 0 2.304-1.514 4.035-3.768 4.035v-.001Zm.104-.772c1.748 0 2.545-1.579 2.545-3.154 0-1.714-.712-3.216-2.609-3.216-1.792 0-2.531 1.53-2.531 3.141 0 1.723.673 3.229 2.595 3.229Z" clip-rule="evenodd"/><path fill="#F8E98B" fill-rule="evenodd" d="M14.81 15.654c-.87 0-1.564-.236-2.126-.741 3.604 1.314 6.51-1.793 5.333-5.35.372.615.561 1.189.561 2.055 0 2.391-1.514 4.035-3.77 4.035h.002v.001Z" clip-rule="evenodd"/><path fill="url(#aq)" fill-rule="evenodd" d="M11.445 13.31a4.712 4.712 0 0 1-.248-1.547c0-.781.15-1.474.428-2.056.54-1.08 1.436-1.657 2.388-1.872a4.488 4.488 0 0 1 1.339-.079c.982.096 1.853.519 2.465 1.341.052.1.09.207.115.317-.687-.81-2.162-1.08-3.083-.904-1.793 0-2.532 1.53-2.532 3.14-.282.982-.239 2.253.145 3.081a4.174 4.174 0 0 1-1.018-1.42h.002Z" clip-rule="evenodd"/><path fill="#FFF0BD" fill-rule="evenodd" d="M18.073 13.582c-.233.572-.632 1.109-1.173 1.386.076-.142.257-.692-.554-.555.455-.354.766-.878.94-1.468.035.433.332.96.79.637h-.003Z" clip-rule="evenodd"/><path fill="#FEF8C2" d="M14.807 15.81c-1.13 0-2.066-.412-2.724-1.12-.658-.71-1.04-1.73-1.04-2.926 0-1.266.38-2.312 1.062-3.041.681-.73 1.656-1.14 2.85-1.14 1.128 0 2.07.41 2.732 1.12.662.709 1.042 1.718 1.042 2.915s-.395 2.289-1.085 3.028c-.69.74-1.668 1.164-2.836 1.164h-.001Zm-2.55-1.28c.613.66 1.491 1.044 2.55 1.044 1.059 0 2.021-.399 2.665-1.088.644-.69 1.021-1.688 1.021-2.868s-.356-2.088-.979-2.756c-.622-.668-1.5-1.043-2.56-1.043-1.126 0-2.043.384-2.678 1.064-.634.68-.997 1.676-.997 2.883 0 1.135.353 2.094.976 2.764h.002Z"/><path fill="url(#ar)" fill-rule="evenodd" d="M41.887 7.083H39.17v.289l.064.055c.35.295.31.912.176 1.299l-1.83 5.258c-.216.626-.684 1.546-1.189 1.996l-.06.055-.032.284h3.072v-.281l-.056-.053c-.166-.152-.129-.55-.055-.904.04-.181.088-.36.146-.537l1.154-3.49.413-1.248.913-2.724h.001Z" clip-rule="evenodd"/><path fill="url(#as)" fill-rule="evenodd" d="m39.833 13.25.578-1.746c-.604.826-1 .628-.891.086-.456.592-.84 2.175-.84 2.175l1.153-.516Z" clip-rule="evenodd"/><path fill="url(#at)" fill-rule="evenodd" d="m44.788 14.555.377-.974-.316-.905a2.286 2.286 0 0 1-.693.205L42.67 8.723c-.146-.408-.172-.985.182-1.301l.059-.055v-.283h-1.933v2.72l1.592 4.727-.004.02.013.04c.088.252.342 1.156.06 1.372l-.069.055v.29h3.244l-.066-.34c-.358-.295-.71-.884-.957-1.414h-.003Z" clip-rule="evenodd"/><path fill="url(#au)" fill-rule="evenodd" d="m44.789 14.555.494-1.287-.174-.624-.159-.025a2.151 2.151 0 0 1-.792.26L42.672 8.72c-.146-.407-.172-.985.182-1.3l.059-.056v-.283h-1.845l.125.61 3.096 8.617h1.523l-.065-.34c-.358-.295-.71-.884-.958-1.414Z" clip-rule="evenodd"/><path fill="url(#av)" fill-rule="evenodd" d="M40.964 7.083H39.17v.29l.063.054c.35.295.311.912.178 1.3l-1.83 5.258c-.217.625-.685 1.545-1.19 1.995l-.06.056-.032.283h1.441l3.017-8.612.207-.624Z" clip-rule="evenodd"/><path fill="#FEF8C2" fill-rule="evenodd" d="M37.31 14.634c-.243.505-.57 1.034-.917 1.34l-.06.056-.032.284h1.442l.436-1.246c.166-.655.309-1.238.309-1.238s-.859 1.359-1.177.804ZM40.186 8.984c-.071.576-.36 1.36-.65 1.853-.028-.45-.498-.34-.954.268l.802-2.307c-.005.312.374.709.802.185v.001Z" clip-rule="evenodd"/><path fill="#F5E885" fill-rule="evenodd" d="M39.17 7.083c.495.16.928.205 1.587.624l.433-.013c.594-.396 1.37-.516 1.703-.61l-3.723-.002Z" clip-rule="evenodd"/><path fill="url(#aw)" fill-rule="evenodd" d="m39.373 16.31-1.241-1.11c-.298.363-1.02.691-1.798.827l-.033.283h3.072Z" clip-rule="evenodd"/><path fill="url(#ax)" fill-rule="evenodd" d="m42.568 16.31 1.349-1.065c.298.363 1.053.59 1.83.725l.065.34-3.244-.001Z" clip-rule="evenodd"/><path fill="url(#ay)" fill-rule="evenodd" d="m45.105 13.726.177-.458-.176-.625-.16-.024c-.248.129-.516.217-.792.26l-.768.848-1.367-.799H39.94l-1.294.8h6.46l-.002-.002Z" clip-rule="evenodd"/><path fill="#FEF8C2" fill-rule="evenodd" d="m43.349 13.707-1.334-.78h-.58c.465.109.796.444.222.682l1.69.098h.002Z" clip-rule="evenodd"/><path fill="url(#az)" fill-rule="evenodd" d="m45.102 13.728-.319.827-1.401-.827-.83.82-3.147-.013-.762-.807h6.46Z" clip-rule="evenodd"/><path fill="url(#aA)" fill-rule="evenodd" d="m45.103 13.728-.32.827-1.38-.816v-.012h1.7Z" clip-rule="evenodd"/><path fill="#734301" fill-rule="evenodd" d="m44.945 12.619-.16 1.936.495-1.287-.177-.625-.159-.024Z" clip-rule="evenodd"/><path fill="url(#aB)" fill-rule="evenodd" d="m49.286 16.31-1.642-1.058c-.298.363-1.042.699-1.663.76v.297h3.306Z" clip-rule="evenodd"/><path fill="url(#aC)" fill-rule="evenodd" d="m51.932 16.31 1.306-1.1c.298.362.908.664 1.687.8v.3h-2.993Z" clip-rule="evenodd"/><path fill="#F5E885" fill-rule="evenodd" d="m49.222 7.083-1.575 1.152c-.297-.362-.887-.72-1.663-.854v-.298h3.238ZM51.617 7.083l1.62 1.082c.297-.362.804-.627 1.688-.782v-.3h-3.307Z" clip-rule="evenodd"/><path fill="url(#aD)" d="M40.72 7.541a.507.507 0 0 0 .252.066.525.525 0 0 0 .248-.076c.49-.285 1.2-.4 1.69-.448-.418.133-1.121.338-1.577.654l2.119 5.872h1.22l.277-.99-.095 1.155a.119.119 0 0 1-.108.07h-1.21l.49 1.36a.118.118 0 0 1-.037.131l-1.421.974 1.21-1.106-.49-1.36h-4.553l-.488 1.397a.124.124 0 0 1-.036.051c-.203.187-1.361.747-1.873.736.45-.175 1.053-.32 1.697-.892l2.585-7.38c-.375-.235-.983-.54-1.447-.673.607 0 1.2.267 1.547.459Zm.09.375-1.995 5.69h4.387L41.15 7.915c-.076-.205-.267-.207-.34.002Z"/><path fill="url(#aE)" d="M47.677 8.066c.37-.27 1.118-.838 1.543-.983l-.858.75a.266.266 0 0 0-.05.341l4.422 7.11a.171.171 0 0 0 .128.082c.16.022.258-.167.258-.306V8.228l-1.502-1.133 1.611.924c.202-.163.858-.6 1.695-.636-.787.214-1.058.332-1.57.835v6.754a.424.424 0 0 0 .163.344c.487.397.965.494 1.408.704-.429.01-1.031-.245-1.419-.47a.525.525 0 0 0-.592.04c-.318.245-.62.48-.983.73.196-.218.439-.503.702-.756l-4.53-7.282c-.1-.16-.34-.072-.34.102v6.868c0 .03-.011.058-.031.08-.185.227-1.076.695-1.75.679.558-.174 1.08-.291 1.546-.802V8.44a.515.515 0 0 0-.149-.369c-.376-.393-1.043-.563-1.398-.68.762.04 1.35.346 1.696.675Z"/><path fill="url(#aF)" fill-rule="evenodd" d="M25.043 16.5c-2.801 0-4.676-1.973-4.676-4.747 0-3.01 2.013-4.85 4.983-4.85a7.969 7.969 0 0 1 2.3.327l.116.034.227 2.45-.278.137-.086-.134c-.499-.78-1.39-1.118-2.291-1.118-1.822 0-2.71 1.298-2.71 3.026 0 1.637.714 3.166 2.544 3.166 1.196 0 2.02-.426 2.734-1.36l.064-.084.277.258-.317 2.362-.102.036a8.538 8.538 0 0 1-2.781.495h-.003v.002Z" clip-rule="evenodd"/><path fill="#FFF0BD" fill-rule="evenodd" d="M20.51 10.405c.074-.314.18-.62.315-.914a1.339 1.339 0 0 1 .983.694c.398 1.04-.451 1.353-.436.967.014-.385-.213-1.213-.862-.747Z" clip-rule="evenodd"/><path fill="url(#aG)" fill-rule="evenodd" d="M25.039 16.5c-2.499 0-4.259-1.57-4.611-3.875.286.932.991 1.854 1.393 1.336l1.445-.06c.408.542 1.028.89 1.901.89 1.196 0 2.02-.425 2.734-1.36l.064-.083.267.317-.31 2.303-.102.036a8.538 8.538 0 0 1-2.782.495l.001.001Z" clip-rule="evenodd"/><path fill="url(#aH)" fill-rule="evenodd" d="m27.869 8.403.121 1.31-.277.139-.086-.134c-.499-.78-1.391-1.119-2.291-1.119-1.822 0-2.71 1.299-2.71 3.026 0 1.638.714 3.166 2.543 3.166 1.197 0 2.02-.425 2.735-1.36l.064-.083.277.258-.162 1.19c-.873.534-1.761.905-3.002.905-2.176 0-3.632-1.645-3.632-3.957 0-2.51 1.564-4.042 3.871-4.042.916-.015 1.721.235 2.55.7h-.002l.001.001Z" clip-rule="evenodd"/><path fill="url(#aI)" fill-rule="evenodd" d="M24.794 14.77c.125.015.25.023.377.022 1.196 0 2.019-.426 2.734-1.36l.064-.084.277.26-.16 1.188c-.874.535-1.763.906-3.003.906-1.164 0-2.122-.472-2.761-1.264a2.726 2.726 0 0 1-.064-.23s1.136.786 2.538.56h-.002v.001Z" clip-rule="evenodd"/><path fill="#F8E98B" fill-rule="evenodd" d="M25.817 14.745c.86-.133 1.51-.554 2.089-1.313l.064-.083.277.258-.161 1.188c-.874.535-1.762.906-3.002.906l-.244-.124c1.119-.171 1.447-.738.978-.832h-.001Z" clip-rule="evenodd"/><path fill="url(#aJ)" fill-rule="evenodd" d="m27.767 7.265-1.058.632c.363.298.872 1.176 1.007 1.955l.277-.138-.226-2.45Z" clip-rule="evenodd"/><path fill="url(#aK)" fill-rule="evenodd" d="M27.952 13.369a9.201 9.201 0 0 1-.796 1.914l.762.689.007-.003.317-2.362-.277-.259-.016.02h.003Z" clip-rule="evenodd"/><path fill="url(#aL)" d="M27.244 15.36c-.776.33-1.489.485-2.333.456-1.053-.037-1.936-.45-2.567-1.133-.666-.72-1.05-1.745-1.05-2.938 0-1.275.398-2.304 1.09-3.023.692-.718 1.67-1.078 2.66-1.134.692-.039 1.123.048 1.775.245.277.27.857 1.203.9 2.018-.255-.731-.513-1.308-1.06-1.847a4.705 4.705 0 0 0-1.598-.181c-.932.055-1.852.385-2.505 1.062-.652.678-1.022 1.65-1.022 2.86 0 1.132.359 2.1.986 2.779.59.638 1.418 1.024 2.41 1.058.665.022 1.58-.167 2.19-.425.301-.427.67-1.279.838-1.787-.039.465-.428 1.568-.71 1.99h-.005.001Z"/><path fill="#B97D1C" d="m27.057 15.382.864.59-.659-.733-.205.143Z"/><path fill="#FEF8C2" d="m26.674 7.821 1.091-.556-.885.7-.206-.144Z"/><path fill="#FEF8C2" fill-rule="evenodd" d="M21.016 9.128a4.204 4.204 0 0 1 1.137-1.27c-.12.253-.121.665.984.277 0 0-1.05 1.215-1.472 1.846.123-.286-.051-1.167-.65-.853Z" clip-rule="evenodd"/><path fill="url(#aM)" fill-rule="evenodd" d="M32.298 8.69h.663v-.928h-1.912v7.993h1.912v-1.052h-.663V8.689Z" clip-rule="evenodd"/><path fill="url(#aN)" fill-rule="evenodd" d="M32.3 8.69h1.509c.692 0 1.512.163 1.847.845l.079.16.294-.146-.16-1.685h-4.623l1.053.826Z" clip-rule="evenodd"/><path fill="url(#aO)" fill-rule="evenodd" d="M29.937 15.506c-.077.18-.2.336-.357.453l-.078.055v.298h6.453l.102-.805-6.12-.001Z" clip-rule="evenodd"/><path fill="url(#aP)" fill-rule="evenodd" d="m32.3 14.702-1.054.806 4.815-.013.243-1.903-.277-.14-.09.129c-.566.802-1.465 1.124-2.423 1.124l-1.214-.002v-.001Z" clip-rule="evenodd"/><path fill="url(#aQ)" fill-rule="evenodd" d="M30.045 7.083h-.543v.3l.08.055c.485.316.61 1.22.61 1.74v5.042c0 .52-.137 1.419-.612 1.742l-.078.055v.298h.034l1.24-.547c.16-.073.332-.119.508-.136l-.038-.178V7.868l-1.2-.785h-.001Z" clip-rule="evenodd"/><path fill="#F5E885" fill-rule="evenodd" d="m35.863 7.87-.089-.931-.197.044c-.384.088-.915.098-1.315.098h-4.768l1.748.782 4.622.01V7.87h-.001Z" clip-rule="evenodd"/><path fill="url(#aR)" fill-rule="evenodd" d="m35.78 6.94-.975.923c.361.297.794 1.053.93 1.832l.294-.147-.248-2.605V6.94Z" clip-rule="evenodd"/><path fill="url(#aS)" fill-rule="evenodd" d="m35.26 15.505.696.805.346-2.716-.277-.14c-.093.661-.433 1.477-.765 2.051Z" clip-rule="evenodd"/><path fill="url(#aT)" d="M31.27 7.745h3.168c.232.004.458-.072.641-.213.25-.188.435-.382.7-.592l-.894 1.007a.118.118 0 0 1-.081.032h-3.438l.02 7.412 3.174-.008a1.042 1.042 0 0 0 .943-.582c.23-.427.404-.88.521-1.35.087.37-.47 1.78-.659 2.103a.116.116 0 0 1-.102.06l-3.998.01a.114.114 0 0 1-.083-.034.132.132 0 0 1-.025-.038.124.124 0 0 1-.009-.044l-.019-7.57-1.627-.854 1.77.663-.001-.002Z"/><path fill="#FEF8C2" fill-rule="evenodd" d="M33.195 7.746c-.567.13-1.298.12-1.86.017.266-.084.187-.463-.54-.68h2.344c-.294.103-.584.44.055.663Z" clip-rule="evenodd"/><path fill="url(#aU)" fill-rule="evenodd" d="M27.19 12.09c.439-1.076 1.027-1.916 3.005-1.602l.944.851.19.042.97-.443.396.087c1.724.377 2.867.156 3.124-.116l.161.13c-.926 1.483-2.118 1.85-3.68 1.497l-.926-.904-.234-.05-.943.478c-.828-.43-2.03-.464-2.855.166l-.151-.136-.002.003v-.002Z" clip-rule="evenodd"/><path fill="#FEF8C2" fill-rule="evenodd" d="M27.19 12.09c.3-.735.669-1.36 1.503-1.582-.009.006-.463.322.735.52 0 0-1.511-.01-2.2 1.097l-.039-.035Z" clip-rule="evenodd"/><path fill="url(#aV)" fill-rule="evenodd" d="m27.186 12.09.008-.018c.525-.764 1.42-1.164 3.275-.76l2.074.455c1.634.358 2.828-.135 3.435-.73 0 0-.894 2.127-3.124 1.624l-.554-.126-.925-.904-.235-.05-.947.478-.2-.045c-.837-.189-1.896-.268-2.655.213l-.151-.136h-.002.001Z" clip-rule="evenodd"/><path fill="#FEF8C2" fill-rule="evenodd" d="M27.186 12.09c.745-1.278 2.006-1.177 3.308-.892l2.074.454c.973.213 2.667.119 3.41-.615-.67 1.016-2.395 1.078-3.46.845l-2.074-.455c-1.229-.269-2.358-.347-3.175.739l-.083-.076Z" clip-rule="evenodd"/><path fill="url(#aW)" fill-rule="evenodd" d="M32.3 12.992c-.253-.663-.734-.194-.92.903l-.005-2.264.925.904v.457Z" clip-rule="evenodd"/></g><defs><linearGradient id="b" x1="36.358" x2="31.632" y1="31.349" y2="3.236" gradientUnits="userSpaceOnUse"><stop stop-color="#734301"/><stop offset="1" stop-color="#B97D1C"/></linearGradient><linearGradient id="c" x1="29.32" x2="39.98" y1="24.2" y2="8.499" gradientUnits="userSpaceOnUse"><stop stop-color="#F6EC98"/><stop offset="1" stop-color="#F2D224"/></linearGradient><linearGradient id="d" x1="12.806" x2="14.409" y1="21.889" y2="21.826" gradientUnits="userSpaceOnUse"><stop stop-color="#F6EC98"/><stop offset="1" stop-color="#F2D224"/></linearGradient><linearGradient id="e" x1="51.876" x2="55.227" y1="3.762" y2="3.147" gradientUnits="userSpaceOnUse"><stop stop-color="#F6EC98"/><stop offset="1" stop-color="#F2D224"/></linearGradient><linearGradient id="f" x1="6.587" x2="14.371" y1="7.415" y2="6.866" gradientUnits="userSpaceOnUse"><stop stop-color="#F6EC98"/><stop offset="1" stop-color="#F2D224"/></linearGradient><linearGradient id="g" x1="32.695" x2="33.044" y1="3.937" y2="11.489" gradientUnits="userSpaceOnUse"><stop stop-color="#F6EC98"/><stop offset=".46" stop-color="#F2D42D"/><stop offset="1" stop-color="#DDAE12"/></linearGradient><linearGradient id="h" x1="37.54" x2="32.029" y1="27.75" y2="8.021" gradientUnits="userSpaceOnUse"><stop stop-color="#EDD13B"/><stop offset="1" stop-color="#DAA70A"/></linearGradient><linearGradient id="i" x1="38.66" x2="37.997" y1="31.516" y2="29.902" gradientUnits="userSpaceOnUse"><stop stop-color="#734301"/><stop offset="1" stop-color="#B97D1C"/></linearGradient><linearGradient id="j" x1="38.351" x2="38.629" y1="30.476" y2="31.623" gradientUnits="userSpaceOnUse"><stop stop-color="#F6EC98"/><stop offset=".46" stop-color="#F2D42D"/><stop offset="1" stop-color="#DDAE12"/></linearGradient><linearGradient id="k" x1="34.44" x2="32.434" y1="35.115" y2="29.128" gradientUnits="userSpaceOnUse"><stop stop-color="#734301"/><stop offset="1" stop-color="#B97D1C"/></linearGradient><linearGradient id="l" x1="33.325" x2="33.625" y1="30.044" y2="33.039" gradientUnits="userSpaceOnUse"><stop stop-color="#F6EC98"/><stop offset=".46" stop-color="#F2D42D"/><stop offset="1" stop-color="#DDAE12"/></linearGradient><linearGradient id="m" x1="33.785" x2="33.346" y1="34.541" y2="30.29" gradientUnits="userSpaceOnUse"><stop stop-color="#127FAA"/><stop offset="1" stop-color="#51E7F7"/></linearGradient><linearGradient id="n" x1="33.211" x2="34.175" y1="34.042" y2="34.042" gradientUnits="userSpaceOnUse"><stop stop-color="#3CD8EE"/><stop offset="1" stop-color="#28A7C1"/></linearGradient><linearGradient id="o" x1="33" x2="34.854" y1="30.682" y2="32.751" gradientUnits="userSpaceOnUse"><stop stop-color="#0A789D"/><stop offset="1" stop-color="#50E7F2"/></linearGradient><linearGradient id="p" x1="33.531" x2="32.665" y1="33.831" y2="32.023" gradientUnits="userSpaceOnUse"><stop stop-color="#42CBE7"/><stop offset="1" stop-color="#1172A1"/></linearGradient><linearGradient id="q" x1="30.973" x2="33.318" y1="31.353" y2="31.353" gradientUnits="userSpaceOnUse"><stop stop-color="#4FE7F7"/><stop offset="1" stop-color="#F1FBFD"/></linearGradient><linearGradient id="r" x1="33.325" x2="33.738" y1="31.075" y2="33.495" gradientUnits="userSpaceOnUse"><stop stop-color="#077DA1"/><stop offset="1" stop-color="#1FE6F6"/></linearGradient><linearGradient id="s" x1="33.661" x2="33.45" y1="33.57" y2="30.947" gradientUnits="userSpaceOnUse"><stop stop-color="#4FE7F7"/><stop offset="1" stop-color="#F1FBFD"/></linearGradient><linearGradient id="t" x1="33.56" x2="33.581" y1="29.851" y2="30.886" gradientUnits="userSpaceOnUse"><stop stop-color="#4FE7F7"/><stop offset="1" stop-color="#F1FBFD"/></linearGradient><linearGradient id="u" x1="28.784" x2="28.122" y1="31.558" y2="29.943" gradientUnits="userSpaceOnUse"><stop stop-color="#734301"/><stop offset="1" stop-color="#B97D1C"/></linearGradient><linearGradient id="v" x1="28.467" x2="28.745" y1="30.503" y2="31.65" gradientUnits="userSpaceOnUse"><stop stop-color="#F6EC98"/><stop offset=".46" stop-color="#F2D42D"/><stop offset="1" stop-color="#DDAE12"/></linearGradient><linearGradient id="w" x1="35.073" x2="30.465" y1="33.73" y2="29.853" gradientUnits="userSpaceOnUse"><stop stop-color="#734301"/><stop offset="1" stop-color="#B97D1C"/></linearGradient><linearGradient id="x" x1="33.172" x2="33.545" y1="29.841" y2="32.259" gradientUnits="userSpaceOnUse"><stop stop-color="#F6EC98"/><stop offset=".46" stop-color="#F2D42D"/><stop offset="1" stop-color="#DDAE12"/></linearGradient><linearGradient id="y" x1="32.377" x2="33.338" y1="19.004" y2="27.624" gradientUnits="userSpaceOnUse"><stop stop-color="#F6EC98"/><stop offset=".46" stop-color="#F2D42D"/><stop offset="1" stop-color="#DDAE12"/></linearGradient><linearGradient id="z" x1="28.555" x2="28.967" y1="19.534" y2="21.707" gradientUnits="userSpaceOnUse"><stop stop-color="#875309"/><stop offset="1" stop-color="#D4A624"/></linearGradient><linearGradient id="A" x1="26.883" x2="28.298" y1="20.332" y2="23.157" gradientUnits="userSpaceOnUse"><stop stop-color="#734301"/><stop offset="1" stop-color="#B97D1C"/></linearGradient><linearGradient id="B" x1="25.205" x2="28.6" y1="21.441" y2="27.629" gradientUnits="userSpaceOnUse"><stop stop-color="#734301"/><stop offset="1" stop-color="#B97D1C"/></linearGradient><linearGradient id="C" x1="28.451" x2="28.908" y1="24.384" y2="21.602" gradientUnits="userSpaceOnUse"><stop stop-color="#764602"/><stop offset=".41" stop-color="#764602"/><stop offset="1" stop-color="#98660E"/></linearGradient><linearGradient id="D" x1="25.628" x2="27.565" y1="26.672" y2="18.712" gradientUnits="userSpaceOnUse"><stop stop-color="#F6EC98"/><stop offset="1" stop-color="#F2D224"/></linearGradient><linearGradient id="E" x1="32.986" x2="35.818" y1="21.158" y2="23.939" gradientUnits="userSpaceOnUse"><stop stop-color="#734301"/><stop offset="1" stop-color="#B97D1C"/></linearGradient><linearGradient id="F" x1="35.939" x2="36.154" y1="27.508" y2="25.17" gradientUnits="userSpaceOnUse"><stop stop-color="#764602"/><stop offset="1" stop-color="#98660E"/></linearGradient><linearGradient id="G" x1="33.448" x2="35.405" y1="26.689" y2="18.74" gradientUnits="userSpaceOnUse"><stop stop-color="#F6EC98"/><stop offset="1" stop-color="#F2D224"/></linearGradient><linearGradient id="H" x1="42.902" x2="42.093" y1="20.165" y2="27.264" gradientUnits="userSpaceOnUse"><stop stop-color="#EDD13B"/><stop offset="1" stop-color="#DAA70A"/></linearGradient><linearGradient id="I" x1="39.907" x2="41.977" y1="20.898" y2="22.357" gradientUnits="userSpaceOnUse"><stop stop-color="#734301"/><stop offset="1" stop-color="#B97D1C"/></linearGradient><linearGradient id="J" x1="43.05" x2="41.8" y1="20.246" y2="27.213" gradientUnits="userSpaceOnUse"><stop stop-color="#EDD13B"/><stop offset="1" stop-color="#DAA70A"/></linearGradient><linearGradient id="K" x1="43.648" x2="43.994" y1="24.841" y2="27.634" gradientUnits="userSpaceOnUse"><stop stop-color="#EDD13B"/><stop offset="1" stop-color="#F3D634"/></linearGradient><linearGradient id="L" x1="42.684" x2="46.711" y1="25.659" y2="20.504" gradientUnits="userSpaceOnUse"><stop stop-color="#F6EC98"/><stop offset="1" stop-color="#F2D224"/></linearGradient><linearGradient id="M" x1="38.966" x2="39.891" y1="23.12" y2="23.324" gradientUnits="userSpaceOnUse"><stop stop-color="#734301"/><stop offset="1" stop-color="#B97D1C"/></linearGradient><linearGradient id="N" x1="44.276" x2="46.511" y1="22.461" y2="23.449" gradientUnits="userSpaceOnUse"><stop stop-color="#734301"/><stop offset="1" stop-color="#B97D1C"/></linearGradient><linearGradient id="O" x1="46.076" x2="46.286" y1="27.527" y2="25.246" gradientUnits="userSpaceOnUse"><stop stop-color="#764602"/><stop offset="1" stop-color="#98660E"/></linearGradient><linearGradient id="P" x1="38.029" x2="40.059" y1="26.686" y2="18.776" gradientUnits="userSpaceOnUse"><stop stop-color="#F6EC98"/><stop offset="1" stop-color="#F2D224"/></linearGradient><linearGradient id="Q" x1="38.98" x2="40.147" y1="27.038" y2="28.401" gradientUnits="userSpaceOnUse"><stop stop-color="#734301"/><stop offset="1" stop-color="#B97D1C"/></linearGradient><linearGradient id="R" x1="45.954" x2="44.724" y1="27.467" y2="28.716" gradientUnits="userSpaceOnUse"><stop stop-color="#734301"/><stop offset="1" stop-color="#B97D1C"/></linearGradient><linearGradient id="S" x1="39.985" x2="45.284" y1="19.802" y2="27.046" gradientUnits="userSpaceOnUse"><stop stop-color="#FEF8C2"/><stop offset=".59" stop-color="#F4DC50"/><stop offset="1" stop-color="#B97D1C"/></linearGradient><linearGradient id="T" x1="34.459" x2="35.613" y1="27.033" y2="28.46" gradientUnits="userSpaceOnUse"><stop stop-color="#734301"/><stop offset="1" stop-color="#B97D1C"/></linearGradient><linearGradient id="U" x1="26.658" x2="27.777" y1="27.083" y2="28.498" gradientUnits="userSpaceOnUse"><stop stop-color="#734301"/><stop offset="1" stop-color="#B97D1C"/></linearGradient><linearGradient id="V" x1="25.976" x2="31.2" y1="17.572" y2="20.456" gradientUnits="userSpaceOnUse"><stop stop-color="#F6EC98"/><stop offset=".63" stop-color="#F2D42D"/><stop offset="1" stop-color="#B97D1C"/></linearGradient><linearGradient id="W" x1="18.609" x2="20.822" y1="21.063" y2="22.782" gradientUnits="userSpaceOnUse"><stop stop-color="#734301"/><stop offset="1" stop-color="#B97D1C"/></linearGradient><linearGradient id="X" x1="20.586" x2="22.488" y1="19.494" y2="21.85" gradientUnits="userSpaceOnUse"><stop stop-color="#764602"/><stop offset="1" stop-color="#98660E"/></linearGradient><linearGradient id="Y" x1="21.415" x2="22.151" y1="25.27" y2="27.748" gradientUnits="userSpaceOnUse"><stop stop-color="#AE7417"/><stop offset="1" stop-color="#764602"/></linearGradient><linearGradient id="Z" x1="19.727" x2="22.99" y1="19.673" y2="25.991" gradientUnits="userSpaceOnUse"><stop stop-color="#F6EC98"/><stop offset=".46" stop-color="#F2D42D"/><stop offset="1" stop-color="#DDAE12"/></linearGradient><linearGradient id="aa" x1="21.839" x2="20.384" y1="27.189" y2="24.316" gradientUnits="userSpaceOnUse"><stop stop-color="#F6EC98"/><stop offset=".46" stop-color="#F2D42D"/><stop offset="1" stop-color="#DDAE12"/></linearGradient><linearGradient id="ab" x1="23.245" x2="24.456" y1="19.211" y2="20.645" gradientUnits="userSpaceOnUse"><stop stop-color="#734301"/><stop offset="1" stop-color="#B97D1C"/></linearGradient><linearGradient id="ac" x1="26.711" x2="29.977" y1="19.932" y2="27.55" gradientUnits="userSpaceOnUse"><stop stop-color="#FEF8C2"/><stop offset=".59" stop-color="#F4DC50"/><stop offset="1" stop-color="#B97D1C"/></linearGradient><linearGradient id="ad" x1="33.171" x2="37.496" y1="20.483" y2="26.261" gradientUnits="userSpaceOnUse"><stop stop-color="#FEF8C2"/><stop offset=".59" stop-color="#F4DC50"/><stop offset="1" stop-color="#B97D1C"/></linearGradient><linearGradient id="ae" x1="50.794" x2="49.985" y1="8.705" y2="15.805" gradientUnits="userSpaceOnUse"><stop stop-color="#EDD13B"/><stop offset="1" stop-color="#DAA70A"/></linearGradient><linearGradient id="af" x1="47.815" x2="49.886" y1="9.294" y2="10.752" gradientUnits="userSpaceOnUse"><stop stop-color="#734301"/><stop offset="1" stop-color="#B97D1C"/></linearGradient><linearGradient id="ag" x1="50.936" x2="49.686" y1="8.79" y2="15.757" gradientUnits="userSpaceOnUse"><stop stop-color="#EDD13B"/><stop offset="1" stop-color="#DAA70A"/></linearGradient><linearGradient id="ah" x1="51.575" x2="51.921" y1="13.359" y2="16.152" gradientUnits="userSpaceOnUse"><stop stop-color="#EDD13B"/><stop offset="1" stop-color="#F3D634"/></linearGradient><linearGradient id="ai" x1="50.489" x2="54.516" y1="14.186" y2="9.031" gradientUnits="userSpaceOnUse"><stop stop-color="#F6EC98"/><stop offset="1" stop-color="#F2D224"/></linearGradient><linearGradient id="aj" x1="46.81" x2="47.734" y1="11.502" y2="11.705" gradientUnits="userSpaceOnUse"><stop stop-color="#734301"/><stop offset="1" stop-color="#B97D1C"/></linearGradient><linearGradient id="ak" x1="52.152" x2="54.386" y1="10.845" y2="11.834" gradientUnits="userSpaceOnUse"><stop stop-color="#734301"/><stop offset="1" stop-color="#B97D1C"/></linearGradient><linearGradient id="al" x1="53.971" x2="54.181" y1="16.067" y2="13.787" gradientUnits="userSpaceOnUse"><stop stop-color="#764602"/><stop offset="1" stop-color="#98660E"/></linearGradient><linearGradient id="am" x1="45.901" x2="47.931" y1="15.235" y2="7.324" gradientUnits="userSpaceOnUse"><stop stop-color="#F6EC98"/><stop offset="1" stop-color="#F2D224"/></linearGradient><linearGradient id="an" x1="12.631" x2="17.101" y1="8.488" y2="14.842" gradientUnits="userSpaceOnUse"><stop stop-color="#F7E158"/><stop offset="1" stop-color="#98660E"/></linearGradient><linearGradient id="ao" x1="17.749" x2="15.622" y1="15.464" y2="12.654" gradientUnits="userSpaceOnUse"><stop stop-color="#B97D1C"/><stop offset=".21" stop-color="#744401"/><stop offset=".41" stop-color="#764602"/><stop offset="1" stop-color="#98660E"/></linearGradient><linearGradient id="ap" x1="17.537" x2="12.183" y1="14.436" y2="8.9" gradientUnits="userSpaceOnUse"><stop stop-color="#F7E158"/><stop offset="1" stop-color="#98660E"/></linearGradient><linearGradient id="aq" x1="12.45" x2="14.103" y1="8.859" y2="10.744" gradientUnits="userSpaceOnUse"><stop stop-color="#734301"/><stop offset="1" stop-color="#B97D1C"/></linearGradient><linearGradient id="ar" x1="36.248" x2="38.331" y1="9.66" y2="11.154" gradientUnits="userSpaceOnUse"><stop stop-color="#734301"/><stop offset="1" stop-color="#B97D1C"/></linearGradient><linearGradient id="as" x1="39.497" x2="39.559" y1="13.63" y2="12.365" gradientUnits="userSpaceOnUse"><stop stop-color="#764602"/><stop offset="1" stop-color="#98660E"/></linearGradient><linearGradient id="at" x1="44.002" x2="42.551" y1="8.822" y2="15.708" gradientUnits="userSpaceOnUse"><stop stop-color="#EDD13B"/><stop offset="1" stop-color="#DAA70A"/></linearGradient><linearGradient id="au" x1="40.743" x2="42.697" y1="9.956" y2="11.145" gradientUnits="userSpaceOnUse"><stop stop-color="#734301"/><stop offset="1" stop-color="#B97D1C"/></linearGradient><linearGradient id="av" x1="36.396" x2="40.751" y1="15.702" y2="7.24" gradientUnits="userSpaceOnUse"><stop stop-color="#F6EC98"/><stop offset="1" stop-color="#F2D224"/></linearGradient><linearGradient id="aw" x1="38.152" x2="37.835" y1="15.211" y2="16.227" gradientUnits="userSpaceOnUse"><stop stop-color="#734301"/><stop offset="1" stop-color="#B97D1C"/></linearGradient><linearGradient id="ax" x1="43.352" x2="45.046" y1="15.695" y2="16.631" gradientUnits="userSpaceOnUse"><stop stop-color="#734301"/><stop offset="1" stop-color="#B97D1C"/></linearGradient><linearGradient id="ay" x1="40.255" x2="44.772" y1="14.097" y2="12.564" gradientUnits="userSpaceOnUse"><stop stop-color="#F6EC98"/><stop offset="1" stop-color="#F2D224"/></linearGradient><linearGradient id="az" x1="41.759" x2="41.9" y1="14.489" y2="13.544" gradientUnits="userSpaceOnUse"><stop stop-color="#734301"/><stop offset="1" stop-color="#B97D1C"/></linearGradient><linearGradient id="aA" x1="44.239" x2="44.247" y1="14.481" y2="14.017" gradientUnits="userSpaceOnUse"><stop stop-color="#764602"/><stop offset="1" stop-color="#98660E"/></linearGradient><linearGradient id="aB" x1="46.911" x2="48.078" y1="15.465" y2="16.829" gradientUnits="userSpaceOnUse"><stop stop-color="#734301"/><stop offset="1" stop-color="#B97D1C"/></linearGradient><linearGradient id="aC" x1="53.75" x2="52.521" y1="15.983" y2="17.232" gradientUnits="userSpaceOnUse"><stop stop-color="#734301"/><stop offset="1" stop-color="#B97D1C"/></linearGradient><linearGradient id="aD" x1="37.546" x2="42.893" y1="8.817" y2="15.864" gradientUnits="userSpaceOnUse"><stop stop-color="#FEF8C2"/><stop offset=".59" stop-color="#F4DC50"/><stop offset="1" stop-color="#B97D1C"/></linearGradient><linearGradient id="aE" x1="47.924" x2="53.222" y1="8.241" y2="15.484" gradientUnits="userSpaceOnUse"><stop stop-color="#FEF8C2"/><stop offset=".59" stop-color="#F4DC50"/><stop offset="1" stop-color="#B97D1C"/></linearGradient><linearGradient id="aF" x1="23.195" x2="26.237" y1="7.902" y2="15.408" gradientUnits="userSpaceOnUse"><stop stop-color="#F6EC98"/><stop offset=".46" stop-color="#F2D42D"/><stop offset="1" stop-color="#DDAE12"/></linearGradient><linearGradient id="aG" x1="23.357" x2="26.003" y1="12.614" y2="15.618" gradientUnits="userSpaceOnUse"><stop stop-color="#C39E30"/><stop offset="1" stop-color="#92600C"/></linearGradient><linearGradient id="aH" x1="22.622" x2="24.529" y1="8.947" y2="10.864" gradientUnits="userSpaceOnUse"><stop stop-color="#734301"/><stop offset="1" stop-color="#B97D1C"/></linearGradient><linearGradient id="aI" x1="22.85" x2="27.223" y1="12.821" y2="15.153" gradientUnits="userSpaceOnUse"><stop stop-color="#B97D1C"/><stop offset="1" stop-color="#EAD04E"/></linearGradient><linearGradient id="aJ" x1="27.042" x2="28.348" y1="7.76" y2="9.25" gradientUnits="userSpaceOnUse"><stop stop-color="#734301"/><stop offset="1" stop-color="#B97D1C"/></linearGradient><linearGradient id="aK" x1="26.967" x2="27.858" y1="15.235" y2="14.71" gradientUnits="userSpaceOnUse"><stop stop-color="#734301"/><stop offset="1" stop-color="#B97D1C"/></linearGradient><linearGradient id="aL" x1="22.554" x2="27.471" y1="8.942" y2="14.552" gradientUnits="userSpaceOnUse"><stop stop-color="#FEF8C2"/><stop offset=".59" stop-color="#F4DC50"/><stop offset="1" stop-color="#B97D1C"/></linearGradient><linearGradient id="aM" x1="30.518" x2="31.517" y1="11.337" y2="11.62" gradientUnits="userSpaceOnUse"><stop stop-color="#734301"/><stop offset="1" stop-color="#B97D1C"/></linearGradient><linearGradient id="aN" x1="33.495" x2="33.751" y1="7.67" y2="8.461" gradientUnits="userSpaceOnUse"><stop stop-color="#734301"/><stop offset="1" stop-color="#B97D1C"/></linearGradient><linearGradient id="aO" x1="32.468" x2="33.441" y1="15.369" y2="17.052" gradientUnits="userSpaceOnUse"><stop stop-color="#734301"/><stop offset="1" stop-color="#B97D1C"/></linearGradient><linearGradient id="aP" x1="32.314" x2="36.08" y1="14.994" y2="14.469" gradientUnits="userSpaceOnUse"><stop stop-color="#F6EC98"/><stop offset="1" stop-color="#F2D224"/></linearGradient><linearGradient id="aQ" x1="31.519" x2="28.42" y1="9.387" y2="14.806" gradientUnits="userSpaceOnUse"><stop stop-color="#EDD13B"/><stop offset="1" stop-color="#DAA70A"/></linearGradient><linearGradient id="aR" x1="34.562" x2="35.634" y1="7.86" y2="8.271" gradientUnits="userSpaceOnUse"><stop stop-color="#734301"/><stop offset="1" stop-color="#B97D1C"/></linearGradient><linearGradient id="aS" x1="34.935" x2="35.842" y1="15.43" y2="14.96" gradientUnits="userSpaceOnUse"><stop stop-color="#734301"/><stop offset="1" stop-color="#B97D1C"/></linearGradient><linearGradient id="aT" x1="30.705" x2="35.923" y1="8.317" y2="13.857" gradientUnits="userSpaceOnUse"><stop stop-color="#FEF8C2"/><stop offset=".59" stop-color="#F4DC50"/><stop offset="1" stop-color="#B97D1C"/></linearGradient><linearGradient id="aU" x1="31.461" x2="31.91" y1="12.018" y2="10.377" gradientUnits="userSpaceOnUse"><stop stop-color="#F6EC98"/><stop offset="1" stop-color="#F2D224"/></linearGradient><linearGradient id="aV" x1="31.599" x2="31.395" y1="11.427" y2="13.08" gradientUnits="userSpaceOnUse"><stop stop-color="#734301"/><stop offset="1" stop-color="#B97D1C"/></linearGradient><linearGradient id="aW" x1="31.676" x2="31.886" y1="11.574" y2="13.665" gradientUnits="userSpaceOnUse"><stop stop-color="#764602"/><stop offset="1" stop-color="#98660E"/></linearGradient></defs></svg>