<svg xmlns="http://www.w3.org/2000/svg" width="4" height="47" fill="none"><g fill-rule="evenodd" clip-rule="evenodd" filter="url(#a)"><path fill="url(#b)" d="M0 10V4l4-4v3L2 5v1l2-2v3L2 9v1l2-2v4l-1 1v7l1 1v14.4l-2-2v-12l-2-2V10Z"/><path fill="url(#c)" d="M0 10V4l4-4v3L2 5v1l2-2v3L2 9v1l2-2v4l-1 1v7l1 1v14.4l-2-2v-12l-2-2V10Z"/></g><defs><linearGradient id="b" x1="2" x2="2" y1="0" y2="17.7" gradientUnits="userSpaceOnUse"><stop stop-color="#FFEF5C"/><stop offset="1" stop-color="#F2B84B"/></linearGradient><linearGradient id="c" x1="2" x2="2" y1="15.488" y2="42.332" gradientUnits="userSpaceOnUse"><stop stop-color="#A16519" stop-opacity="0"/><stop offset="1" stop-color="#78440A"/></linearGradient><filter id="a" width="4" height="35.9" x="0" y="0" color-interpolation-filters="sRGB" filterUnits="userSpaceOnUse"><feFlood flood-opacity="0" result="BackgroundImageFix"/><feColorMatrix in="SourceAlpha" result="hardAlpha" values="0 0 0 0 0 0 0 0 0 0 0 0 0 0 0 0 0 0 127 0"/><feOffset dy=".5"/><feComposite in2="hardAlpha" operator="out"/><feColorMatrix values="0 0 0 0 0.584679 0 0 0 0 0.313583 0 0 0 0 0.0633402 0 0 0 1 0"/><feBlend in2="BackgroundImageFix" result="effect1_dropShadow_64903_12913"/><feBlend in="SourceGraphic" in2="effect1_dropShadow_64903_12913" result="shape"/><feColorMatrix in="SourceAlpha" result="hardAlpha" values="0 0 0 0 0 0 0 0 0 0 0 0 0 0 0 0 0 0 127 0"/><feOffset dy=".5"/><feComposite in2="hardAlpha" k2="-1" k3="1" operator="arithmetic"/><feColorMatrix values="0 0 0 0 1 0 0 0 0 0.969231 0 0 0 0 0.688889 0 0 0 1 0"/><feBlend in2="shape" mode="soft-light" result="effect2_innerShadow_64903_12913"/><feColorMatrix in="SourceAlpha" result="hardAlpha" values="0 0 0 0 0 0 0 0 0 0 0 0 0 0 0 0 0 0 127 0"/><feOffset dx=".6"/><feComposite in2="hardAlpha" k2="-1" k3="1" operator="arithmetic"/><feColorMatrix values="0 0 0 0 1 0 0 0 0 0.956863 0 0 0 0 0.376471 0 0 0 1 0"/><feBlend in2="effect2_innerShadow_64903_12913" result="effect3_innerShadow_64903_12913"/></filter></defs></svg>
