<svg width="108" height="36" viewBox="0 0 108 36" fill="none" xmlns="http://www.w3.org/2000/svg">
<path d="M67 26.9515C67 29.1873 65.1873 31 62.9515 31H45.0161C42.798 31 41 29.202 41 26.9844V8.87146C41 6.73324 42.7332 5 44.8715 5H63.1285C65.2668 5 67 6.73324 67 8.87097V26.9515Z" fill="#EBAB1F"/>
<path d="M43.4524 15.1196V21.727L42.2733 21.9918V15.3844L43.4524 15.1196ZM46.5742 15.9718C45.8466 16.1351 45.3999 16.9544 45.3999 16.9544V16.3386L44.2556 16.5881V20.5302C44.3953 20.4767 44.5468 20.4459 44.7052 20.4459C44.9601 20.4459 45.197 20.5223 45.395 20.6528V18.7283C45.4039 17.8065 45.6681 17.2682 46.2202 17.1441C46.7051 17.0353 46.887 17.3966 46.8792 17.9546V20.9646L48.0025 20.7111L48.0103 17.7104C48.0201 16.241 47.4274 15.7801 46.5742 15.9718ZM48.2746 15.6855L48.9184 15.5408V14.6161L50.0569 14.3626V15.2854L50.8674 15.103L50.8561 16.1022L50.0446 16.2846L50.0387 18.7867C50.0441 19.0921 50.0976 19.2814 50.4403 19.2044C50.5742 19.1745 50.681 19.1407 50.8031 19.0941L50.8061 20.0325C50.5217 20.1674 50.3501 20.2218 50.1162 20.2742C49.4651 20.4248 48.9032 20.0011 48.9032 19.1358L48.9071 16.5401L48.2628 16.6847L48.2746 15.6855ZM52.2392 17.5776C52.2397 17.683 52.2368 17.7693 52.2539 17.8708C52.3393 18.3777 52.5883 18.7715 53.1007 18.6567C53.5714 18.5513 53.7278 18.2385 53.818 17.8933L55.0109 17.6256C54.8864 18.39 54.4731 19.3534 53.1708 19.6452C52.0029 19.907 51.2969 19.2328 51.1032 18.0806C50.8909 16.8176 51.2199 14.9358 52.9507 14.5475C54.2279 14.2611 54.8256 15.0167 54.9899 15.9939C55.0551 16.3812 55.0511 16.669 55.0286 16.9514L52.2392 17.5776ZM53.8965 16.3356C53.8994 16.2488 53.8872 16.1753 53.8778 16.1199C53.8082 15.7051 53.5797 15.3829 53.0757 15.4962C52.5545 15.6129 52.2976 16.0532 52.25 16.7048L53.8965 16.3356ZM57.8459 14.8833C57.0531 15.0711 56.6706 15.6237 56.6662 16.7073L56.6559 18.7666L55.5184 19.022V14.0581L56.6162 13.812C56.6304 13.9336 56.6564 14.3013 56.6545 14.7044C56.8393 14.0689 57.0928 13.7424 57.8454 13.5737V14.8833H57.8459ZM61.8865 17.556L61.8801 17.5575L60.7382 17.8154C60.6598 17.6727 60.5808 17.4462 60.5465 17.2868C60.3847 17.6295 60.1631 18.0242 59.36 18.2047C58.5068 18.3964 58.0219 17.8154 57.916 17.2544C57.6655 15.9311 58.6152 15.2883 59.587 15.0407C59.9366 14.9515 60.2308 14.899 60.5627 14.8152L60.546 14.5176C60.5387 14.1552 60.4548 13.7139 59.8444 13.8512C59.3006 13.9733 59.2722 14.3175 59.2237 14.5681L58.0611 14.8289C58.0759 14.0302 58.4245 13.2594 59.7708 12.9569C60.8245 12.7201 61.7007 13.0329 61.6928 14.3283V16.6827C61.6928 16.6827 61.7208 17.0799 61.7659 17.2711C61.8115 17.4653 61.8865 17.556 61.8865 17.556ZM60.545 15.6198C60.2607 15.6835 60.0214 15.7566 59.8012 15.835C59.1864 16.088 58.979 16.3743 59.0555 16.7784C59.1075 17.0539 59.3065 17.2299 59.6747 17.1471C60.4607 16.9706 60.5293 16.2268 60.5426 15.6972L60.545 15.6198ZM65.9899 14.9878C65.9262 15.9409 65.4814 16.8171 64.2017 17.1044C63.1059 17.3505 62.395 16.7725 62.1792 15.6325C61.9184 14.2538 62.3126 12.3734 63.9184 12.0131C65.3236 11.6973 65.8815 12.7127 65.9379 13.3325L64.8338 13.5806C64.7558 13.2148 64.5759 12.8623 64.0654 12.977C63.2623 13.1574 63.1951 14.5524 63.3393 15.3153C63.4643 15.9772 63.7629 16.2165 64.1723 16.1248C64.5489 16.0404 64.7646 15.7521 64.8514 15.2442L65.9899 14.9878ZM47.3097 23.4259L45.6995 22.3301C45.6995 22.3301 45.699 24.9013 45.699 25.0194C45.699 25.1018 45.6319 25.169 45.55 25.169C45.4676 25.169 45.4014 25.1018 45.4014 25.0194C45.4014 24.9905 45.398 22.0791 45.398 21.7236C45.398 21.3426 45.0886 21.0323 44.7076 21.0323C44.3252 21.0323 44.0163 21.3426 44.0163 21.7236L44.0173 27.4656C44.0173 28.4962 44.8562 29.3366 45.8873 29.3366H46.0109C47.0278 29.3366 47.8441 28.5124 47.8441 27.495C47.8441 27.495 47.8451 24.4953 47.8451 24.4649C47.8451 24.0663 47.625 23.6677 47.3097 23.4259ZM42.6376 22.5699C42.3527 22.6385 42.1767 22.9248 42.2453 23.2097C42.314 23.4946 42.6003 23.6706 42.8852 23.602L43.6898 23.4088V22.3169L42.6376 22.5699ZM42.6376 23.9766C42.3527 24.0452 42.1767 24.3315 42.2453 24.6164C42.314 24.9013 42.6003 25.0773 42.8852 25.0086L43.6898 24.8155V23.7236L42.6376 23.9766ZM42.2453 26.0236C42.3135 26.3085 42.6003 26.4845 42.8852 26.4158L43.6898 26.2226V25.1307L42.6376 25.3832C42.3527 25.4519 42.1772 25.7387 42.2453 26.0236Z" fill="black"/>
</svg>
