<svg xmlns="http://www.w3.org/2000/svg" width="636" height="141" fill="none"><path fill="#0C2E4B" fill-rule="evenodd" d="M45.98 36.432h543.789l35.804 46.081-35.804 46.369H45.979L10.176 82.513l35.803-46.081Z" clip-rule="evenodd"/><path fill="url(#a)" fill-rule="evenodd" d="M17.534 82.599 1.628 84.777 0 82.595l43.95-57.65h27.847l4.294 4.344H559.91l4.298-4.345h27.847L636 82.595l-1.616 2.167-15.918-2.16-31.621-41.465H49.155L17.534 82.599Z" clip-rule="evenodd"/><path fill="url(#b)" fill-rule="evenodd" d="M559.897 135.955H76.103l-4.294 4.345H43.935L0 82.595l17.534.004 31.633 41.454 537.658.023 31.634-41.477L636 82.595 592.065 140.3h-27.874l-4.294-4.345Z" clip-rule="evenodd"/><path fill="url(#c)" fill-rule="evenodd" d="m565.112 138.102-4.294-4.344H75.182l-4.294 4.344H45.022L2.719 82.61h12.088l33.269 43.644H587.92l33.281-43.644h12.076l-42.303 55.492h-25.862Z" clip-rule="evenodd"/><path fill="url(#d)" fill-rule="evenodd" d="m49.156 124.08 537.67-.004 31.633-41.477 2.744.011-33.28 43.644-540.31 1.182 1.543-3.356Z" clip-rule="evenodd"/><path fill="url(#e)" fill-rule="evenodd" d="m586.824 124.076 31.634-41.477 2.744.011-33.281 43.644-1.097-2.178Z" clip-rule="evenodd"/><path fill="#F4DF5D" fill-rule="evenodd" d="m560.821 31.463 30.157-4.348 1.031-2.17h-27.801l-4.298 4.344.911 2.174Z" clip-rule="evenodd"/><path fill="#F6E98D" fill-rule="evenodd" d="m560.821 31.463 4.294-4.348-.907-2.17-4.298 4.344.911 2.174Z" clip-rule="evenodd"/><path fill="url(#f)" fill-rule="evenodd" d="m71.797 24.944-.907 2.17-7.96 5.221-18.751 2.271L5.957 82.63 0 82.595l1.647-2.159L43.95 24.944h27.847Z" clip-rule="evenodd"/><path fill="url(#g)" fill-rule="evenodd" d="m565.112 27.114-4.294 4.349H75.182l-4.294-4.349H45.022L2.719 82.61l12.018.07 33.339-43.718H587.92l33.281 43.648h12.076l-42.303-55.496h-25.862Z" clip-rule="evenodd"/><path fill="#B97D1C" fill-rule="evenodd" d="M589.904 138.103h1.074l8.565-11.24-7.534-5.98-4.066 5.372h-15.162l17.142 11.848h-.019Zm14.34-17.383 5.252-7.034-7.465-5.922-5.321 6.976 7.511 5.98h.023Z" clip-rule="evenodd"/><path fill="#FEF8C2" fill-rule="evenodd" d="M115.597 31.463h-14.119l9.457 7.503h14.123l-9.461-7.503Zm-26.552 0H75.189l-4.298-4.333H57.559l14.937 11.852H98.5l-9.456-7.504v-.015Z" clip-rule="evenodd"/><path fill="#06223B" fill-rule="evenodd" d="M562.097 79.839V66.855c0-2.209-.524-8.212-2.585-9.557l-1.969-1.287v-6.875h29.315v6.875l-1.968 1.287c-2.202 1.438-2.849 7.181-2.849 9.557v35.226c0 2.376.647 8.12 2.849 9.558l1.968 1.283v6.879h-26.106l-1.101-2.713a54.802 54.802 0 0 0-4.139-7.833l-12.581-20.401v13.22c0 2.209.528 8.212 2.582 9.557l1.972 1.287v6.875h-29.308v-6.817l1.907-1.295c2.221-1.511 2.915-7.15 2.915-9.6V66.425c0-2.391-.744-7.69-2.907-9.15l-1.915-1.291v-6.848h28.545l.387 3.914c.21 2.077 2.008 4.988 3.07 6.767l11.922 20.022h-.004Zm-152.14 19.665c0-3.914-5.915-5.748-8.829-6.95-11.24-4.65-19.119-9.874-19.119-23.28a19.798 19.798 0 0 1 7.031-15.069c5.177-4.472 12.014-6.201 18.742-6.201 5.104.02 10.184.696 15.116 2.011l3.003.776 1.779 22.401h-7.247l-1.287-1.969c-2.593-3.972-5.814-5.34-10.464-5.34-1.822 0-5.923-.09-5.923 2.519 0 2.794 6.093 4.775 8.139 5.62 11.868 4.925 20.096 10.51 20.096 24.61 0 14.949-12.449 22.367-26.08 22.537-6.445.078-14.727-.829-20.324-4.186l-1.868-1.12-2.042-20.153 6.069-3.012 2.178 2.826c3.988 5.174 8.286 7.832 14.933 7.67 2.713-.066 6.12-.287 6.12-3.682l-.023-.008Zm46.636-.112v3.058c0 2.364.659 7.77 2.848 9.2l1.973 1.287v6.876H430.85v-6.837l1.9-1.295c2.224-1.511 2.918-7.15 2.918-9.6V66.499c0-2.364-.659-7.771-2.849-9.201l-1.969-1.287v-6.875h28.715c15.449 0 26.851 8.22 26.851 24.502 0 16.983-10.278 25.742-26.851 25.742l-2.972.012Zm29.067 20.421v-6.837l1.903-1.295c2.225-1.511 2.919-7.15 2.919-9.6V66.859c0-2.403-.62-8.1-2.849-9.557l-1.973-1.283v-6.88h30.657v6.826l-1.903 1.294c-2.225 1.508-2.918 7.15-2.918 9.6v35.222c0 2.403.616 8.101 2.852 9.558l1.969 1.283v6.879l-30.657.012Zm-29.067-53.151v15.192h.996c5.53.093 7.453-2.162 7.453-7.6 0-5.72-1.791-7.608-7.527-7.608l-.922.016Z" clip-rule="evenodd"/><path fill="url(#h)" fill-rule="evenodd" d="M404.347 116.224c-5.779.074-13.635-.717-18.689-3.744l-.534-.318-1.667-16.456 1.86-.922.624.806c4.651 6.011 9.845 9.065 17.468 8.879 4.651-.112 9.143-1.415 9.143-6.782 0-5.814-6.275-7.977-10.747-9.821-9.856-4.066-17.197-8.294-17.197-20.41a16.723 16.723 0 0 1 5.953-12.724c4.601-3.968 10.755-5.46 16.716-5.46 4.842.014 9.663.656 14.34 1.91l.857.221 1.337 16.848h-2.194l-.368-.562c-3.198-4.9-7.403-6.752-13.073-6.752-3.895 0-9.022.682-9.022 5.628 0 4.945 6.317 6.941 10.034 8.484 10.503 4.36 18.181 8.94 18.181 21.746 0 13.077-10.972 19.282-23.014 19.429h-.008Zm48.636-21.754v6.158c0 3.577.942 9.635 4.263 11.802l.562.364v2.093h-24.355v-2.078l.543-.368c3.321-2.255 4.263-8.526 4.263-12.169v-35.58c0-3.58-.938-9.634-4.263-11.8l-.562-.369V50.43h25.614c13.775 0 23.743 6.903 23.743 21.394 0 15.263-8.914 22.646-23.743 22.646h-6.065Zm35.269 20.417v-2.078l.546-.368c3.318-2.259 4.263-8.526 4.263-12.169V65.053c0-3.627-.872-9.949-4.263-12.158l-.562-.368v-2.093h24.448v2.078l-.546.387c-3.318 2.252-4.264 8.527-4.264 12.17v35.218c0 3.624.872 9.949 4.264 12.158l.562.364v2.093l-24.448-.015Zm76.839-23.32c-.294-3.465-.387-6.941-.387-10.464V65.046c0-3.489-.718-10.02-3.996-12.155l-.562-.368V50.43h23.11v2.093l-.562.368c-3.356 2.19-4.263 8.558-4.263 12.155v35.226c0 3.596.903 9.964 4.263 12.158l.562.364v2.093h-20.928l-.318-.775a58.72 58.72 0 0 0-4.368-8.29l-12.588-20.418a86.575 86.575 0 0 1-6.201-11.902c.321 3.814.449 7.62.449 11.627v15.158c0 3.469.717 10.019 3.992 12.158l.562.364v2.093h-23.107v-2.077l.547-.368c3.317-2.256 4.263-8.527 4.263-12.17V64.631c0-3.643-1.07-9.558-4.263-11.72l-.547-.368V50.46h22.63l.113 1.12c.271 2.713 2.135 5.771 3.488 8.046l12.856 21.584a93.763 93.763 0 0 1 5.247 10.387l.008-.031ZM452.967 61.743v21.348l4.047.066c7.309.124 10.615-3.523 10.615-10.709 0-7.46-3.155-10.705-10.635-10.705h-4.027Z" clip-rule="evenodd"/><path fill="#FFF0BD" fill-rule="evenodd" d="M473.891 77.793c-.565 5.635-6.301 9.302-12.014 9.534 1.81-1.43 1.209-3.57-1.26-4.468a9.237 9.237 0 0 0 3.287-1.326 5.307 5.307 0 0 0 2.131-2.182c.229-.363.432-.743.605-1.136.488 2.655 4.116 2.868 7.267-.422h-.016Z" clip-rule="evenodd"/><path fill="url(#i)" fill-rule="evenodd" d="M438.261 64.2c-.058-2.611-.597-6.27-2.085-8.882a14.076 14.076 0 0 1 1.938-4.887h20.959a31.418 31.418 0 0 1 11.062 1.829c.275.387 3.371 7.131 2.999 11.146.675 1.237.725 8.43-5.864 12.848.272-1.25.402-2.526.388-3.806 0-7.46-3.155-10.704-10.635-10.704h-4.027v15.281c-6.244-2.933-11.731-9.041-14.727-12.824h-.008Z" clip-rule="evenodd"/><path fill="url(#j)" fill-rule="evenodd" d="M445.715 89.063V56.07l7.267 5.674v21.34l-7.267 5.561.977.42h-.977Z" clip-rule="evenodd"/><path fill="url(#k)" fill-rule="evenodd" d="M452.982 100.629c0 3.577.941 9.634 4.263 11.801l.562.364v2.093h-12.104V89.064h.977l6.29 2.682.012 8.883Z" clip-rule="evenodd"/><path fill="url(#l)" fill-rule="evenodd" d="M445.704 88.645h9.015c14.852 0 20.599-5.12 20.599-16.418 0-10.72-6.821-16.169-20.599-16.169h-9.081l-12.2-5.64h25.614c13.774 0 23.742 6.904 23.742 21.395 0 15.262-8.914 22.645-23.742 22.645h-6.081l-7.267-5.813Z" clip-rule="evenodd"/><path fill="#B97D1C" fill-rule="evenodd" d="M466.823 93.676c1.767-2.5-.155-3.93-7.573-4.376 6.465-2.496 12.642-4.65 15.995-11.608-.671 6.771-.341 11.05 4.038 7.891-2.713 4.174-6.976 6.856-12.46 8.093Z" clip-rule="evenodd"/><path fill="url(#m)" fill-rule="evenodd" d="M445.704 50.43v64.457h-12.267v-2.077l.543-.368c3.321-2.256 4.263-8.527 4.263-12.17V64.693c0-3.58-.938-9.635-4.263-11.801l-.562-.369v-2.092h12.286Z" clip-rule="evenodd"/><path fill="url(#n)" fill-rule="evenodd" d="M488.265 114.887v-2.077l.547-.368c3.318-2.26 4.263-8.527 4.263-12.17V65.054c0-3.628-.872-9.95-4.263-12.158l-.562-.369v-2.092h24.448v2.077l-.547.388c-3.317 2.251-4.263 8.526-4.263 12.17v35.218c0 3.623.872 9.948 4.263 12.158l.562.364v2.093l-24.448-.016Z" clip-rule="evenodd"/><path fill="url(#o)" fill-rule="evenodd" d="M507.897 100.674c.062 3.655 1.019 9.643 4.263 11.755l.566.365v2.093h-3.527a79.362 79.362 0 0 1-8.139-2.481s-.678-17.018.143-26.89c.442 7.752 2.775 14.891 6.694 15.158Z" clip-rule="evenodd"/><path fill="url(#p)" fill-rule="evenodd" d="M488.265 114.887v-2.077l.547-.368c3.318-2.26 4.263-8.527 4.263-12.17V65.054c0-3.628-.872-9.95-4.263-12.158l-.562-.369v-2.092h12.115v64.452h-12.1Z" clip-rule="evenodd"/><path fill="url(#q)" fill-rule="evenodd" d="M565.107 91.567c-.294-3.465-.387-6.941-.387-10.464V65.046c0-3.465-.717-10.019-3.996-12.154l-.562-.369v-2.092h23.111v2.093l-.562.368c-3.357 2.19-4.264 8.557-4.264 12.154v35.226c0 3.597.903 9.964 4.264 12.158l.562.364v2.093h-20.929l-.318-.775a58.725 58.725 0 0 0-4.368-8.29L545.07 85.405a86.576 86.576 0 0 1-6.201-11.902c.322 3.813.45 7.62.45 11.627v15.157c0 3.469.717 10.019 3.991 12.159l.562.364v2.093h-23.106v-2.078l.546-.368c3.318-2.256 4.263-8.526 4.263-12.17V64.631c0-3.643-1.069-9.557-4.263-11.72l-.546-.368v-2.081H543.4l.112 1.12c.267 2.713 2.132 5.77 3.488 8.046l12.856 21.583a93.581 93.581 0 0 1 5.247 10.387l.004-.03Z" clip-rule="evenodd"/><path fill="url(#r)" fill-rule="evenodd" d="m565.076 91.567 6.383 15.681-.023 7.643-36.319-58.399-1.988-6.061h10.274l.113 1.12c.267 2.713 2.131 5.77 3.488 8.046L559.86 81.18a94.124 94.124 0 0 1 5.216 10.387Z" clip-rule="evenodd"/><path fill="url(#s)" fill-rule="evenodd" d="M571.578 114.887h-9.24a60.909 60.909 0 0 0-4.69-9.061L545.06 85.409a93.572 93.572 0 0 1-6.201-11.825l-6.976-23.153 3.228 6.061 36.463 58.395h.004Z" clip-rule="evenodd"/><path fill="url(#t)" fill-rule="evenodd" d="M567.083 114.887h-4.744c-1.407-3.442-7.046-12.879-8.987-16.03 8.41 7.647 6.666.822 3.573-4.934l-3.232-6.01 15.227 22.718a57.193 57.193 0 0 1-1.837 4.264v-.008Z" clip-rule="evenodd"/><path fill="url(#u)" fill-rule="evenodd" d="M565.106 91.567c-.295-3.465-.388-6.941-.388-10.464V65.046c0-3.465-.717-10.019-3.996-12.154l-.562-.369v-2.092h11.968l-.531 64.456-.112-7.639-6.36-15.68h-.019Z" clip-rule="evenodd"/><path fill="url(#v)" fill-rule="evenodd" d="M538.871 73.507c.321 3.813.449 7.62.449 11.627v15.158c0 3.468.717 10.018 3.992 12.158l.562.364v2.093h-11.987l.511-64.457h1.376l5.097 23.057Z" clip-rule="evenodd"/><path fill="url(#w)" fill-rule="evenodd" d="M571.465 50.43h11.786v2.093l-.562.369c-3.357 2.19-4.263 8.557-4.263 12.154v35.226c0 3.597.903 9.964 4.263 12.158l.562.364v2.093h-11.786V50.431Z" clip-rule="evenodd"/><path fill="url(#x)" fill-rule="evenodd" d="M578.434 100.675c.066 3.655 1.02 9.643 4.264 11.755l.562.364v2.093h-3.527a79.606 79.606 0 0 1-8.139-2.48s-.132-16.278.69-26.169c.003 0 .383 16.018 6.15 14.437Z" clip-rule="evenodd"/><path fill="url(#y)" fill-rule="evenodd" d="m532.4 114.5-11.627.387v-2.077l.547-.368c3.318-2.256 4.263-8.527 4.263-12.17V64.616c0-3.643-1.07-9.558-4.263-11.72l-.547-.368v-2.082H532.4V114.5Z" clip-rule="evenodd"/><path fill="#FEF8C2" fill-rule="evenodd" d="M531.578 63.914v22.324c-1.275-6.561-3.329-12.383-5.988-8.713V64.817c.67 2.07 3.6 4.17 5.988-.903Z" clip-rule="evenodd"/><path fill="url(#z)" fill-rule="evenodd" d="m543.876 114.887-11.476-7.364c-2.081 2.531-7.274 4.872-11.627 5.302v2.078l23.103-.016Z" clip-rule="evenodd"/><path fill="url(#A)" fill-rule="evenodd" d="m562.336 114.887 9.131-7.686c2.077 2.531 6.344 4.651 11.786 5.593v2.093h-20.929.012Z" clip-rule="evenodd"/><path fill="#F5E885" fill-rule="evenodd" d="M543.404 50.43 532.4 58.478c-2.081-2.531-6.201-5.039-11.627-5.965V50.43h22.631ZM560.141 50.43l11.324 7.558c2.078-2.53 5.608-4.39 11.786-5.465v-2.092h-23.11Z" clip-rule="evenodd"/><path fill="url(#B)" d="M532.625 57.298c2.585-1.891 7.81-5.852 10.778-6.867l-5.995 5.232a1.845 1.845 0 0 0-.357 2.387l30.905 49.694a1.19 1.19 0 0 0 .887.574c1.12.151 1.803-1.163 1.803-2.139V58.426l-10.496-7.918 11.24 6.457c1.403-1.14 5.991-4.193 11.844-4.442-5.504 1.497-7.399 2.326-10.968 5.814v47.206a3.005 3.005 0 0 0 1.139 2.403c3.399 2.779 6.736 3.453 9.829 4.926-2.992.066-7.205-1.717-9.91-3.283a3.666 3.666 0 0 0-4.136.271c-2.228 1.717-4.333 3.357-6.867 5.101 1.364-1.519 3.061-3.508 4.898-5.271l-31.648-50.88c-.694-1.112-2.376-.496-2.376.713v47.985a.836.836 0 0 1-.217.554c-1.295 1.597-7.511 4.864-12.236 4.748 3.911-1.213 7.562-2.035 10.809-5.597V59.907a3.595 3.595 0 0 0-1.03-2.574c-2.624-2.748-7.291-3.934-9.771-4.747 5.325.267 9.433 2.406 11.848 4.712h.027Z"/><path fill="url(#C)" fill-rule="evenodd" d="m512.713 114.887-12.332-7.364c-2.077 2.531-7.751 4.872-12.115 5.302v2.078l24.447-.016Z" clip-rule="evenodd"/><path fill="url(#D)" fill-rule="evenodd" d="m457.804 114.887-11.491-7.194c-2.082 2.535-8.527 4.686-12.864 5.116v2.078h24.355Z" clip-rule="evenodd"/><path fill="url(#E)" fill-rule="evenodd" d="M473.799 64.643c-2.713-5.694-9.05-8.573-19.068-8.573h-9.081l-12.201-5.64h25.615c14.413 0 24.192 7.442 23.723 22.55-2.155-5.039-4.721-6.67-8.988-8.337Z" clip-rule="evenodd"/><path fill="#F5E885" fill-rule="evenodd" d="m512.713 50.435-12.332 7.069c-2.077-2.531-7.751-4.562-12.115-4.992v-2.077h24.447Z" clip-rule="evenodd"/><path fill="url(#F)" fill-rule="evenodd" d="M404.347 116.224c-5.779.074-13.635-.717-18.689-3.744l-.534-.318-1.667-16.456 1.86-.922.624.806c4.651 6.011 9.845 9.065 17.468 8.879 4.651-.112 9.143-1.415 9.143-6.782 0-5.814-6.275-7.977-10.747-9.821-9.856-4.066-17.197-8.294-17.197-20.41a16.723 16.723 0 0 1 5.953-12.724c4.601-3.968 10.755-5.46 16.716-5.46 4.842.014 9.663.656 14.34 1.91l.857.221 1.337 16.848h-2.194l-.368-.562c-3.198-4.9-7.403-6.752-13.073-6.752-3.895 0-9.022.682-9.022 5.628 0 4.945 6.317 6.941 10.034 8.484 10.503 4.36 18.181 8.94 18.181 21.746 0 13.077-10.973 19.282-23.014 19.429h-.008Z" clip-rule="evenodd"/><path fill="url(#G)" fill-rule="evenodd" d="m423.17 60.283.632 7.968h-2.193l-.369-.562c-3.197-4.899-7.402-6.751-13.072-6.751-3.895 0-9.023.682-9.023 5.627a5.23 5.23 0 0 0 .442 2.128c-4.484 4.019 5.573 11.887 5.573 11.887-13.824 2.472-17.092-16.422-17.014-21.045.077-4.624 13.565-8.054 22.242-7.655 4.771.217 9.492 4.542 12.782 8.403Z" clip-rule="evenodd"/><path fill="url(#H)" fill-rule="evenodd" d="M404.347 116.224c-5.779.073-13.635-.717-18.689-3.744l-.534-.318-1.667-16.456 1.86-.923.624.806c4.651 6.012 9.845 9.066 17.468 8.88 4.651-.113 9.143-1.415 9.143-6.783a6.848 6.848 0 0 0-1.163-3.899c2.387-.314 4.263-.934 5.197-1.984 2.996-3.349 1.504-9.716.454-12.976 6.255 3.69 10.317 8.655 10.317 17.968.004 13.076-10.964 19.281-23.01 19.429Z" clip-rule="evenodd"/><path fill="#B97D1C" fill-rule="evenodd" d="M415.435 114.124c2.073-2.655-2.302-3.732-8.255-3.225 3.182-2.469 12.336-11.627 13.565-15.743.957 4.763 2.112 11.069 5.197 9.155-1.961 4.65-5.771 7.894-10.492 9.813h-.015Z" clip-rule="evenodd"/><path fill="#D4A624" fill-rule="evenodd" d="M421.535 82.099c-4.969-4.605-11.216-6.294-16.483-8.79 2.484 2.654 7.251 7.836-.876 6.852 3.562 2.147 12.456 8.565 15.503 11.204-2.462-7.088-1.152-10.774 1.856-9.266Z" clip-rule="evenodd"/><path fill="url(#I)" fill-rule="evenodd" d="m384.41 105.112-.953-9.406 1.86-.922.624.806c4.651 6.011 9.845 9.065 17.468 8.879 4.651-.112 9.143-1.415 9.143-6.782 0-5.814-6.275-7.977-10.747-9.821-9.856-4.066-17.197-8.294-17.197-20.41a16.723 16.723 0 0 1 5.953-12.724c4.601-3.968 10.755-5.46 16.716-5.46 4.842.014 9.663.656 14.34 1.91l.857.221.534 6.724c-4.992-1.903-10.677-3.038-14.254-2.988-7.988.113-17.352 2.686-17.092 11.968.128 4.62 2.422 8.399 6.759 11.085 3.973 2.465 8.558 3.775 12.67 5.91 4.751 2.47 8.278 6.027 8.828 11.658.958 9.752-8.053 14.34-16.591 14.879-4.705.287-11.72-1.55-18.91-5.527h-.008Z" clip-rule="evenodd"/><path fill="url(#J)" fill-rule="evenodd" d="m384.41 105.113-.953-9.407 1.86-.922.624.806c4.651 6.011 9.845 9.065 17.468 8.879 4.651-.112 9.143-1.414 9.143-6.782s-5.31-7.604-9.643-9.368c5.283-.426 12.092.078 16.355 4.38.333.992.55 2.02.648 3.062.957 9.751-8.054 14.34-16.592 14.878-4.705.287-11.72-1.55-18.91-5.526Z" clip-rule="evenodd"/><path fill="#E0B416" fill-rule="evenodd" d="M400.359 80.168c.45 1.686-2.442 3.52-11.418-.097 3.101 3.419 7.624 5.632 12.872 7.794 2.352.97 5.205 2.027 7.363 3.659-.666-3.698 3.946-3.438 8.728 0-1.027-3.1-3.042-5.135-5.48-6.662-.434-.26-.883-.512-1.349-.752-2.096-1.09-4.317-1.965-6.515-2.888l-.073-.03-.186-.078c-.489.093-3.876-1.186-3.957-.938l.015-.008Z" clip-rule="evenodd"/><path fill="#FFF0BD" fill-rule="evenodd" d="M418.901 99.702a10.086 10.086 0 0 1-1.112 4.337c-1.907 2.589-4.876 4.379-8.198 5.445.64-2.449.144-5.349-3.759-5.201 3.349-.469 6.201-1.895 6.655-5.504 1.162 1.938 3.771 2.888 6.414.923Z" clip-rule="evenodd"/><path fill="#FEF8C2" fill-rule="evenodd" d="M396.675 51.112c-1.396 1.314-2.023 5.356 7.084 4.442-5.426.872-10.445 3.236-11.77 8.371l-.058.086.027.038a11.566 11.566 0 0 0-.302 3.058c.02.862.125 1.72.314 2.562-1.876-2.248-4.965-3.876-7.341-1.24v-.973c-.01-2.42.52-4.81 1.55-7a9.263 9.263 0 0 1 5.74 3.54c.802-2.028-.387-7.834-4.313-6a18.07 18.07 0 0 1 2.957-3.264 20.835 20.835 0 0 1 6.116-3.62h-.004Z" clip-rule="evenodd"/><path fill="url(#K)" fill-rule="evenodd" d="m422.45 51.403-7.364 4.45c2.539 2.08 5.546 6.956 6.492 12.402h2.193l-1.321-16.852Z" clip-rule="evenodd"/><path fill="#FEF8C2" fill-rule="evenodd" d="m385.124 112.163 6.456-3.736c-2.53-2.082-5.317-8.201-6.263-13.643l-1.86.923 1.667 16.456Z" clip-rule="evenodd"/><path fill="#FEF8C2" fill-rule="evenodd" d="M416.289 56.066c.892 1.162 4.523 7.89 5.318 12.185-2.12-4.616-4.217-8.228-6.976-11.662-7.515-1.419-20.387-.729-22.193 8.693-1.333 6.938 5.039 11.898 10.639 14.398 1.795.775 3.624 1.512 5.426 2.295 7.294 3.17 13.278 8.112 12.216 16.843-.949 7.798-7.115 11.29-14.103 12.158a34.188 34.188 0 0 1-14.902-1.635l-6.589 2.821 5.038-3.821c-2.639-2.794-4.844-9.953-4.829-13.565 1.388 5.538 4.849 12.166 6.612 12.894a32.746 32.746 0 0 0 14.259 1.706c6.391-.733 12.038-3.787 12.886-10.763.969-7.945-4.65-12.282-11.239-15.146-1.806-.775-3.639-1.5-5.426-2.302-6.399-2.845-13.142-8.492-11.569-16.298 2.089-10.39 15.611-11.499 24.088-9.898l7.549-3.574-6.174 4.651-.031.02Z" clip-rule="evenodd"/><path fill="url(#L)" d="M445.886 55.248h8.845c7.061 0 12.378 1.408 15.952 4.225 3.651 2.864 5.468 7.131 5.468 12.766 0 5.907-1.55 10.217-5.038 13.08-3.488 2.865-8.767 4.16-16.39 4.16h-7.81l.206 17.773 10.677 7.651-11.421-6.182c-3.26 2.655-8.872 4.263-12.934 4.104 3.985-1.348 8.79-2.778 12.042-5.491l-.585-50.69-11.457-6.202 12.437 4.818.008-.012Zm.655 1.644.361 30.935h7.829c7.228 0 12.212-1.224 15.351-3.79 3.081-2.52 4.426-6.414 4.426-11.81 0-5.108-1.613-8.933-4.841-11.475-3.273-2.584-8.252-3.876-14.936-3.876l-8.19.016Z"/><path fill="url(#M)" d="m500.439 56.496 12.274-6.061-11.51 7.514v49.125l11.51 7.813-12.235-6.34c-2.767 2.081-8.259 4.519-12.212 4.263 3.189-1.194 7.003-1.585 11.293-5.647V57.895c-2.906-2.325-7.639-4.79-11.293-5.368 4.313-.697 8.859 1.353 12.173 3.97Z"/><path fill="#FEF8C2" fill-rule="evenodd" d="m445.017 66.433.26 22.444c-1.469-6.562-3.953-12.503-7.007-8.833V67.336c.775 2.073 4.011 4.166 6.751-.903h-.004ZM499.326 76.53l.236 22.44c-1.352-6.562-3.651-12.503-6.472-8.833V77.432c.709 2.074 3.701 4.167 6.236-.903Z" clip-rule="evenodd"/><path fill="#06223B" fill-rule="evenodd" d="M302.058 119.914h-29.513v-6.674l1.364-1.042c.182-.969-.217-3.02-.62-4.605l-17.39-.07c-.423 1.679-.853 3.919-.62 4.895l1.162 1.074v6.422H181.276v-6.821l1.357-.926a5.3 5.3 0 0 0 2.213-2.822 20.284 20.284 0 0 0 1.252-7.151V89.61c-4.833-.973-10.976-1.356-15.177 1.306l-1.996 1.264-4.423-4.004.884-2.147c1.701-4.132 3.814-7.992 7.612-10.542 3.876-2.608 8.526-3.159 13.1-2.837v-5.682c0-2.403-.62-8.1-2.853-9.557l-1.969-1.283v-6.88h36.397c2.647 0 5.934 0 8.503-.604l4.814-1.093.333 3.515 1.733 18.216.201 2.12-6.763 3.372-1.938-3.93c-1.705-3.527-6.608-4.182-10.1-4.182h-7.441v10.104l.325.07c4.302.942 9.019 1.55 13.433 1.263 1.163-.073 4.551-.457 5.512-1.209l1.938-2.046 3.367 2.713 1.807 1.468-.903 2.148c-1.206 2.86-3.593 6.003-5.814 8.088-5.461 5.085-12.267 6.713-19.53 5.074l-.116-.028v8.163h5.352c5.651 0 11.035-1.772 14.399-6.543l2.151-3.05 6.317 3.159-.279 2.186c-.421 3.312-.844 6.626-1.267 9.941a43.87 43.87 0 0 0 4.209-8.643l12.755-36.734c.465-1.337.968-4.612-.299-5.681l-1.554-1.295V49.25h32.323v6.468l-1.035.926c-1.821 1.628-1.581 3.989-.825 6.1l9.457 26.483a8.806 8.806 0 0 0 1.937-.86l.969-.59 4.205.648 2.055 7.279-3.353 8.712c1.132 2.256 2.713 5.015 4.407 6.794 1.724-2.046 2.282-6.813 2.282-9.015V66.538c0-2.391-.744-7.685-2.906-9.146l-1.915-1.295v-6.848h28.548l.388 3.914c.205 2.081 2.008 4.988 3.07 6.767l11.921 20.014V66.968c0-2.209-.527-8.212-2.585-9.557l-1.969-1.283v-6.88h29.297v6.88l-1.938 1.283c-2.202 1.438-2.853 7.181-2.853 9.557v35.226c0 2.376.651 8.12 2.853 9.558l1.969 1.287v6.875h-26.123l-.775-1.938a51.805 51.805 0 0 0-2.465-5.182c-.833-1.55-1.744-3.023-2.658-4.507l-11.531-18.708c-.127-.205-.255-.41-.387-.616v13.224c0 2.209.523 8.212 2.581 9.557l1.973 1.287v6.883h-23.677ZM118.374 75.782C122.009 58.453 136.128 48 155.371 48a59.218 59.218 0 0 1 16.937 2.407l2.837.825 1.977 21.316-6.341 3.159-2.105-3.287c-2.91-4.538-8.193-6.383-13.394-6.383-11.011 0-15.828 7.752-15.828 18.041 0 9.55 3.655 19.015 14.669 19.015 7.333 0 12.193-2.477 16.639-8.283l2.534-3.31 5.585 5.252-2.678 19.964-2.507.883a62.62 62.62 0 0 1-20.468 3.636c-18.448 0-31.808-11.403-35.025-28.2-3.6 17.274-17.514 28.661-36.64 28.661-21.627 0-36.133-15.049-36.133-36.532 0-22.716 14.68-37.7 37.47-37.7 18.735 0 32.242 11.267 35.474 28.317Zm-35.92 27.951c10.445 0 14.67-9.782 14.67-18.925 0-10.1-3.628-19.378-15.116-19.378-10.747 0-14.588 9.445-14.588 18.843.016 10.178 3.388 19.46 15.034 19.46Zm185.06-13.646-2.969-8.876-2.937 8.872 5.906.004Z" clip-rule="evenodd"/><path fill="url(#N)" fill-rule="evenodd" d="M342.85 91.567c-.291-3.465-.388-6.941-.388-10.464V65.046c0-3.465-.713-10.019-3.988-12.154l-.562-.369v-2.092h23.107v2.093l-.566.368c-3.356 2.19-4.263 8.557-4.263 12.154v35.226c0 3.597.899 9.964 4.263 12.158l.566.364v2.093H340.09l-.318-.775a58.846 58.846 0 0 0-4.371-8.29l-12.589-20.417a87.554 87.554 0 0 1-6.201-11.902c.322 3.813.454 7.62.454 11.627v15.157c0 3.469.717 10.019 3.995 12.159l.562.364v2.093h-23.106v-2.078l.542-.368c3.322-2.256 4.263-8.526 4.263-12.17V64.631c0-3.643-1.069-9.557-4.263-11.72l-.546-.368v-2.081h22.634l.112 1.12c.271 2.713 2.136 5.77 3.488 8.046l12.856 21.583a93.73 93.73 0 0 1 5.24 10.387l.008-.03Z" clip-rule="evenodd"/><path fill="url(#O)" fill-rule="evenodd" d="m342.83 91.567 6.368 15.681v7.643l-36.339-58.399-1.984-6.061h10.274l.113 1.12c.271 2.713 2.135 5.77 3.488 8.046l12.856 21.583a94.314 94.314 0 0 1 5.224 10.387Z" clip-rule="evenodd"/><path fill="url(#P)" fill-rule="evenodd" d="M349.324 114.887h-9.236a60.53 60.53 0 0 0-4.69-9.061L322.81 85.409a94.637 94.637 0 0 1-6.201-11.829l-6.976-23.15 3.228 6.062 36.463 58.395Z" clip-rule="evenodd"/><path fill="url(#Q)" fill-rule="evenodd" d="M344.829 114.887h-4.744c-1.407-3.442-7.042-12.879-8.987-16.03 8.414 7.647 6.67.822 3.577-4.934l-3.232-6.01 15.223 22.718a57.193 57.193 0 0 1-1.837 4.264v-.008Z" clip-rule="evenodd"/><path fill="url(#R)" fill-rule="evenodd" d="M342.852 91.567c-.291-3.465-.388-6.941-.388-10.464V65.046c0-3.465-.713-10.019-3.988-12.154l-.562-.369v-2.092h11.945l-.535 64.456-.124-7.639-6.36-15.68h.012Z" clip-rule="evenodd"/><path fill="url(#S)" fill-rule="evenodd" d="M316.617 73.507c.321 3.813.453 7.62.453 11.627v15.158c0 3.468.717 10.018 3.996 12.158l.562.364v2.093h-12.015l.516-64.457h1.376l5.112 23.057Z" clip-rule="evenodd"/><path fill="url(#T)" fill-rule="evenodd" d="M349.199 50.43h11.79v2.093l-.566.369c-3.356 2.19-4.263 8.557-4.263 12.154v35.226c0 3.597.899 9.964 4.263 12.158l.566.364v2.093h-11.79V50.431Z" clip-rule="evenodd"/><path fill="url(#U)" fill-rule="evenodd" d="M356.177 100.675c.066 3.655 1.023 9.643 4.263 11.755l.566.364v2.093h-3.527a79.184 79.184 0 0 1-8.139-2.48s-.135-16.278.686-26.169c0 0 .388 16.018 6.147 14.437h.004Z" clip-rule="evenodd"/><path fill="url(#V)" fill-rule="evenodd" d="m310.147 114.5-11.627.387v-2.077l.542-.368c3.322-2.256 4.263-8.527 4.263-12.17V64.616c0-3.643-1.069-9.558-4.263-11.72l-.546-.368v-2.082h11.627V114.5h.004Z" clip-rule="evenodd"/><path fill="#FEF8C2" fill-rule="evenodd" d="M309.324 63.914v22.324c-1.279-6.561-3.329-12.383-5.988-8.713V64.817c.667 2.07 3.616 4.17 5.988-.903Z" clip-rule="evenodd"/><path fill="url(#W)" fill-rule="evenodd" d="M80.564 116.658c-19.952 0-33.029-13.697-33.029-33.428 0-20.987 13.282-34.594 34.366-34.594 19.859 0 33.114 13.565 33.114 33.33 0 20.542-13.836 34.676-34.451 34.676v.016Zm.891-11.755c12.212 0 17.774-11.026 17.774-22.03 0-11.98-4.976-22.478-18.216-22.478-12.526 0-17.688 10.689-17.688 21.948-.004 12.053 4.7 22.572 18.13 22.572v-.012Z" clip-rule="evenodd"/><path fill="#FFF0BD" fill-rule="evenodd" d="M48.688 73.091a34.92 34.92 0 0 1 2.197-6.387 9.357 9.357 0 0 1 6.864 4.853c2.783 7.263-3.151 9.452-3.047 6.759.105-2.694-1.484-8.48-6.018-5.225h.004Z" clip-rule="evenodd"/><path fill="url(#X)" fill-rule="evenodd" d="M80.565 116.658c-10.271 0-18.716-3.627-24.499-9.84 6.287 1.698 7.457-1.488 6.322-2.542 0 0 8.464-.702 10.545-1.217 2.326 1.182 5.155 1.845 8.527 1.845 12.212 0 17.774-11.027 17.774-22.03 0-.775 6.147-13.63 6.104-14.394 3.635 1.55 4.077-4.186 1.38-9.74 5.294 5.814 8.301 13.813 8.301 23.254 0 20.541-13.836 34.676-34.45 34.676l-.004-.012Z" clip-rule="evenodd"/><path fill="#FEF8C2" fill-rule="evenodd" d="M52.2 64.162a29.239 29.239 0 0 1 7.86-8.914c-.063.17-1.826 5.19 7.045 2.403 0 0-7.437 8.057-10.387 12.464.876-1.996-.34-8.162-4.519-5.953Z" clip-rule="evenodd"/><path fill="url(#Y)" fill-rule="evenodd" d="M80.73 110.31c-15.246 0-25.242-11.135-25.242-27.176 0-17.053 10.155-28.126 26.266-28.126 15.177 0 25.308 11.018 25.308 27.11 0 16.704-10.573 28.192-26.331 28.192Zm.725-5.395c12.213 0 17.774-11.026 17.774-22.03 0-11.98-4.976-22.478-18.216-22.478-12.526 0-17.688 10.689-17.688 21.948 0 12.045 4.705 22.564 18.134 22.564l-.004-.004Z" clip-rule="evenodd"/><path fill="#F8E98B" fill-rule="evenodd" d="M80.73 110.31c-6.073 0-10.925-1.647-14.855-5.178 25.192 9.181 45.485-12.522 37.261-37.377 2.597 4.298 3.926 8.31 3.926 14.363 0 16.704-10.573 28.192-26.331 28.192Z" clip-rule="evenodd"/><path fill="url(#Z)" fill-rule="evenodd" d="M57.222 93.943a32.807 32.807 0 0 1-1.733-10.81c0-5.46 1.043-10.308 2.985-14.374 3.763-7.546 10.034-11.569 16.688-13.073a31.224 31.224 0 0 1 6.59-.678c.942 0 1.865.043 2.766.128 6.86.67 12.95 3.62 17.22 9.367.363.702.634 1.447.806 2.217-4.798-5.662-15.115-7.55-21.537-6.317-12.526 0-17.689 10.69-17.689 21.948-1.972 6.852-1.67 15.735 1.008 21.518a29.145 29.145 0 0 1-7.108-9.926h.004Z" clip-rule="evenodd"/><path fill="#FFF0BD" fill-rule="evenodd" d="M103.569 95.842c-1.636 4-4.415 7.751-8.193 9.689.523-.984 1.786-4.829-3.876-3.876 3.186-2.468 5.348-6.127 6.561-10.258.237 3.022 2.318 6.704 5.508 4.445Z" clip-rule="evenodd"/><path fill="#FEF8C2" d="M80.726 111.395c-7.89 0-14.437-2.875-19.033-7.825-4.597-4.949-7.267-12.076-7.267-20.432 0-8.848 2.655-16.158 7.418-21.258 4.763-5.1 11.573-7.957 19.917-7.957 7.875 0 14.452 2.864 19.08 7.817 4.628 4.953 7.282 12.015 7.282 20.37 0 8.67-2.763 15.992-7.58 21.154-4.818 5.163-11.647 8.139-19.817 8.139v-.008Zm-17.828-8.941c4.286 4.616 10.426 7.298 17.828 7.298 7.697 0 14.12-2.787 18.603-7.604 4.485-4.817 7.136-11.794 7.136-20.037 0-7.926-2.489-14.592-6.841-19.255-4.352-4.662-10.464-7.29-17.878-7.29-7.872 0-14.286 2.682-18.72 7.43-4.434 4.747-6.976 11.72-6.976 20.153 0 7.93 2.472 14.631 6.82 19.317l.028-.012Z"/><path fill="url(#aa)" fill-rule="evenodd" d="M269.915 50.43h-18.991v2l.442.388c2.449 2.058 2.174 6.372 1.236 9.073l-12.77 36.742c-1.516 4.367-4.787 10.793-8.31 13.921l-.418.388-.229 1.976h21.46v-1.961l-.388-.368c-1.163-1.066-.903-3.841-.387-6.317.275-1.268.615-2.52 1.019-3.752l8.057-24.312 2.892-8.72 6.379-19.026.008-.031Z" clip-rule="evenodd"/><path fill="url(#ab)" fill-rule="evenodd" d="m255.561 93.504 4.043-12.185c-4.225 5.771-6.996 4.388-6.228.597-3.186 4.14-5.868 15.197-5.868 15.197l8.053-3.609Z" clip-rule="evenodd"/><path fill="url(#ac)" fill-rule="evenodd" d="m290.165 102.636 2.624-6.817-2.209-6.322a16.234 16.234 0 0 1-4.833 1.43L275.364 61.86c-1.019-2.849-1.206-6.88 1.267-9.088l.411-.369v-1.976h-13.499v18.99l11.119 33.025-.031.136.097.291c.609 1.759 2.384 8.073.419 9.573l-.489.387v2.035h22.662l-.458-2.38c-2.503-2.054-4.953-6.17-6.689-9.871l-.008.023Z" clip-rule="evenodd"/><path fill="url(#ad)" fill-rule="evenodd" d="m290.166 102.636 3.457-8.992-1.232-4.364-1.109-.17a15.005 15.005 0 0 1-5.534 1.818L275.365 61.86c-1.019-2.849-1.205-6.88 1.267-9.088l.411-.369v-1.976h-12.871l.868 4.263 21.63 60.182h10.643l-.457-2.38c-2.504-2.054-4.954-6.17-6.69-9.871v.015Z" clip-rule="evenodd"/><path fill="url(#ae)" fill-rule="evenodd" d="M263.462 50.43h-12.534v2l.442.388c2.449 2.058 2.174 6.372 1.236 9.073l-12.77 36.742c-1.516 4.367-4.787 10.793-8.31 13.921l-.418.388-.229 1.976h10.077l21.052-60.096 1.446-4.36.008-.031Z" clip-rule="evenodd"/><path fill="#FEF8C2" fill-rule="evenodd" d="M237.933 103.174c-1.694 3.523-3.992 7.221-6.407 9.364l-.418.388-.229 1.976h10.077l3.058-8.708c1.162-4.578 2.154-8.651 2.154-8.651s-6.011 9.534-8.235 5.643v-.012ZM258.021 63.712c-.5 4.027-2.515 9.496-4.535 12.95-.209-3.14-3.488-2.377-6.67 1.875l5.601-16.119c-.035 2.178 2.608 4.95 5.604 1.294Z" clip-rule="evenodd"/><path fill="#F5E885" fill-rule="evenodd" d="M250.926 50.43c3.453 1.117 6.476 1.43 11.088 4.36l3.023-.084c4.151-2.768 9.573-3.609 11.906-4.264l-26.017-.011Z" clip-rule="evenodd"/><path fill="url(#af)" fill-rule="evenodd" d="m252.339 114.887-8.67-7.751c-2.078 2.534-7.116 4.829-12.561 5.775l-.229 1.976h21.46Z" clip-rule="evenodd"/><path fill="url(#ag)" fill-rule="evenodd" d="m274.648 114.887 9.438-7.449c2.077 2.534 7.34 4.127 12.789 5.069l.458 2.38h-22.685Z" clip-rule="evenodd"/><path fill="url(#ah)" fill-rule="evenodd" d="m292.39 96.85 1.233-3.206-1.233-4.364-1.108-.17a17.974 17.974 0 0 1-5.535 1.817l-5.371 5.922-9.546-5.58h-14.522l-9.038 5.58h45.12Z" clip-rule="evenodd"/><path fill="#FEF8C2" fill-rule="evenodd" d="m280.137 96.714-9.302-5.426h-4.062c3.248.775 5.562 3.1 1.551 4.76l11.813.666Z" clip-rule="evenodd"/><path fill="url(#ai)" fill-rule="evenodd" d="m292.39 96.85-2.224 5.786-9.79-5.786-5.806 5.724-21.983-.085-5.325-5.64h45.128Z" clip-rule="evenodd"/><path fill="url(#aj)" fill-rule="evenodd" d="m292.391 96.85-2.225 5.786-9.65-5.705v-.081h11.875Z" clip-rule="evenodd"/><path fill="#734301" fill-rule="evenodd" d="m291.28 89.11-1.116 13.526 3.457-8.992-1.232-4.364-1.109-.17Z" clip-rule="evenodd"/><path fill="url(#ak)" fill-rule="evenodd" d="m321.626 114.887-11.479-7.364c-2.082 2.531-7.279 4.872-11.627 5.302v2.078l23.106-.016Z" clip-rule="evenodd"/><path fill="url(#al)" fill-rule="evenodd" d="m340.086 114.887 9.112-7.686c2.081 2.531 6.344 4.651 11.79 5.593v2.093h-20.902Z" clip-rule="evenodd"/><path fill="#F5E885" fill-rule="evenodd" d="m321.15 50.43-11.003 8.047c-2.082-2.531-6.202-5.039-11.627-5.965V50.43h22.63ZM337.895 50.43l11.317 7.558c2.081-2.53 5.612-4.39 11.789-5.465v-2.092h-23.106Z" clip-rule="evenodd"/><path fill="url(#am)" d="M261.731 53.636c.54.303 1.149.46 1.767.457a3.65 3.65 0 0 0 1.737-.535c3.422-1.988 8.379-2.79 11.809-3.127-2.926.93-7.833 2.36-11.026 4.573l14.809 41.024h8.507l1.938-6.922-.663 8.07a.818.818 0 0 1-.748.488h-8.445l3.426 9.499a.817.817 0 0 1-.264.918l-9.925 6.806 8.449-7.724-3.426-9.495h-31.812l-3.418 9.755a.802.802 0 0 1-.252.36c-1.411 1.306-9.507 5.217-13.085 5.143 3.144-1.225 7.364-2.232 11.856-6.236l18.069-51.546c-2.617-1.64-6.868-3.76-10.104-4.694 4.236 0 8.383 1.86 10.801 3.205v-.02Zm.64 2.616-13.953 39.764h30.649l-14.34-39.772c-.519-1.445-1.849-1.457-2.36 0l.004.008Z"/><path fill="url(#an)" d="M310.367 57.298c2.589-1.891 7.818-5.852 10.783-6.867l-6 5.232a1.856 1.856 0 0 0-.356 2.383l30.916 49.698a1.207 1.207 0 0 0 .891.574c1.12.151 1.802-1.163 1.802-2.139V58.426l-10.495-7.918 11.24 6.457c1.406-1.14 5.995-4.193 11.848-4.442-5.504 1.497-7.399 2.326-10.969 5.814v47.206a3.021 3.021 0 0 0 1.14 2.403c3.403 2.779 6.74 3.453 9.832 4.926-2.995.066-7.204-1.717-9.91-3.283a3.677 3.677 0 0 0-4.139.271c-2.225 1.717-4.329 3.357-6.864 5.101 1.364-1.519 3.062-3.508 4.899-5.271L313.34 58.81c-.694-1.112-2.376-.5-2.376.713v47.985a.81.81 0 0 1-.217.554c-1.29 1.593-7.511 4.864-12.231 4.748 3.906-1.213 7.561-2.035 10.809-5.597V59.907a3.613 3.613 0 0 0-1.031-2.574c-2.624-2.748-7.29-3.934-9.771-4.747 5.322.267 9.43 2.406 11.844 4.712Z"/><path fill="url(#ao)" fill-rule="evenodd" d="M152.231 116.224c-19.573 0-32.669-13.786-32.669-33.16 0-21.037 14.065-33.881 34.812-33.881 5.437-.03 10.85.737 16.065 2.278l.81.237 1.589 17.115-1.938.965-.605-.938c-3.488-5.45-9.72-7.813-16.006-7.813-12.724 0-18.933 9.069-18.933 21.145 0 11.441 4.992 22.119 17.774 22.119 8.36 0 14.103-2.973 19.107-9.5l.446-.58 1.918 1.801-2.213 16.499-.717.256a59.871 59.871 0 0 1-19.436 3.457h-.004Z" clip-rule="evenodd"/><path fill="#FFF0BD" fill-rule="evenodd" d="M120.586 73.638a34.691 34.691 0 0 1 2.201-6.39 9.367 9.367 0 0 1 6.868 4.851c2.783 7.263-3.151 9.453-3.05 6.76.101-2.694-1.481-8.477-6.019-5.22Z" clip-rule="evenodd"/><path fill="url(#ap)" fill-rule="evenodd" d="M152.23 116.224c-17.44 0-29.749-10.96-32.214-27.072 1.999 6.511 6.929 12.957 9.735 9.337l10.077-.423c2.857 3.791 7.182 6.225 13.282 6.225 8.36 0 14.104-2.973 19.107-9.5l.446-.58 1.864 2.212-2.159 16.088-.717.256a59.866 59.866 0 0 1-19.436 3.457h.015Z" clip-rule="evenodd"/><path fill="url(#aq)" fill-rule="evenodd" d="m171.986 59.654.868 9.158-1.937.965-.605-.938c-3.488-5.449-9.72-7.813-16.007-7.813-12.723 0-18.932 9.07-18.932 21.146 0 11.44 4.992 22.118 17.774 22.118 8.359 0 14.103-2.972 19.107-9.499l.445-.581 1.919 1.802-1.112 8.302c-6.112 3.74-12.313 6.332-20.98 6.332-15.2 0-25.37-11.491-25.37-27.645 0-17.533 10.922-28.238 27.037-28.238 6.403-.1 12.015 1.643 17.828 4.891h-.035Z" clip-rule="evenodd"/><path fill="url(#ar)" fill-rule="evenodd" d="M150.497 104.128c.872.109 1.749.163 2.628.163 8.36 0 14.103-2.973 19.107-9.5l.446-.581 1.918 1.802-1.112 8.302c-6.112 3.74-12.313 6.333-20.979 6.333-8.139 0-14.821-3.291-19.29-8.821-.17-.531-.321-1.07-.442-1.616 0 0 7.938 5.495 17.724 3.918Z" clip-rule="evenodd"/><path fill="#F8E98B" fill-rule="evenodd" d="M157.634 103.961c6.015-.934 10.549-3.875 14.599-9.17l.446-.581 1.919 1.802-1.113 8.302c-6.112 3.74-12.313 6.333-20.979 6.333l-1.701-.865c7.817-1.193 10.111-5.139 6.829-5.821Z" clip-rule="evenodd"/><path fill="url(#as)" fill-rule="evenodd" d="m171.246 51.697-7.387 4.418c2.535 2.078 6.089 8.22 7.035 13.662l1.938-.965-1.589-17.115h.003Z" clip-rule="evenodd"/><path fill="url(#at)" fill-rule="evenodd" d="M172.566 94.353a64.41 64.41 0 0 1-5.562 13.391l5.321 4.81.058-.024 2.213-16.498-1.918-1.802-.112.143v-.02Z" clip-rule="evenodd"/><path fill="url(#au)" d="M167.598 108.259c-5.426 2.306-10.402 3.391-16.301 3.186-7.364-.256-13.526-3.147-17.929-7.918-4.651-5.038-7.333-12.19-7.333-20.541 0-8.895 2.775-16.1 7.608-21.115 4.833-5.015 11.666-7.534 18.58-7.926 4.833-.271 7.841.334 12.379 1.713 1.938 1.888 5.988 8.407 6.294 14.104-1.79-5.112-3.585-9.139-7.41-12.906a32.724 32.724 0 0 0-11.162-1.267c-6.511.387-12.941 2.685-17.499 7.422-4.558 4.736-7.147 11.522-7.147 19.975 0 7.914 2.512 14.67 6.895 19.417 4.116 4.457 9.907 7.154 16.829 7.387 4.65.155 11.034-1.163 15.305-2.969 2.108-2.98 4.689-8.933 5.86-12.483-.276 3.251-2.992 10.956-4.969 13.906v.015Z"/><path fill="#B97D1C" d="m166.273 108.411 6.05 4.124-4.608-5.124-1.442 1Z"/><path fill="#FEF8C2" d="m163.621 55.589 7.627-3.892-6.185 4.891-1.442-1Z"/><path fill="#FEF8C2" fill-rule="evenodd" d="M124.098 64.724a29.355 29.355 0 0 1 7.929-8.872c-.837 1.764-.848 4.651 6.872 1.938 0 0-7.329 8.484-10.278 12.895.872-1.996-.345-8.166-4.523-5.957v-.004Z" clip-rule="evenodd"/><path fill="url(#av)" fill-rule="evenodd" d="M202.912 61.65h4.627v-6.476h-13.351v55.841h13.351v-7.349h-4.627V61.65Z" clip-rule="evenodd"/><path fill="url(#aw)" fill-rule="evenodd" d="M202.911 61.65h10.546c4.833 0 10.569 1.136 12.906 5.907l.55 1.12 2.058-1.027-1.12-11.774h-32.289l7.349 5.775Z" clip-rule="evenodd"/><path fill="url(#ax)" fill-rule="evenodd" d="M186.421 109.294a7.737 7.737 0 0 1-2.5 3.166l-.542.369v2.077h45.082l.717-5.612h-42.757Z" clip-rule="evenodd"/><path fill="url(#ay)" fill-rule="evenodd" d="m202.911 103.667-7.364 5.623 33.641-.085 1.697-13.302-1.937-.965-.617.873c-3.953 5.6-10.235 7.856-16.933 7.856h-8.487Z" clip-rule="evenodd"/><path fill="url(#az)" fill-rule="evenodd" d="M187.169 50.43h-3.79v2.093l.562.369c3.387 2.209 4.263 8.526 4.263 12.154v35.226c0 3.632-.957 9.914-4.263 12.17l-.543.368v2.077h.233l8.67-3.817c1.122-.51 2.32-.834 3.546-.958l-.271-1.232V55.876l-8.395-5.426-.012-.02Z" clip-rule="evenodd"/><path fill="#F5E885" fill-rule="evenodd" d="m227.86 55.946-.62-6.511-1.376.313c-2.682.609-6.402.683-9.193.683h-33.292l12.185 5.426 32.296.07v.019Z" clip-rule="evenodd"/><path fill="url(#aA)" fill-rule="evenodd" d="m227.239 49.435-6.817 6.441c2.531 2.081 5.546 7.364 6.492 12.79l2.058-1.027-1.733-18.204Z" clip-rule="evenodd"/><path fill="url(#aB)" fill-rule="evenodd" d="m223.605 109.294 4.857 5.624 2.426-18.991-1.938-.965c-.651 4.627-3.031 10.325-5.348 14.34l.003-.008Z" clip-rule="evenodd"/><path fill="url(#aC)" d="M195.723 55.058h22.13a7.17 7.17 0 0 0 4.48-1.496c1.744-1.314 3.039-2.659 4.891-4.131l-6.251 7.034a.811.811 0 0 1-.566.229h-24.029l.132 51.779 22.18-.058a7.297 7.297 0 0 0 6.612-4.046 40.884 40.884 0 0 0 3.643-9.434c.609 2.581-3.29 12.441-4.604 14.689a.825.825 0 0 1-.713.415l-27.936.073a.824.824 0 0 1-.818-.821l-.136-52.884-11.367-5.98 12.352 4.631Z"/><path fill="#FEF8C2" fill-rule="evenodd" d="M209.18 55.058c-3.957.911-9.061.834-12.991.117 1.86-.582 1.306-3.229-3.775-4.744h16.383c-2.058.728-4.082 3.054.383 4.627Z" clip-rule="evenodd"/><path fill="url(#aD)" fill-rule="evenodd" d="M167.199 85.417c3.074-7.52 7.182-13.395 20.999-11.201l6.608 5.953 1.325.287 6.779-3.1 2.767.604c12.042 2.655 20.03 1.104 21.824-.81l1.128.91c-6.476 10.364-14.809 12.922-25.723 10.465l-6.461-6.31-1.639-.36-6.612 3.348c-5.779-3.003-14.181-3.243-19.945 1.163l-1.054-.953.004.004Z" clip-rule="evenodd"/><path fill="#FEF8C2" fill-rule="evenodd" d="M167.199 85.416c2.097-5.135 4.682-9.5 10.507-11.054-.062.04-3.232 2.248 5.132 3.636 0 0-10.554-.074-15.367 7.666l-.272-.248Z" clip-rule="evenodd"/><path fill="url(#aE)" fill-rule="evenodd" d="m167.199 85.416.054-.127c3.667-5.337 9.926-8.14 22.867-5.306l14.495 3.178c11.414 2.5 19.766-.946 23.994-5.108 0 0-6.255 14.855-21.816 11.34l-3.906-.884-6.461-6.31-1.64-.36-6.612 3.349-1.368-.31c-5.852-1.322-13.247-1.876-18.553 1.488l-1.054-.953v.004Z" clip-rule="evenodd"/><path fill="#FEF8C2" fill-rule="evenodd" d="M167.199 85.417c5.205-8.915 14.015-8.228 23.111-6.236l14.495 3.178c6.79 1.488 18.627.83 23.828-4.298-4.678 7.096-16.739 7.53-24.177 5.902l-14.491-3.178c-8.585-1.88-16.472-2.426-22.184 5.159l-.582-.527Z" clip-rule="evenodd"/><path fill="url(#aF)" fill-rule="evenodd" d="M202.91 91.714c-1.767-4.624-5.131-1.356-6.422 6.31l-.039-15.817 6.461 6.31v3.197Z" clip-rule="evenodd"/><path fill="url(#aG)" fill-rule="evenodd" d="m353.809 41.136 14.824-14.825h-17.386L336.5 41.136h17.309Z" clip-rule="evenodd"/><path fill="url(#aH)" fill-rule="evenodd" d="M352.144 28.486h11.239l-10.476 10.48h-11.239l10.476-10.48Z" clip-rule="evenodd"/><path fill="url(#aI)" fill-rule="evenodd" d="m293.859 24.177 24.177 24.172 24.173-24.172L318.036 0l-24.177 24.177Z" clip-rule="evenodd"/><path fill="url(#aJ)" fill-rule="evenodd" d="m296.934 24.176 21.103 21.1 21.099-21.1-21.099-21.103-21.103 21.103Z" clip-rule="evenodd"/><path fill="url(#aK)" fill-rule="evenodd" d="m301 25.08 16.127 16.126a1.283 1.283 0 0 0 1.395.278c.155-.065.296-.16.415-.278l16.127-16.127a1.288 1.288 0 0 0 0-1.81L318.937 7.143a1.287 1.287 0 0 0-1.81 0L301 23.253a1.284 1.284 0 0 0-.283 1.408c.066.157.162.3.283.418Z" clip-rule="evenodd"/><path fill="#0C76A0" fill-rule="evenodd" d="m305.883 23.75 12.154 13.65 16.576-13.223-16.576-16.584-12.154 16.157Z" clip-rule="evenodd"/><path fill="url(#aL)" fill-rule="evenodd" d="m324.102 13.662-6.069-6.07-.748 8.62 6.333 3.554c-1.163-1.98-3.488-7.088.469-6.092l.015-.012Z" clip-rule="evenodd"/><path fill="url(#aM)" fill-rule="evenodd" d="m316.645 39.37 1.391 1.387 16.576-16.58h-17.967v15.192Z" clip-rule="evenodd"/><path fill="url(#aN)" fill-rule="evenodd" d="m301.449 24.177 16.584 15.189V7.593l-16.584 16.584Z" clip-rule="evenodd"/><path fill="#29A2D0" fill-rule="evenodd" d="M318.035 21.739V7.593l-4.104 4.092c1.244 2.012 0 5.52-2.353 8.318l6.457 1.736Z" clip-rule="evenodd"/><path fill="url(#aO)" fill-rule="evenodd" d="m301.449 24.177 16.584 16.58v-16.58h-16.584Z" clip-rule="evenodd"/><path fill="url(#aP)" fill-rule="evenodd" d="m308.012 24.177 10.022 10.019 10.019-10.02-10.019-10.022-10.022 10.023Z" clip-rule="evenodd"/><path fill="url(#aQ)" fill-rule="evenodd" d="m307.731 24.475 10.003 10.019a.429.429 0 0 0 .601 0l10.018-10.019a.428.428 0 0 0 0-.6l-10.018-10.02a.432.432 0 0 0-.601 0l-10.003 10.02a.426.426 0 0 0-.093.462.427.427 0 0 0 .093.138Zm10.321 9.123-9.441-9.425 9.425-9.422 9.422 9.422-9.406 9.425Z" clip-rule="evenodd"/><path fill="url(#aR)" fill-rule="evenodd" d="M317.609 40.757a.428.428 0 0 0 .712.275.427.427 0 0 0 .137-.275v-6.713a.428.428 0 0 0-.424-.386.426.426 0 0 0-.425.386v6.713Z" clip-rule="evenodd"/><path fill="#A9F2FA" fill-rule="evenodd" d="M301.452 23.75a.43.43 0 0 0-.386.424.428.428 0 0 0 .386.425h6.713a.43.43 0 0 0 .386-.425.428.428 0 0 0-.386-.424h-6.713Z" clip-rule="evenodd"/><path fill="#4FE7F7" fill-rule="evenodd" d="M318.458 7.593a.427.427 0 0 0-.849 0v6.712a.428.428 0 0 0 .712.275.427.427 0 0 0 .137-.275V7.593Z" clip-rule="evenodd"/><path fill="#9BF0FA" fill-rule="evenodd" d="M334.61 24.599a.425.425 0 0 0 .275-.711.425.425 0 0 0-.275-.138h-6.709a.427.427 0 0 0 0 .849h6.709Z" clip-rule="evenodd"/><path fill="url(#aS)" fill-rule="evenodd" d="m282.196 41.136-14.825-14.825h17.383l14.747 14.825h-17.305Z" clip-rule="evenodd"/><path fill="url(#aT)" fill-rule="evenodd" d="M283.857 28.486h-11.24l10.48 10.48h11.24l-10.48-10.48Z" clip-rule="evenodd"/><path fill="url(#aU)" fill-rule="evenodd" d="M340.639 22.638h17.382L337.36 43.299l-14.286.012-5.019 5.015-5.061-5.015h-14.852l-20.13-20.673h17.382l22.619 22.622 22.626-22.622Z" clip-rule="evenodd"/><path fill="url(#aV)" fill-rule="evenodd" d="M341.536 24.805h11.24l-16.324 16.324h-11.24l16.324-16.324Zm-47.043 0h-11.239l16.247 16.324h11.239l-16.247-16.324Z" clip-rule="evenodd"/><defs><linearGradient id="a" x1="320.453" x2="314.741" y1="127.131" y2="24.518" gradientUnits="userSpaceOnUse"><stop stop-color="#734301"/><stop offset="1" stop-color="#B97D1C"/></linearGradient><linearGradient id="b" x1="319.67" x2="317.965" y1="138.405" y2="82.269" gradientUnits="userSpaceOnUse"><stop stop-color="#734301"/><stop offset="1" stop-color="#B97D1C"/></linearGradient><linearGradient id="c" x1="315.262" x2="318.862" y1="126.58" y2="68.185" gradientUnits="userSpaceOnUse"><stop stop-color="#734301"/><stop offset="1" stop-color="#B97D1C"/></linearGradient><linearGradient id="d" x1="243.107" x2="531.876" y1="179.84" y2="-29.525" gradientUnits="userSpaceOnUse"><stop stop-color="#F6EC98"/><stop offset="1" stop-color="#F2D224"/></linearGradient><linearGradient id="e" x1="595.258" x2="621.612" y1="104.783" y2="103.605" gradientUnits="userSpaceOnUse"><stop stop-color="#F6EC98"/><stop offset="1" stop-color="#F2D224"/></linearGradient><linearGradient id="f" x1="17.716" x2="72.592" y1="54.303" y2="50.435" gradientUnits="userSpaceOnUse"><stop stop-color="#F6EC98"/><stop offset="1" stop-color="#F2D224"/></linearGradient><linearGradient id="g" x1="316.444" x2="317.944" y1="30.428" y2="81.587" gradientUnits="userSpaceOnUse"><stop stop-color="#F6EC98"/><stop offset=".46" stop-color="#F2D42D"/><stop offset="1" stop-color="#DDAE12"/></linearGradient><linearGradient id="h" x1="481.047" x2="487.841" y1="53.461" y2="114.41" gradientUnits="userSpaceOnUse"><stop stop-color="#F6EC98"/><stop offset=".46" stop-color="#F2D42D"/><stop offset="1" stop-color="#DDAE12"/></linearGradient><linearGradient id="i" x1="454.399" x2="457.31" y1="57.263" y2="72.623" gradientUnits="userSpaceOnUse"><stop stop-color="#875309"/><stop offset="1" stop-color="#D4A624"/></linearGradient><linearGradient id="j" x1="443.114" x2="453.117" y1="63.034" y2="83.005" gradientUnits="userSpaceOnUse"><stop stop-color="#734301"/><stop offset="1" stop-color="#B97D1C"/></linearGradient><linearGradient id="k" x1="431.46" x2="455.466" y1="70.79" y2="114.534" gradientUnits="userSpaceOnUse"><stop stop-color="#734301"/><stop offset="1" stop-color="#B97D1C"/></linearGradient><linearGradient id="l" x1="453.401" x2="456.637" y1="91.055" y2="71.39" gradientUnits="userSpaceOnUse"><stop stop-color="#764602"/><stop offset=".41" stop-color="#764602"/><stop offset="1" stop-color="#98660E"/></linearGradient><linearGradient id="m" x1="433.592" x2="447.277" y1="107.151" y2="50.869" gradientUnits="userSpaceOnUse"><stop stop-color="#F6EC98"/><stop offset="1" stop-color="#F2D224"/></linearGradient><linearGradient id="n" x1="486.521" x2="506.539" y1="68.991" y2="88.649" gradientUnits="userSpaceOnUse"><stop stop-color="#734301"/><stop offset="1" stop-color="#B97D1C"/></linearGradient><linearGradient id="o" x1="505.722" x2="507.246" y1="113.208" y2="96.675" gradientUnits="userSpaceOnUse"><stop stop-color="#764602"/><stop offset="1" stop-color="#98660E"/></linearGradient><linearGradient id="p" x1="488.262" x2="502.102" y1="107.116" y2="50.919" gradientUnits="userSpaceOnUse"><stop stop-color="#F6EC98"/><stop offset="1" stop-color="#F2D224"/></linearGradient><linearGradient id="q" x1="554.418" x2="548.698" y1="61.174" y2="111.368" gradientUnits="userSpaceOnUse"><stop stop-color="#EDD13B"/><stop offset="1" stop-color="#DAA70A"/></linearGradient><linearGradient id="r" x1="535.509" x2="550.147" y1="67.267" y2="77.576" gradientUnits="userSpaceOnUse"><stop stop-color="#734301"/><stop offset="1" stop-color="#B97D1C"/></linearGradient><linearGradient id="s" x1="555.47" x2="546.634" y1="61.577" y2="110.837" gradientUnits="userSpaceOnUse"><stop stop-color="#EDD13B"/><stop offset="1" stop-color="#DAA70A"/></linearGradient><linearGradient id="t" x1="559.867" x2="562.316" y1="94.861" y2="114.604" gradientUnits="userSpaceOnUse"><stop stop-color="#EDD13B"/><stop offset="1" stop-color="#F3D634"/></linearGradient><linearGradient id="u" x1="553.354" x2="581.829" y1="98.617" y2="62.17" gradientUnits="userSpaceOnUse"><stop stop-color="#F6EC98"/><stop offset="1" stop-color="#F2D224"/></linearGradient><linearGradient id="v" x1="529.375" x2="535.906" y1="81.913" y2="83.351" gradientUnits="userSpaceOnUse"><stop stop-color="#734301"/><stop offset="1" stop-color="#B97D1C"/></linearGradient><linearGradient id="w" x1="566.682" x2="582.48" y1="77.963" y2="84.951" gradientUnits="userSpaceOnUse"><stop stop-color="#734301"/><stop offset="1" stop-color="#B97D1C"/></linearGradient><linearGradient id="x" x1="576.555" x2="578.039" y1="113.263" y2="97.141" gradientUnits="userSpaceOnUse"><stop stop-color="#764602"/><stop offset="1" stop-color="#98660E"/></linearGradient><linearGradient id="y" x1="520.254" x2="534.602" y1="106.989" y2="51.059" gradientUnits="userSpaceOnUse"><stop stop-color="#F6EC98"/><stop offset="1" stop-color="#F2D224"/></linearGradient><linearGradient id="z" x1="528.668" x2="536.912" y1="110.667" y2="120.305" gradientUnits="userSpaceOnUse"><stop stop-color="#734301"/><stop offset="1" stop-color="#B97D1C"/></linearGradient><linearGradient id="A" x1="576.56" x2="567.87" y1="111.019" y2="119.851" gradientUnits="userSpaceOnUse"><stop stop-color="#734301"/><stop offset="1" stop-color="#B97D1C"/></linearGradient><linearGradient id="B" x1="535.245" x2="572.704" y1="59.814" y2="111.019" gradientUnits="userSpaceOnUse"><stop stop-color="#FEF8C2"/><stop offset=".59" stop-color="#F4DC50"/><stop offset="1" stop-color="#B97D1C"/></linearGradient><linearGradient id="C" x1="496.877" x2="505.036" y1="110.469" y2="120.561" gradientUnits="userSpaceOnUse"><stop stop-color="#734301"/><stop offset="1" stop-color="#B97D1C"/></linearGradient><linearGradient id="D" x1="442.123" x2="450.033" y1="110.503" y2="120.51" gradientUnits="userSpaceOnUse"><stop stop-color="#734301"/><stop offset="1" stop-color="#B97D1C"/></linearGradient><linearGradient id="E" x1="437.371" x2="474.307" y1="43.272" y2="63.666" gradientUnits="userSpaceOnUse"><stop stop-color="#F6EC98"/><stop offset=".63" stop-color="#F2D42D"/><stop offset="1" stop-color="#B97D1C"/></linearGradient><linearGradient id="F" x1="385.523" x2="401.169" y1="67.631" y2="79.777" gradientUnits="userSpaceOnUse"><stop stop-color="#734301"/><stop offset="1" stop-color="#B97D1C"/></linearGradient><linearGradient id="G" x1="399.176" x2="412.625" y1="56.837" y2="73.503" gradientUnits="userSpaceOnUse"><stop stop-color="#764602"/><stop offset="1" stop-color="#98660E"/></linearGradient><linearGradient id="H" x1="404.766" x2="409.967" y1="97.717" y2="115.235" gradientUnits="userSpaceOnUse"><stop stop-color="#AE7417"/><stop offset="1" stop-color="#764602"/></linearGradient><linearGradient id="I" x1="393.014" x2="416.079" y1="58.139" y2="102.81" gradientUnits="userSpaceOnUse"><stop stop-color="#F6EC98"/><stop offset=".46" stop-color="#F2D42D"/><stop offset="1" stop-color="#DDAE12"/></linearGradient><linearGradient id="J" x1="408.048" x2="397.754" y1="111.229" y2="90.92" gradientUnits="userSpaceOnUse"><stop stop-color="#F6EC98"/><stop offset=".46" stop-color="#F2D42D"/><stop offset="1" stop-color="#DDAE12"/></linearGradient><linearGradient id="K" x1="417.888" x2="426.446" y1="54.957" y2="65.1" gradientUnits="userSpaceOnUse"><stop stop-color="#734301"/><stop offset="1" stop-color="#B97D1C"/></linearGradient><linearGradient id="L" x1="441.805" x2="464.893" y1="60.186" y2="114.042" gradientUnits="userSpaceOnUse"><stop stop-color="#FEF8C2"/><stop offset=".59" stop-color="#F4DC50"/><stop offset="1" stop-color="#B97D1C"/></linearGradient><linearGradient id="M" x1="487.502" x2="518.081" y1="64.333" y2="105.186" gradientUnits="userSpaceOnUse"><stop stop-color="#FEF8C2"/><stop offset=".59" stop-color="#F4DC50"/><stop offset="1" stop-color="#B97D1C"/></linearGradient><linearGradient id="N" x1="332.184" x2="326.463" y1="61.174" y2="111.368" gradientUnits="userSpaceOnUse"><stop stop-color="#EDD13B"/><stop offset="1" stop-color="#DAA70A"/></linearGradient><linearGradient id="O" x1="313.274" x2="327.913" y1="67.267" y2="77.576" gradientUnits="userSpaceOnUse"><stop stop-color="#734301"/><stop offset="1" stop-color="#B97D1C"/></linearGradient><linearGradient id="P" x1="333.236" x2="324.399" y1="61.573" y2="110.829" gradientUnits="userSpaceOnUse"><stop stop-color="#EDD13B"/><stop offset="1" stop-color="#DAA70A"/></linearGradient><linearGradient id="Q" x1="337.628" x2="340.078" y1="94.857" y2="114.604" gradientUnits="userSpaceOnUse"><stop stop-color="#EDD13B"/><stop offset="1" stop-color="#F3D634"/></linearGradient><linearGradient id="R" x1="331.124" x2="359.599" y1="98.613" y2="62.17" gradientUnits="userSpaceOnUse"><stop stop-color="#F6EC98"/><stop offset="1" stop-color="#F2D224"/></linearGradient><linearGradient id="S" x1="307.141" x2="313.675" y1="81.913" y2="83.351" gradientUnits="userSpaceOnUse"><stop stop-color="#734301"/><stop offset="1" stop-color="#B97D1C"/></linearGradient><linearGradient id="T" x1="344.452" x2="360.245" y1="77.963" y2="84.951" gradientUnits="userSpaceOnUse"><stop stop-color="#734301"/><stop offset="1" stop-color="#B97D1C"/></linearGradient><linearGradient id="U" x1="354.325" x2="355.805" y1="113.263" y2="97.141" gradientUnits="userSpaceOnUse"><stop stop-color="#764602"/><stop offset="1" stop-color="#98660E"/></linearGradient><linearGradient id="V" x1="298.016" x2="312.367" y1="106.989" y2="51.059" gradientUnits="userSpaceOnUse"><stop stop-color="#F6EC98"/><stop offset="1" stop-color="#F2D224"/></linearGradient><linearGradient id="W" x1="65.418" x2="97.02" y1="60.135" y2="105.058" gradientUnits="userSpaceOnUse"><stop stop-color="#F7E158"/><stop offset="1" stop-color="#98660E"/></linearGradient><linearGradient id="X" x1="101.641" x2="86.607" y1="109.454" y2="89.595" gradientUnits="userSpaceOnUse"><stop stop-color="#B97D1C"/><stop offset=".21" stop-color="#744401"/><stop offset=".41" stop-color="#764602"/><stop offset="1" stop-color="#98660E"/></linearGradient><linearGradient id="Y" x1="100.148" x2="62.298" y1="102.194" y2="63.054" gradientUnits="userSpaceOnUse"><stop stop-color="#F7E158"/><stop offset="1" stop-color="#98660E"/></linearGradient><linearGradient id="Z" x1="64.171" x2="75.856" y1="62.759" y2="76.088" gradientUnits="userSpaceOnUse"><stop stop-color="#734301"/><stop offset="1" stop-color="#B97D1C"/></linearGradient><linearGradient id="aa" x1="231.821" x2="246.548" y1="69.363" y2="79.921" gradientUnits="userSpaceOnUse"><stop stop-color="#734301"/><stop offset="1" stop-color="#B97D1C"/></linearGradient><linearGradient id="ab" x1="253.193" x2="253.631" y1="96.249" y2="87.303" gradientUnits="userSpaceOnUse"><stop stop-color="#764602"/><stop offset="1" stop-color="#98660E"/></linearGradient><linearGradient id="ac" x1="284.801" x2="274.538" y1="61.821" y2="110.504" gradientUnits="userSpaceOnUse"><stop stop-color="#EDD13B"/><stop offset="1" stop-color="#DAA70A"/></linearGradient><linearGradient id="ad" x1="263.618" x2="277.431" y1="71.58" y2="79.987" gradientUnits="userSpaceOnUse"><stop stop-color="#734301"/><stop offset="1" stop-color="#B97D1C"/></linearGradient><linearGradient id="ae" x1="231.821" x2="262.613" y1="110.077" y2="50.245" gradientUnits="userSpaceOnUse"><stop stop-color="#F6EC98"/><stop offset="1" stop-color="#F2D224"/></linearGradient><linearGradient id="af" x1="243.893" x2="241.657" y1="106.864" y2="114.05" gradientUnits="userSpaceOnUse"><stop stop-color="#734301"/><stop offset="1" stop-color="#B97D1C"/></linearGradient><linearGradient id="ag" x1="282.315" x2="294.287" y1="111.817" y2="118.429" gradientUnits="userSpaceOnUse"><stop stop-color="#734301"/><stop offset="1" stop-color="#B97D1C"/></linearGradient><linearGradient id="ah" x1="260.602" x2="292.538" y1="98.717" y2="87.877" gradientUnits="userSpaceOnUse"><stop stop-color="#F6EC98"/><stop offset="1" stop-color="#F2D224"/></linearGradient><linearGradient id="ai" x1="269.031" x2="270.024" y1="102.051" y2="95.373" gradientUnits="userSpaceOnUse"><stop stop-color="#734301"/><stop offset="1" stop-color="#B97D1C"/></linearGradient><linearGradient id="aj" x1="286.325" x2="286.387" y1="102.33" y2="99.047" gradientUnits="userSpaceOnUse"><stop stop-color="#764602"/><stop offset="1" stop-color="#98660E"/></linearGradient><linearGradient id="ak" x1="306.434" x2="314.677" y1="110.667" y2="120.305" gradientUnits="userSpaceOnUse"><stop stop-color="#734301"/><stop offset="1" stop-color="#B97D1C"/></linearGradient><linearGradient id="al" x1="354.325" x2="345.636" y1="111.019" y2="119.851" gradientUnits="userSpaceOnUse"><stop stop-color="#734301"/><stop offset="1" stop-color="#B97D1C"/></linearGradient><linearGradient id="am" x1="240.24" x2="278.048" y1="63.468" y2="113.294" gradientUnits="userSpaceOnUse"><stop stop-color="#FEF8C2"/><stop offset=".59" stop-color="#F4DC50"/><stop offset="1" stop-color="#B97D1C"/></linearGradient><linearGradient id="an" x1="313.011" x2="350.469" y1="59.814" y2="111.019" gradientUnits="userSpaceOnUse"><stop stop-color="#FEF8C2"/><stop offset=".59" stop-color="#F4DC50"/><stop offset="1" stop-color="#B97D1C"/></linearGradient><linearGradient id="ao" x1="139.348" x2="160.85" y1="56.252" y2="109.322" gradientUnits="userSpaceOnUse"><stop stop-color="#F6EC98"/><stop offset=".46" stop-color="#F2D42D"/><stop offset="1" stop-color="#DDAE12"/></linearGradient><linearGradient id="ap" x1="140.96" x2="159.66" y1="89.641" y2="110.872" gradientUnits="userSpaceOnUse"><stop stop-color="#C39E30"/><stop offset="1" stop-color="#92600C"/></linearGradient><linearGradient id="aq" x1="135.675" x2="149.155" y1="63.828" y2="77.385" gradientUnits="userSpaceOnUse"><stop stop-color="#734301"/><stop offset="1" stop-color="#B97D1C"/></linearGradient><linearGradient id="ar" x1="137.699" x2="168.616" y1="90.954" y2="107.442" gradientUnits="userSpaceOnUse"><stop stop-color="#B97D1C"/><stop offset="1" stop-color="#EAD04E"/></linearGradient><linearGradient id="as" x1="166.584" x2="175.824" y1="55.643" y2="66.185" gradientUnits="userSpaceOnUse"><stop stop-color="#734301"/><stop offset="1" stop-color="#B97D1C"/></linearGradient><linearGradient id="at" x1="166.508" x2="172.806" y1="106.903" y2="103.194" gradientUnits="userSpaceOnUse"><stop stop-color="#734301"/><stop offset="1" stop-color="#B97D1C"/></linearGradient><linearGradient id="au" x1="135.112" x2="169.877" y1="63.778" y2="103.442" gradientUnits="userSpaceOnUse"><stop stop-color="#FEF8C2"/><stop offset=".59" stop-color="#F4DC50"/><stop offset="1" stop-color="#B97D1C"/></linearGradient><linearGradient id="av" x1="191.947" x2="199.013" y1="80.583" y2="82.583" gradientUnits="userSpaceOnUse"><stop stop-color="#734301"/><stop offset="1" stop-color="#B97D1C"/></linearGradient><linearGradient id="aw" x1="211.337" x2="213.146" y1="54.798" y2="60.391" gradientUnits="userSpaceOnUse"><stop stop-color="#734301"/><stop offset="1" stop-color="#B97D1C"/></linearGradient><linearGradient id="ax" x1="204.672" x2="211.547" y1="109.337" y2="121.231" gradientUnits="userSpaceOnUse"><stop stop-color="#734301"/><stop offset="1" stop-color="#B97D1C"/></linearGradient><linearGradient id="ay" x1="204.701" x2="231.323" y1="105.473" y2="101.76" gradientUnits="userSpaceOnUse"><stop stop-color="#F6EC98"/><stop offset="1" stop-color="#F2D224"/></linearGradient><linearGradient id="az" x1="197.94" x2="176.031" y1="65.674" y2="103.985" gradientUnits="userSpaceOnUse"><stop stop-color="#EDD13B"/><stop offset="1" stop-color="#DAA70A"/></linearGradient><linearGradient id="aA" x1="220.298" x2="227.879" y1="56.477" y2="59.38" gradientUnits="userSpaceOnUse"><stop stop-color="#734301"/><stop offset="1" stop-color="#B97D1C"/></linearGradient><linearGradient id="aB" x1="222.73" x2="229.144" y1="108.011" y2="104.686" gradientUnits="userSpaceOnUse"><stop stop-color="#734301"/><stop offset="1" stop-color="#B97D1C"/></linearGradient><linearGradient id="aC" x1="192.398" x2="229.286" y1="59.732" y2="98.9" gradientUnits="userSpaceOnUse"><stop stop-color="#FEF8C2"/><stop offset=".59" stop-color="#F4DC50"/><stop offset="1" stop-color="#B97D1C"/></linearGradient><linearGradient id="aD" x1="197.139" x2="200.317" y1="84.529" y2="72.933" gradientUnits="userSpaceOnUse"><stop stop-color="#F6EC98"/><stop offset="1" stop-color="#F2D224"/></linearGradient><linearGradient id="aE" x1="198.046" x2="196.6" y1="80.576" y2="92.269" gradientUnits="userSpaceOnUse"><stop stop-color="#734301"/><stop offset="1" stop-color="#B97D1C"/></linearGradient><linearGradient id="aF" x1="198.55" x2="200.034" y1="81.998" y2="96.78" gradientUnits="userSpaceOnUse"><stop stop-color="#764602"/><stop offset="1" stop-color="#98660E"/></linearGradient><linearGradient id="aG" x1="364.091" x2="346.585" y1="41.31" y2="29.827" gradientUnits="userSpaceOnUse"><stop stop-color="#734301"/><stop offset="1" stop-color="#B97D1C"/></linearGradient><linearGradient id="aH" x1="351.435" x2="353.396" y1="38.133" y2="30.029" gradientUnits="userSpaceOnUse"><stop stop-color="#F6EC98"/><stop offset=".46" stop-color="#F2D42D"/><stop offset="1" stop-color="#DDAE12"/></linearGradient><linearGradient id="aI" x1="340.79" x2="306.273" y1="31.079" y2="20.634" gradientUnits="userSpaceOnUse"><stop stop-color="#734301"/><stop offset="1" stop-color="#B97D1C"/></linearGradient><linearGradient id="aJ" x1="316.44" x2="318.556" y1="39.908" y2="18.727" gradientUnits="userSpaceOnUse"><stop stop-color="#F6EC98"/><stop offset=".46" stop-color="#F2D42D"/><stop offset="1" stop-color="#DDAE12"/></linearGradient><linearGradient id="aK" x1="319.425" x2="316.321" y1="10.456" y2="40.508" gradientUnits="userSpaceOnUse"><stop stop-color="#127FAA"/><stop offset="1" stop-color="#51E7F7"/></linearGradient><linearGradient id="aL" x1="317.262" x2="324.075" y1="13.685" y2="13.685" gradientUnits="userSpaceOnUse"><stop stop-color="#3CD8EE"/><stop offset="1" stop-color="#28A7C1"/></linearGradient><linearGradient id="aM" x1="314.614" x2="327.725" y1="36.451" y2="21.817" gradientUnits="userSpaceOnUse"><stop stop-color="#0A789D"/><stop offset="1" stop-color="#50E7F2"/></linearGradient><linearGradient id="aN" x1="313.848" x2="307.728" y1="23.157" y2="35.936" gradientUnits="userSpaceOnUse"><stop stop-color="#42CBE7"/><stop offset="1" stop-color="#1172A1"/></linearGradient><linearGradient id="aO" x1="301.426" x2="318.006" y1="32.475" y2="32.475" gradientUnits="userSpaceOnUse"><stop stop-color="#4FE7F7"/><stop offset="1" stop-color="#F1FBFD"/></linearGradient><linearGradient id="aP" x1="316.585" x2="319.507" y1="32.525" y2="15.41" gradientUnits="userSpaceOnUse"><stop stop-color="#077DA1"/><stop offset="1" stop-color="#1FE6F6"/></linearGradient><linearGradient id="aQ" x1="318.773" x2="317.281" y1="14.704" y2="33.249" gradientUnits="userSpaceOnUse"><stop stop-color="#4FE7F7"/><stop offset="1" stop-color="#F1FBFD"/></linearGradient><linearGradient id="aR" x1="317.943" x2="318.086" y1="40.73" y2="33.416" gradientUnits="userSpaceOnUse"><stop stop-color="#4FE7F7"/><stop offset="1" stop-color="#F1FBFD"/></linearGradient><linearGradient id="aS" x1="294.978" x2="277.471" y1="41.295" y2="29.811" gradientUnits="userSpaceOnUse"><stop stop-color="#734301"/><stop offset="1" stop-color="#B97D1C"/></linearGradient><linearGradient id="aT" x1="282.388" x2="284.353" y1="38.133" y2="30.029" gradientUnits="userSpaceOnUse"><stop stop-color="#F6EC98"/><stop offset=".46" stop-color="#F2D42D"/><stop offset="1" stop-color="#DDAE12"/></linearGradient><linearGradient id="aU" x1="321.443" x2="318.21" y1="46.76" y2="24.176" gradientUnits="userSpaceOnUse"><stop stop-color="#734301"/><stop offset="1" stop-color="#B97D1C"/></linearGradient><linearGradient id="aV" x1="316.197" x2="317.751" y1="40.032" y2="26.847" gradientUnits="userSpaceOnUse"><stop stop-color="#F6EC98"/><stop offset=".46" stop-color="#F2D42D"/><stop offset="1" stop-color="#DDAE12"/></linearGradient></defs></svg>
