<svg viewBox="0 0 24 24" xmlns="http://www.w3.org/2000/svg"><path d="M21.57 4.27h-1.6a2.83 2.83 0 0 0-1.3-4.02 2.8 2.8 0 0 0-3.07.5l-2.02 1.83a2.15 2.15 0 0 0-3.18 0L8.38.74A2.81 2.81 0 0 0 5.32.25a2.83 2.83 0 0 0-1.68 2.92c.04.4.18.77.4 1.1h-1.6c-.8 0-1.44.65-1.44 1.44v2.16c0 .4.32.72.72.72h20.56c.4 0 .72-.33.72-.72V5.7c0-.8-.64-1.44-1.43-1.44ZM9.85 4.03v.24H6.47a1.42 1.42 0 0 1-.6-2.7 1.39 1.39 0 0 1 1.55.24l2.43 2.2v.02Zm9.08-1.06c-.05.75-.73 1.3-1.47 1.3h-3.3v-.26l2.38-2.17c.37-.33.88-.49 1.36-.35.68.2 1.08.79 1.03 1.48Zm-16.5 7.05v10.54c0 .8.65 1.44 1.44 1.44h6.7V10.02H2.43Zm11 0V22h6.7c.8 0 1.44-.64 1.44-1.44V10.02h-8.14Z"/></svg>