<svg viewBox="0 0 32 32" xmlns="http://www.w3.org/2000/svg"><path d="M28.866 8.225c-.56.773-1.097 1.523-1.644 2.266-.25.34-.498.69-.787.998-.45.48-.885.537-1.483.264-.238-.109-.486-.198-.72-.315-.29-.144-.481-.093-.634.207-.28.55-.597 1.084-.883 1.632-.377.725-1.046.983-1.815.688-.408-.156-.816-.314-1.232-.444-.111-.035-.291-.015-.377.055-1.13.916-2.226 1.879-2.944 3.157-.313.556-.562 1.191-.65 1.816-.15 1.054.222 1.341 1.12 1.6.835.24 1.575-.018 2.215-.583.122-.107.241-.223.379-.308.508-.314.954-.164 1.19.44.192-.187.376-.348.54-.527.704-.766 1.452-1.476 2.422-1.909.12-.053.24-.107.366-.143.527-.149.882.076.973.61.065.377.24.495.542.267.284-.214.51-.522.707-.824.23-.352.369-.764.602-1.113.53-.796 1.314-.808 1.914-.061.377.467.55 1.008.587 1.592a5.298 5.298 0 0 1-.321 2.232c-.689 1.835-1.964 3.209-3.467 4.403-2.007 1.595-4.325 2.603-6.733 3.43-1.983.681-4.011 1.165-6.109 1.307-2.467.168-4.832-.208-6.98-1.489-1.379-.823-2.615-1.818-3.421-3.246-.754-1.334-1.094-2.784-1.188-4.291-.14-2.247.123-4.436 1.068-6.513.815-1.79 1.939-3.368 3.327-4.758 2.14-2.144 4.61-3.822 7.43-4.966C15.528 2.616 18.308 1.986 21.197 2c2.584.013 5.085.533 7.445 1.608.699.318 1.365.721 1.81 1.362.229.33.433.723.49 1.11.084.581.065 1.185.018 1.774-.035.444-.318.755-.789.84-.468.086-.895.024-1.209-.38-.019-.025-.046-.043-.096-.088v-.001Z"/></svg>