<svg xmlns="http://www.w3.org/2000/svg" viewBox="0 0 24 24"><path fill-rule="evenodd" d="M5.321 2.018a1.498 1.498 0 0 0-1.498 1.498V16.1a.78.78 0 0 0 .78.78h13.223a.78.78 0 0 0 .779-.78v-2.87a.779.779 0 0 1 .78-.778h1.919a.78.78 0 0 0 .779-.78V5.328a.702.702 0 0 0-.702-.702h-.34a.697.697 0 0 0-.697.697v4.715a.674.674 0 0 1-.675.675h-.343a.721.721 0 0 1-.721-.722v-6.56a1.414 1.414 0 0 0-1.414-1.413H5.32Zm.698 5.217a.456.456 0 0 0-.457.456v3.435c0 .252.205.456.457.456h1.695a.456.456 0 0 0 .457-.456V7.69a.456.456 0 0 0-.457-.456H6.02Zm6.043 0c.252 0 .456.204.456.456v3.435a.457.457 0 0 1-.456.456h-1.696a.457.457 0 0 1-.456-.456V7.69c0-.252.204-.456.456-.456h1.696Zm2.652 0a.457.457 0 0 0-.457.456v3.435c0 .252.205.456.457.456h1.695a.456.456 0 0 0 .457-.456V7.69a.456.456 0 0 0-.457-.456h-1.695Z" clip-rule="evenodd"/><path d="M1.671 18.29h19.086c.252 0 .456.204.456.456v1.319a.456.456 0 0 1-.456.456H1.67a.456.456 0 0 1-.456-.456v-1.319c0-.252.204-.456.456-.456Z"/></svg>