<svg viewBox="0 0 24 24" xmlns="http://www.w3.org/2000/svg"><path d="m13.652 8.063 1.744.254c.252.036.309.213.128.392L14.262 9.94a1 1 0 0 0-.254.785l.298 1.739c.043.253-.107.362-.333.242l-1.56-.82a.994.994 0 0 0-.824 0l-1.56.82c-.226.12-.377.01-.333-.242l.298-1.739a.999.999 0 0 0-.255-.785L8.478 8.71c-.184-.179-.126-.356.128-.392l1.742-.254a.999.999 0 0 0 .667-.485l.78-1.582c.112-.23.298-.23.411 0l.78 1.582c.113.23.414.448.666.485Z"/><path fill-rule="evenodd" clip-rule="evenodd" d="M20.312 10.239c-.196-.448-.196-1.178 0-1.627l.61-1.395a1.026 1.026 0 0 0-.41-1.26l-1.31-.768c-.422-.247-.85-.839-.954-1.315l-.325-1.488a1.023 1.023 0 0 0-1.07-.779l-1.512.151c-.484.049-1.18-.177-1.544-.502L12.662.243a1.022 1.022 0 0 0-1.323 0l-1.135 1.012c-.364.325-1.06.55-1.543.503l-1.513-.15a1.024 1.024 0 0 0-1.07.78l-.324 1.486c-.105.477-.533 1.07-.954 1.315l-1.311.768a1.027 1.027 0 0 0-.41 1.262l.61 1.393c.195.447.196 1.177 0 1.626l-.61 1.395a1.025 1.025 0 0 0 .41 1.26l1.31.767c.42.248.85.84.955 1.315l.324 1.488c.105.477.586.828 1.071.779l1.51-.151c.486-.048 1.18.178 1.543.502l1.137 1.012c.363.325.96.325 1.323 0l1.135-1.01c.363-.325 1.057-.551 1.542-.504l1.513.151c.485.048.966-.303 1.07-.78l.324-1.486c.104-.476.534-1.069.953-1.314l1.313-.77c.42-.247.605-.813.409-1.26l-.61-1.393ZM12 14.925a5.496 5.496 0 0 1-5.492-5.5A5.498 5.498 0 0 1 12 3.923a5.496 5.496 0 0 1 5.492 5.501c0 3.039-2.458 5.5-5.492 5.5Z"/><path d="m7.24 18.17 1.556-.153c.271 0 .646.147.788.272l1.075.96-1.57 4.32a.653.653 0 0 1-1.214.035l-.74-1.71-1.662.835a.653.653 0 0 1-.728-.098.656.656 0 0 1-.18-.712l1.471-4.049a1.905 1.905 0 0 0 1.204.3Zm9.702.01c.367 0 .718-.117 1.02-.308l1.472 4.049a.655.655 0 0 1-.908.81l-1.662-.835-.74 1.71a.653.653 0 0 1-1.215-.036l-1.569-4.32 1.075-.96c.141-.124.511-.27.826-.27l1.518.15c.061.006.122.01.183.01Z"/></svg>