<svg viewBox="0 0 24 24" xmlns="http://www.w3.org/2000/svg"><path d="M20.956 3.286h-1.264c.018-.39.038-.78.038-1.18 0-.39-.143-.779-.4-1.064-.256-.285-.599-.457-.97-.457H5.64c-.371 0-.723.172-.98.457a1.603 1.603 0 0 0-.39 1.065c0 .399.02.789.039 1.179H3.044A2.047 2.047 0 0 0 1 5.33v1.397a6.622 6.622 0 0 0 6.037 6.598c.954 2.534 2.177 3.683 3.537 4.14l-.704 4.047H8.065a.95.95 0 1 0 0 1.902h7.87a.95.95 0 1 0 0-1.902H14.13l-.704-4.046c1.36-.389 2.655-1.85 3.68-4.378C20.5 12.165 23 9.066 23 5.387V5.33a2.047 2.047 0 0 0-2.044-2.044Zm-7.758 2.196 1.179.17a.743.743 0 0 1 .599.505.754.754 0 0 1-.19.76l-.856.837.2 1.17a.765.765 0 0 1-.286.731c-.251.162-.532.198-.789.048L12 9.152l-1.055.551a.742.742 0 0 1-.78-.048.752.752 0 0 1-.295-.732l.2-1.179-.856-.827a.754.754 0 0 1-.19-.76.756.756 0 0 1 .6-.504l1.178-.171.533-1.075A.744.744 0 0 1 12 4c.285 0 .542.152.665.408l.533 1.075ZM2.9 6.727V5.33c0-.076.067-.143.143-.143H4.46c.247 2.244.76 4.26 1.454 5.952A4.74 4.74 0 0 1 2.9 6.727Zm18.2-1.34c0 2.12-1.103 3.993-2.758 5.086.57-1.55.98-3.337 1.198-5.286h1.417c.076 0 .143.067.143.143v.057Z"/></svg>