<svg xmlns="http://www.w3.org/2000/svg" width="372" height="320" fill="none"><path fill="url(#a)" fill-rule="evenodd" d="M0 4.751 5.5.329h361L372 4.75V315.906l-5.5 4.423H5.5L0 315.906V4.751ZM369 249.32V17.328l-2.625-3.978V8.928L363.75 5.98V4.137l-.75-.808H9l-.75.808V5.98L5.625 8.928v4.422L3 17.328V303.33l2.625 3.978v4.422l2.625 2.949v1.842l.75.809h354l.75-.809v-1.842l2.625-2.949v-4.422l2.625-3.978V249.32Z" clip-rule="evenodd"/><path fill="url(#b)" d="M0 3.329h3v314H0z" opacity=".6"/><path fill="url(#c)" d="M0 0h1.532v314H0z" opacity=".6" transform="matrix(-1 0 0 1 372 3.329)"/><path fill="url(#d)" d="M372 36.329V4.64L366.5.329H359v3h3l1 1v2l2.375 2.562v4.5l3.625 4.5V36.33h3Z"/><path fill="url(#e)" d="m370 18.829-1-1.5v17l1-3v-12.5Z"/><path fill="url(#f)" d="M369.19 22.475c0-4.23 2.06-2.523 2.81-2.146l-3-2v12c.094-1.036.19-4.229.19-7.854Z"/><path fill="url(#g)" d="m365.375 13.579 2.125.75 4.5 6-3-2-3.625-4.75Z"/><path fill="#FFF7CD" d="m372 20.329-4.5-6v-11l.438 10.5 4.062 6.5Z" opacity=".6"/><path fill="url(#h)" d="M367.5 14.329v-11l-1.938-1.563-.093.75-.094.75v2.531l.75 1.407v2.25l-.75-.36v4.485l2.125.75Z"/><path fill="url(#i)" d="M364 2.329v-.563h1.562l-.093.75L364 2.33Z"/><path fill="url(#j)" d="m364.625 5.141.75.656.75 1.407-1.5-1.5V4.579v.562Z"/><path fill="url(#k)" d="M366.125 9.454 363 6.329v-2l3.125 3v2.125Z"/><path fill="url(#l)" d="M363 6.329h.375l2.75 3.125-.75-.375L363 6.329Z"/><g filter="url(#m)"><path fill="url(#n)" fill-rule="evenodd" d="M366.906 3.641v3.563l-2.281-2.063v-1.5L364 2.33h1.5l1.406 1.312Z" clip-rule="evenodd"/></g><path fill="url(#o)" d="M363.375 6.329H363v-2l-1-1v-.5l1.375 1.312V6.33Z"/><path fill="#AE7811" d="M372 4.636v5.693l-.5-6.068.5.375Z"/><path fill="url(#p)" d="M372 284.329v31.687l-5.5 4.313H359v-3h3l1-1v-2l2.375-2.563v-4.5l3.625-4.5v-18.437h3Z"/><path fill="url(#q)" d="m370 301.829-1 1.5v-17l1 3v12.5Z"/><path fill="url(#r)" d="M369.19 298.182c0 4.23 2.06 2.524 2.81 2.147l-3 1.999v-12c.094 1.037.19 4.229.19 7.854Z"/><path fill="url(#s)" d="m365.375 307.079 2.125-.75 4.5-6-3 2-3.625 4.75Z"/><path fill="#FFF7CD" d="m372 300.329-4.5 6v11l.438-10.5 4.062-6.5Z" opacity=".6"/><path fill="url(#t)" d="M367.5 306.329v11l-1.938 1.562-.093-.75-.094-.75v-2.531l.75-1.406v-2.25l-.75.36v-4.485l2.125-.75Z"/><path fill="url(#u)" d="M364 318.329v.562h1.562l-.093-.75-1.469.188Z"/><path fill="url(#v)" d="m364.625 315.516.75-.656.75-1.406-1.5 1.5v1.125-.563Z"/><path fill="url(#w)" d="M366.125 311.204 363 314.329v2l3.125-3v-2.125Z"/><path fill="url(#x)" d="M363 314.329h.375l2.75-3.125-.75.375-2.375 2.75Z"/><g filter="url(#y)"><path fill="url(#z)" fill-rule="evenodd" d="M366.906 317.016v-3.562l-2.281 2.062v1.5l-.625 1.313h1.5l1.406-1.313Z" clip-rule="evenodd"/></g><path fill="url(#A)" d="M363.375 314.329H363v2l-1 1v.5l1.375-1.313v-2.187Z"/><path fill="#AE7811" d="M372 316.021v-5.692l-.5 6.067.5-.375Z"/><path fill="url(#B)" d="M0 284.329v31.687l5.5 4.313H13v-3h-3l-1-1v-2l-2.375-2.563v-4.5L3 302.766v-18.437H0Z"/><path fill="url(#C)" d="m2 301.829 1 1.5v-17l-1 3v12.5Z"/><path fill="url(#D)" d="M2.81 298.182c0 4.23-2.06 2.524-2.81 2.147l3 1.999v-12c-.094 1.037-.19 4.229-.19 7.854Z"/><path fill="url(#E)" d="m6.625 307.079-2.125-.75-4.5-6 3 2 3.625 4.75Z"/><path fill="#FFF7CD" d="m0 300.329 4.5 6v11l-.438-10.5-4.062-6.5Z" opacity=".6"/><path fill="url(#F)" d="M4.5 306.329v11l1.938 1.562.093-.75.094-.75v-2.531l-.75-1.406v-2.25l.75.36v-4.485l-2.125-.75Z"/><path fill="url(#G)" d="M8 318.329v.562H6.437l.094-.75 1.469.188Z"/><path fill="url(#H)" d="m7.375 315.516-.75-.656-.75-1.406 1.5 1.5v1.125-.563Z"/><path fill="url(#I)" d="M5.875 311.204 9 314.329v2l-3.125-3v-2.125Z"/><path fill="url(#J)" d="M9 314.329h-.375l-2.75-3.125.75.375L9 314.329Z"/><g filter="url(#K)"><path fill="url(#L)" fill-rule="evenodd" d="M5.094 317.016v-3.562l2.28 2.062v1.5L8 318.329H6.5l-1.406-1.313Z" clip-rule="evenodd"/></g><path fill="url(#M)" d="M8.625 314.329H9v2l1 1v.5l-1.375-1.313v-2.187Z"/><path fill="#AE7811" d="M0 316.021v-5.692l.5 6.067-.5-.375Z"/><path fill="url(#N)" d="M0 36.329V4.64L5.5.329H13v3h-3l-1 1v2L6.625 8.89v4.5L3 17.89V36.33H0Z"/><path fill="url(#O)" d="m2 18.829 1-1.5v17l-1-3v-12.5Z"/><path fill="url(#P)" d="M2.81 22.475c0-4.23-2.06-2.523-2.81-2.146l3-2v12c-.094-1.036-.19-4.229-.19-7.854Z"/><path fill="url(#Q)" d="m6.625 13.579-2.125.75-4.5 6 3-2 3.625-4.75Z"/><path fill="#FFF7CD" d="m0 20.329 4.5-6v-11l-.438 10.5L0 20.329Z" opacity=".6"/><path fill="url(#R)" d="M4.5 14.329v-11l1.938-1.563.093.75.094.75v2.531l-.75 1.407v2.25l.75-.36v4.485l-2.125.75Z"/><path fill="url(#S)" d="M8 2.329v-.563H6.437l.094.75L8 2.33Z"/><path fill="url(#T)" d="m7.375 5.141-.75.656-.75 1.407 1.5-1.5V4.579v.562Z"/><path fill="url(#U)" d="M5.875 9.454 9 6.329v-2l-3.125 3v2.125Z"/><path fill="url(#V)" d="M9 6.329h-.375l-2.75 3.125.75-.375L9 6.329Z"/><g filter="url(#W)"><path fill="url(#X)" fill-rule="evenodd" d="M5.094 3.641v3.563l2.28-2.063v-1.5L8 2.33H6.5L5.094 3.64Z" clip-rule="evenodd"/></g><path fill="url(#Y)" d="M8.625 6.329H9v-2l1-1v-.5L8.625 4.14V6.33Z"/><path fill="#AE7811" d="M0 4.636v5.693L.5 4.26l-.5.375Z"/><defs><linearGradient id="a" x1="372" x2="0" y1="166.587" y2="166.587" gradientUnits="userSpaceOnUse"><stop stop-color="#C89228"/><stop offset=".25" stop-color="#FFF48F"/><stop offset=".5" stop-color="#F2B84B"/><stop offset=".75" stop-color="#FFF48F"/><stop offset="1" stop-color="#C89228"/></linearGradient><linearGradient id="d" x1="371.5" x2="350" y1="32.829" y2="18.329" gradientUnits="userSpaceOnUse"><stop stop-color="#FFEF5C" stop-opacity="0"/><stop offset=".274" stop-color="#C89329"/><stop offset=".542" stop-color="#E6BD3A"/><stop offset=".713" stop-color="#BF820B"/><stop offset=".849" stop-color="#B87B1C"/><stop offset=".967" stop-color="#DCA03E"/><stop offset="1" stop-color="#DCA03E" stop-opacity="0"/></linearGradient><linearGradient id="e" x1="369.167" x2="370.649" y1="34.829" y2="21.98" gradientUnits="userSpaceOnUse"><stop stop-color="#B97B1D" stop-opacity="0"/><stop offset=".239" stop-color="#BC7F1F" stop-opacity=".171"/><stop offset=".463" stop-color="#BE8321" stop-opacity=".332"/><stop offset="1" stop-color="#C99329"/></linearGradient><linearGradient id="f" x1="370.499" x2="370.5" y1="30.862" y2="18.329" gradientUnits="userSpaceOnUse"><stop stop-color="#A86808"/><stop offset="1" stop-color="#985D06"/></linearGradient><linearGradient id="g" x1="369.312" x2="365.937" y1="19.204" y2="13.766" gradientUnits="userSpaceOnUse"><stop stop-color="#BD8122"/><stop offset="1" stop-color="#FFF7CD"/></linearGradient><linearGradient id="h" x1="365.281" x2="365" y1="15.266" y2="1.329" gradientUnits="userSpaceOnUse"><stop stop-color="#9A5D01"/><stop offset="1" stop-color="#9A6613"/></linearGradient><linearGradient id="i" x1="365.281" x2="365" y1="15.266" y2="1.329" gradientUnits="userSpaceOnUse"><stop stop-color="#9A5D01"/><stop offset="1" stop-color="#9A6613"/></linearGradient><linearGradient id="j" x1="365.281" x2="365" y1="15.266" y2="1.329" gradientUnits="userSpaceOnUse"><stop stop-color="#9A5D01"/><stop offset="1" stop-color="#9A6613"/></linearGradient><linearGradient id="k" x1="364.5" x2="365.5" y1="7.829" y2="6.829" gradientUnits="userSpaceOnUse"><stop stop-color="#E8CC60"/><stop offset="1" stop-color="#E8CC60" stop-opacity="0"/></linearGradient><linearGradient id="l" x1="364" x2="365.5" y1="6.829" y2="8.829" gradientUnits="userSpaceOnUse"><stop stop-color="#FFF7CD"/><stop offset="1" stop-color="#BD8122"/></linearGradient><linearGradient id="n" x1="364.25" x2="366.5" y1="4.579" y2="3.266" gradientUnits="userSpaceOnUse"><stop stop-color="#5BA3E4"/><stop offset="1" stop-color="#1A6384"/></linearGradient><linearGradient id="o" x1="363" x2="362" y1="4.829" y2="3.329" gradientUnits="userSpaceOnUse"><stop stop-color="#9B6510"/><stop offset="1" stop-color="#BD8122" stop-opacity=".05"/></linearGradient><linearGradient id="p" x1="371.5" x2="350" y1="287.829" y2="302.329" gradientUnits="userSpaceOnUse"><stop stop-color="#FFEF5C" stop-opacity="0"/><stop offset=".274" stop-color="#C89329"/><stop offset=".542" stop-color="#E6BD3A"/><stop offset=".713" stop-color="#BF820B"/><stop offset=".849" stop-color="#B87B1C"/><stop offset=".967" stop-color="#DCA03E"/><stop offset="1" stop-color="#DCA03E" stop-opacity="0"/></linearGradient><linearGradient id="q" x1="369.167" x2="370.649" y1="285.829" y2="298.677" gradientUnits="userSpaceOnUse"><stop stop-color="#B97B1D" stop-opacity="0"/><stop offset=".239" stop-color="#BC7F1F" stop-opacity=".171"/><stop offset=".463" stop-color="#BE8321" stop-opacity=".332"/><stop offset="1" stop-color="#C99329"/></linearGradient><linearGradient id="r" x1="370.499" x2="370.5" y1="289.795" y2="302.328" gradientUnits="userSpaceOnUse"><stop stop-color="#A86808"/><stop offset="1" stop-color="#985D06"/></linearGradient><linearGradient id="s" x1="369.312" x2="365.937" y1="301.454" y2="306.891" gradientUnits="userSpaceOnUse"><stop stop-color="#BD8122"/><stop offset="1" stop-color="#FFF7CD"/></linearGradient><linearGradient id="t" x1="365.281" x2="365" y1="305.391" y2="319.329" gradientUnits="userSpaceOnUse"><stop stop-color="#9A5D01"/><stop offset="1" stop-color="#9A6613"/></linearGradient><linearGradient id="u" x1="365.281" x2="365" y1="305.391" y2="319.329" gradientUnits="userSpaceOnUse"><stop stop-color="#9A5D01"/><stop offset="1" stop-color="#9A6613"/></linearGradient><linearGradient id="v" x1="365.281" x2="365" y1="305.391" y2="319.329" gradientUnits="userSpaceOnUse"><stop stop-color="#9A5D01"/><stop offset="1" stop-color="#9A6613"/></linearGradient><linearGradient id="w" x1="364.5" x2="365.5" y1="312.829" y2="313.829" gradientUnits="userSpaceOnUse"><stop stop-color="#E8CC60"/><stop offset="1" stop-color="#E8CC60" stop-opacity="0"/></linearGradient><linearGradient id="x" x1="364" x2="365.5" y1="313.829" y2="311.829" gradientUnits="userSpaceOnUse"><stop stop-color="#FFF7CD"/><stop offset="1" stop-color="#BD8122"/></linearGradient><linearGradient id="z" x1="364.25" x2="366.5" y1="316.079" y2="317.391" gradientUnits="userSpaceOnUse"><stop stop-color="#5BA3E4"/><stop offset="1" stop-color="#1A6384"/></linearGradient><linearGradient id="A" x1="363" x2="362" y1="315.829" y2="317.329" gradientUnits="userSpaceOnUse"><stop stop-color="#9B6510"/><stop offset="1" stop-color="#BD8122" stop-opacity=".05"/></linearGradient><linearGradient id="B" x1=".5" x2="22" y1="287.829" y2="302.329" gradientUnits="userSpaceOnUse"><stop stop-color="#FFEF5C" stop-opacity="0"/><stop offset=".274" stop-color="#C89329"/><stop offset=".542" stop-color="#E6BD3A"/><stop offset=".713" stop-color="#BF820B"/><stop offset=".849" stop-color="#B87B1C"/><stop offset=".967" stop-color="#DCA03E"/><stop offset="1" stop-color="#DCA03E" stop-opacity="0"/></linearGradient><linearGradient id="C" x1="2.833" x2="1.351" y1="285.829" y2="298.677" gradientUnits="userSpaceOnUse"><stop stop-color="#B97B1D" stop-opacity="0"/><stop offset=".239" stop-color="#BC7F1F" stop-opacity=".171"/><stop offset=".463" stop-color="#BE8321" stop-opacity=".332"/><stop offset="1" stop-color="#C99329"/></linearGradient><linearGradient id="D" x1="1.501" x2="1.5" y1="289.795" y2="302.328" gradientUnits="userSpaceOnUse"><stop stop-color="#A86808"/><stop offset="1" stop-color="#985D06"/></linearGradient><linearGradient id="E" x1="2.688" x2="6.063" y1="301.454" y2="306.891" gradientUnits="userSpaceOnUse"><stop stop-color="#BD8122"/><stop offset="1" stop-color="#FFF7CD"/></linearGradient><linearGradient id="F" x1="6.719" x2="7" y1="305.391" y2="319.329" gradientUnits="userSpaceOnUse"><stop stop-color="#9A5D01"/><stop offset="1" stop-color="#9A6613"/></linearGradient><linearGradient id="G" x1="6.719" x2="7" y1="305.391" y2="319.329" gradientUnits="userSpaceOnUse"><stop stop-color="#9A5D01"/><stop offset="1" stop-color="#9A6613"/></linearGradient><linearGradient id="H" x1="6.719" x2="7" y1="305.391" y2="319.329" gradientUnits="userSpaceOnUse"><stop stop-color="#9A5D01"/><stop offset="1" stop-color="#9A6613"/></linearGradient><linearGradient id="I" x1="7.5" x2="6.5" y1="312.829" y2="313.829" gradientUnits="userSpaceOnUse"><stop stop-color="#E8CC60"/><stop offset="1" stop-color="#E8CC60" stop-opacity="0"/></linearGradient><linearGradient id="J" x1="8" x2="6.5" y1="313.829" y2="311.829" gradientUnits="userSpaceOnUse"><stop stop-color="#FFF7CD"/><stop offset="1" stop-color="#BD8122"/></linearGradient><linearGradient id="L" x1="7.75" x2="5.5" y1="316.079" y2="317.391" gradientUnits="userSpaceOnUse"><stop stop-color="#5BA3E4"/><stop offset="1" stop-color="#1A6384"/></linearGradient><linearGradient id="M" x1="9" x2="10" y1="315.829" y2="317.329" gradientUnits="userSpaceOnUse"><stop stop-color="#9B6510"/><stop offset="1" stop-color="#BD8122" stop-opacity=".05"/></linearGradient><linearGradient id="N" x1=".5" x2="22" y1="32.829" y2="18.329" gradientUnits="userSpaceOnUse"><stop stop-color="#FFEF5C" stop-opacity="0"/><stop offset=".274" stop-color="#C89329"/><stop offset=".542" stop-color="#E6BD3A"/><stop offset=".713" stop-color="#BF820B"/><stop offset=".849" stop-color="#B87B1C"/><stop offset=".967" stop-color="#DCA03E"/><stop offset="1" stop-color="#DCA03E" stop-opacity="0"/></linearGradient><linearGradient id="O" x1="2.833" x2="1.351" y1="34.829" y2="21.98" gradientUnits="userSpaceOnUse"><stop stop-color="#B97B1D" stop-opacity="0"/><stop offset=".239" stop-color="#BC7F1F" stop-opacity=".171"/><stop offset=".463" stop-color="#BE8321" stop-opacity=".332"/><stop offset="1" stop-color="#C99329"/></linearGradient><linearGradient id="P" x1="1.501" x2="1.5" y1="30.862" y2="18.329" gradientUnits="userSpaceOnUse"><stop stop-color="#A86808"/><stop offset="1" stop-color="#985D06"/></linearGradient><linearGradient id="Q" x1="2.688" x2="6.063" y1="19.204" y2="13.766" gradientUnits="userSpaceOnUse"><stop stop-color="#BD8122"/><stop offset="1" stop-color="#FFF7CD"/></linearGradient><linearGradient id="R" x1="6.719" x2="7" y1="15.266" y2="1.329" gradientUnits="userSpaceOnUse"><stop stop-color="#9A5D01"/><stop offset="1" stop-color="#9A6613"/></linearGradient><linearGradient id="S" x1="6.719" x2="7" y1="15.266" y2="1.329" gradientUnits="userSpaceOnUse"><stop stop-color="#9A5D01"/><stop offset="1" stop-color="#9A6613"/></linearGradient><linearGradient id="T" x1="6.719" x2="7" y1="15.266" y2="1.329" gradientUnits="userSpaceOnUse"><stop stop-color="#9A5D01"/><stop offset="1" stop-color="#9A6613"/></linearGradient><linearGradient id="U" x1="7.5" x2="6.5" y1="7.829" y2="6.829" gradientUnits="userSpaceOnUse"><stop stop-color="#E8CC60"/><stop offset="1" stop-color="#E8CC60" stop-opacity="0"/></linearGradient><linearGradient id="V" x1="8" x2="6.5" y1="6.829" y2="8.829" gradientUnits="userSpaceOnUse"><stop stop-color="#FFF7CD"/><stop offset="1" stop-color="#BD8122"/></linearGradient><linearGradient id="X" x1="7.75" x2="5.5" y1="4.579" y2="3.266" gradientUnits="userSpaceOnUse"><stop stop-color="#5BA3E4"/><stop offset="1" stop-color="#1A6384"/></linearGradient><linearGradient id="Y" x1="9" x2="10" y1="4.829" y2="3.329" gradientUnits="userSpaceOnUse"><stop stop-color="#9B6510"/><stop offset="1" stop-color="#BD8122" stop-opacity=".05"/></linearGradient><filter id="m" width="2.906" height="4.875" x="364" y="2.329" color-interpolation-filters="sRGB" filterUnits="userSpaceOnUse"><feFlood flood-opacity="0" result="BackgroundImageFix"/><feBlend in="SourceGraphic" in2="BackgroundImageFix" result="shape"/><feColorMatrix in="SourceAlpha" result="hardAlpha" values="0 0 0 0 0 0 0 0 0 0 0 0 0 0 0 0 0 0 127 0"/><feOffset dx="-.375" dy=".375"/><feComposite in2="hardAlpha" k2="-1" k3="1" operator="arithmetic"/><feColorMatrix values="0 0 0 0 0.0455729 0 0 0 0 0.267768 0 0 0 0 0.4375 0 0 0 0.4 0"/><feBlend in2="shape" result="effect1_innerShadow_60077_236661"/></filter><filter id="y" width="2.906" height="4.875" x="364" y="313.454" color-interpolation-filters="sRGB" filterUnits="userSpaceOnUse"><feFlood flood-opacity="0" result="BackgroundImageFix"/><feBlend in="SourceGraphic" in2="BackgroundImageFix" result="shape"/><feColorMatrix in="SourceAlpha" result="hardAlpha" values="0 0 0 0 0 0 0 0 0 0 0 0 0 0 0 0 0 0 127 0"/><feOffset dx="-.375" dy=".375"/><feComposite in2="hardAlpha" k2="-1" k3="1" operator="arithmetic"/><feColorMatrix values="0 0 0 0 0.0455729 0 0 0 0 0.267768 0 0 0 0 0.4375 0 0 0 0.4 0"/><feBlend in2="shape" result="effect1_innerShadow_60077_236661"/></filter><filter id="K" width="2.906" height="4.875" x="5.094" y="313.454" color-interpolation-filters="sRGB" filterUnits="userSpaceOnUse"><feFlood flood-opacity="0" result="BackgroundImageFix"/><feBlend in="SourceGraphic" in2="BackgroundImageFix" result="shape"/><feColorMatrix in="SourceAlpha" result="hardAlpha" values="0 0 0 0 0 0 0 0 0 0 0 0 0 0 0 0 0 0 127 0"/><feOffset dx="-.375" dy=".375"/><feComposite in2="hardAlpha" k2="-1" k3="1" operator="arithmetic"/><feColorMatrix values="0 0 0 0 0.0455729 0 0 0 0 0.267768 0 0 0 0 0.4375 0 0 0 0.4 0"/><feBlend in2="shape" result="effect1_innerShadow_60077_236661"/></filter><filter id="W" width="2.906" height="4.875" x="5.094" y="2.329" color-interpolation-filters="sRGB" filterUnits="userSpaceOnUse"><feFlood flood-opacity="0" result="BackgroundImageFix"/><feBlend in="SourceGraphic" in2="BackgroundImageFix" result="shape"/><feColorMatrix in="SourceAlpha" result="hardAlpha" values="0 0 0 0 0 0 0 0 0 0 0 0 0 0 0 0 0 0 127 0"/><feOffset dx="-.375" dy=".375"/><feComposite in2="hardAlpha" k2="-1" k3="1" operator="arithmetic"/><feColorMatrix values="0 0 0 0 0.0455729 0 0 0 0 0.267768 0 0 0 0 0.4375 0 0 0 0.4 0"/><feBlend in2="shape" result="effect1_innerShadow_60077_236661"/></filter><radialGradient id="b" cx="0" cy="0" r="1" gradientTransform="matrix(0 157 -1.5 0 1.5 160.329)" gradientUnits="userSpaceOnUse"><stop stop-color="#FFF7CD"/><stop offset="1" stop-color="#FFF7CD" stop-opacity="0"/></radialGradient><radialGradient id="c" cx="0" cy="0" r="1" gradientTransform="matrix(0 157 -.76596 0 .766 157)" gradientUnits="userSpaceOnUse"><stop stop-color="#FFF7CD"/><stop offset="1" stop-color="#FFF7CD" stop-opacity="0"/></radialGradient></defs></svg>
