<svg xmlns="http://www.w3.org/2000/svg" viewBox="0 0 20 20"><path fill-rule="evenodd" d="M1.172 1.172C0 2.343 0 4.229 0 8v4c0 3.771 0 5.657 1.172 6.828C2.343 20 4.229 20 8 20h4c3.771 0 5.657 0 6.828-1.172C20 17.657 20 15.771 20 12V8c0-3.771 0-5.657-1.172-6.828C17.657 0 15.771 0 12 0H8C4.229 0 2.343 0 1.172 1.172ZM12 2H9v16h3c1.942 0 3.198-.004 4.123-.129.867-.116 1.139-.304 1.291-.457.152-.152.34-.424.457-1.291.125-.925.129-2.18.129-4.123V8c0-1.942-.004-3.198-.129-4.123-.116-.867-.304-1.139-.457-1.291-.152-.152-.424-.34-1.291-.457C15.198 2.004 13.943 2 12 2ZM3 5a1 1 0 0 1 1-1h1a1 1 0 0 1 0 2H4a1 1 0 0 1-1-1Zm1 3a1 1 0 1 0 0 2h1a1 1 0 1 0 0-2H4Zm-1 5a1 1 0 0 1 1-1h1a1 1 0 1 1 0 2H4a1 1 0 0 1-1-1Z" clip-rule="evenodd"/><path fill-opacity=".8" fill-rule="evenodd" d="M1.172 1.172C0 2.343 0 4.229 0 8v4c0 3.771 0 5.657 1.172 6.828C2.343 20 4.229 20 8 20h4c3.771 0 5.657 0 6.828-1.172C20 17.657 20 15.771 20 12V8c0-3.771 0-5.657-1.172-6.828C17.657 0 15.771 0 12 0H8C4.229 0 2.343 0 1.172 1.172ZM12 2H9v16h3c1.942 0 3.198-.004 4.123-.129.867-.116 1.139-.304 1.291-.457.152-.152.34-.424.457-1.291.125-.925.129-2.18.129-4.123V8c0-1.942-.004-3.198-.129-4.123-.116-.867-.304-1.139-.457-1.291-.152-.152-.424-.34-1.291-.457C15.198 2.004 13.943 2 12 2ZM3 5a1 1 0 0 1 1-1h1a1 1 0 0 1 0 2H4a1 1 0 0 1-1-1Zm1 3a1 1 0 1 0 0 2h1a1 1 0 1 0 0-2H4Zm-1 5a1 1 0 0 1 1-1h1a1 1 0 1 1 0 2H4a1 1 0 0 1-1-1Z" clip-rule="evenodd"/><defs><radialGradient id="a" cx="0" cy="0" r="1" gradientTransform="rotate(-90 15 5) scale(9.16667)" gradientUnits="userSpaceOnUse"><stop stop-color="#8DBBE2"/><stop offset="1" stop-color="#8DBBE2" stop-opacity="0"/></radialGradient></defs></svg>